%TF.GenerationSoftware,KiCad,Pcbnew,7.0.10-7.0.10~ubuntu22.04.1*%
%TF.CreationDate,2024-03-26T22:09:04+01:00*%
%TF.ProjectId,hackbat,6861636b-6261-4742-9e6b-696361645f70,rev?*%
%TF.SameCoordinates,Original*%
%TF.FileFunction,Drillmap*%
%TF.FilePolarity,Positive*%
%FSLAX45Y45*%
G04 Gerber Fmt 4.5, Leading zero omitted, Abs format (unit mm)*
G04 Created by KiCad (PCBNEW 7.0.10-7.0.10~ubuntu22.04.1) date 2024-03-26 22:09:04*
%MOMM*%
%LPD*%
G01*
G04 APERTURE LIST*
%ADD10C,0.100000*%
%ADD11C,0.200000*%
G04 APERTURE END LIST*
D10*
X18600000Y-10200000D02*
X9000000Y-10200000D01*
X13250000Y-6000000D02*
X13250000Y-6500000D01*
X19000000Y-6000000D02*
X19000000Y-9800000D01*
X15750000Y-6000000D02*
X15750000Y-6500000D01*
X9400000Y-6000000D02*
X13250000Y-6000000D01*
X9000000Y-10200000D02*
X9000000Y-6400000D01*
X18600000Y-10200000D02*
G75*
G03*
X19000000Y-9800000I0J400000D01*
G01*
X13250000Y-6500000D02*
X15750000Y-6500000D01*
X9400000Y-6000000D02*
G75*
G03*
X9000000Y-6400000I0J-400000D01*
G01*
X15750000Y-6000000D02*
X19000000Y-6000000D01*
D11*
X9255777Y-10516484D02*
X9255777Y-10316484D01*
X9255777Y-10316484D02*
X9303396Y-10316484D01*
X9303396Y-10316484D02*
X9331967Y-10326008D01*
X9331967Y-10326008D02*
X9351015Y-10345055D01*
X9351015Y-10345055D02*
X9360539Y-10364103D01*
X9360539Y-10364103D02*
X9370063Y-10402198D01*
X9370063Y-10402198D02*
X9370063Y-10430770D01*
X9370063Y-10430770D02*
X9360539Y-10468865D01*
X9360539Y-10468865D02*
X9351015Y-10487912D01*
X9351015Y-10487912D02*
X9331967Y-10506960D01*
X9331967Y-10506960D02*
X9303396Y-10516484D01*
X9303396Y-10516484D02*
X9255777Y-10516484D01*
X9455777Y-10516484D02*
X9455777Y-10383150D01*
X9455777Y-10421246D02*
X9465301Y-10402198D01*
X9465301Y-10402198D02*
X9474824Y-10392674D01*
X9474824Y-10392674D02*
X9493872Y-10383150D01*
X9493872Y-10383150D02*
X9512920Y-10383150D01*
X9579586Y-10516484D02*
X9579586Y-10383150D01*
X9579586Y-10316484D02*
X9570063Y-10326008D01*
X9570063Y-10326008D02*
X9579586Y-10335531D01*
X9579586Y-10335531D02*
X9589110Y-10326008D01*
X9589110Y-10326008D02*
X9579586Y-10316484D01*
X9579586Y-10316484D02*
X9579586Y-10335531D01*
X9703396Y-10516484D02*
X9684348Y-10506960D01*
X9684348Y-10506960D02*
X9674824Y-10487912D01*
X9674824Y-10487912D02*
X9674824Y-10316484D01*
X9808158Y-10516484D02*
X9789110Y-10506960D01*
X9789110Y-10506960D02*
X9779586Y-10487912D01*
X9779586Y-10487912D02*
X9779586Y-10316484D01*
X10036729Y-10516484D02*
X10036729Y-10316484D01*
X10036729Y-10316484D02*
X10103396Y-10459341D01*
X10103396Y-10459341D02*
X10170063Y-10316484D01*
X10170063Y-10316484D02*
X10170063Y-10516484D01*
X10351015Y-10516484D02*
X10351015Y-10411722D01*
X10351015Y-10411722D02*
X10341491Y-10392674D01*
X10341491Y-10392674D02*
X10322444Y-10383150D01*
X10322444Y-10383150D02*
X10284348Y-10383150D01*
X10284348Y-10383150D02*
X10265301Y-10392674D01*
X10351015Y-10506960D02*
X10331967Y-10516484D01*
X10331967Y-10516484D02*
X10284348Y-10516484D01*
X10284348Y-10516484D02*
X10265301Y-10506960D01*
X10265301Y-10506960D02*
X10255777Y-10487912D01*
X10255777Y-10487912D02*
X10255777Y-10468865D01*
X10255777Y-10468865D02*
X10265301Y-10449817D01*
X10265301Y-10449817D02*
X10284348Y-10440293D01*
X10284348Y-10440293D02*
X10331967Y-10440293D01*
X10331967Y-10440293D02*
X10351015Y-10430770D01*
X10446253Y-10383150D02*
X10446253Y-10583150D01*
X10446253Y-10392674D02*
X10465301Y-10383150D01*
X10465301Y-10383150D02*
X10503396Y-10383150D01*
X10503396Y-10383150D02*
X10522444Y-10392674D01*
X10522444Y-10392674D02*
X10531967Y-10402198D01*
X10531967Y-10402198D02*
X10541491Y-10421246D01*
X10541491Y-10421246D02*
X10541491Y-10478389D01*
X10541491Y-10478389D02*
X10531967Y-10497436D01*
X10531967Y-10497436D02*
X10522444Y-10506960D01*
X10522444Y-10506960D02*
X10503396Y-10516484D01*
X10503396Y-10516484D02*
X10465301Y-10516484D01*
X10465301Y-10516484D02*
X10446253Y-10506960D01*
X10627205Y-10497436D02*
X10636729Y-10506960D01*
X10636729Y-10506960D02*
X10627205Y-10516484D01*
X10627205Y-10516484D02*
X10617682Y-10506960D01*
X10617682Y-10506960D02*
X10627205Y-10497436D01*
X10627205Y-10497436D02*
X10627205Y-10516484D01*
X10627205Y-10392674D02*
X10636729Y-10402198D01*
X10636729Y-10402198D02*
X10627205Y-10411722D01*
X10627205Y-10411722D02*
X10617682Y-10402198D01*
X10617682Y-10402198D02*
X10627205Y-10392674D01*
X10627205Y-10392674D02*
X10627205Y-10411722D01*
M02*
