%TF.GenerationSoftware,KiCad,Pcbnew,7.0.10-7.0.10~ubuntu22.04.1*%
%TF.CreationDate,2024-03-26T22:08:59+01:00*%
%TF.ProjectId,hackbat,6861636b-6261-4742-9e6b-696361645f70,rev?*%
%TF.SameCoordinates,Original*%
%TF.FileFunction,Paste,Top*%
%TF.FilePolarity,Positive*%
%FSLAX46Y46*%
G04 Gerber Fmt 4.6, Leading zero omitted, Abs format (unit mm)*
G04 Created by KiCad (PCBNEW 7.0.10-7.0.10~ubuntu22.04.1) date 2024-03-26 22:08:59*
%MOMM*%
%LPD*%
G01*
G04 APERTURE LIST*
G04 Aperture macros list*
%AMRoundRect*
0 Rectangle with rounded corners*
0 $1 Rounding radius*
0 $2 $3 $4 $5 $6 $7 $8 $9 X,Y pos of 4 corners*
0 Add a 4 corners polygon primitive as box body*
4,1,4,$2,$3,$4,$5,$6,$7,$8,$9,$2,$3,0*
0 Add four circle primitives for the rounded corners*
1,1,$1+$1,$2,$3*
1,1,$1+$1,$4,$5*
1,1,$1+$1,$6,$7*
1,1,$1+$1,$8,$9*
0 Add four rect primitives between the rounded corners*
20,1,$1+$1,$2,$3,$4,$5,0*
20,1,$1+$1,$4,$5,$6,$7,0*
20,1,$1+$1,$6,$7,$8,$9,0*
20,1,$1+$1,$8,$9,$2,$3,0*%
G04 Aperture macros list end*
%ADD10RoundRect,0.062500X0.362500X-0.062500X0.362500X0.062500X-0.362500X0.062500X-0.362500X-0.062500X0*%
%ADD11RoundRect,0.062500X0.062500X-0.362500X0.062500X0.362500X-0.062500X0.362500X-0.062500X-0.362500X0*%
%ADD12RoundRect,0.250000X0.315000X-0.315000X0.315000X0.315000X-0.315000X0.315000X-0.315000X-0.315000X0*%
%ADD13RoundRect,0.218750X-0.218750X-0.256250X0.218750X-0.256250X0.218750X0.256250X-0.218750X0.256250X0*%
%ADD14RoundRect,0.200000X-0.275000X0.200000X-0.275000X-0.200000X0.275000X-0.200000X0.275000X0.200000X0*%
%ADD15RoundRect,0.147500X0.172500X-0.147500X0.172500X0.147500X-0.172500X0.147500X-0.172500X-0.147500X0*%
%ADD16RoundRect,0.200000X0.200000X0.275000X-0.200000X0.275000X-0.200000X-0.275000X0.200000X-0.275000X0*%
%ADD17RoundRect,0.140000X0.170000X-0.140000X0.170000X0.140000X-0.170000X0.140000X-0.170000X-0.140000X0*%
%ADD18RoundRect,0.218750X0.218750X0.256250X-0.218750X0.256250X-0.218750X-0.256250X0.218750X-0.256250X0*%
%ADD19R,1.500000X5.080000*%
%ADD20RoundRect,0.200000X0.200000X0.800000X-0.200000X0.800000X-0.200000X-0.800000X0.200000X-0.800000X0*%
%ADD21RoundRect,0.225000X-0.225000X-0.250000X0.225000X-0.250000X0.225000X0.250000X-0.225000X0.250000X0*%
%ADD22RoundRect,0.200000X-0.200000X-0.275000X0.200000X-0.275000X0.200000X0.275000X-0.200000X0.275000X0*%
%ADD23RoundRect,0.140000X0.140000X0.170000X-0.140000X0.170000X-0.140000X-0.170000X0.140000X-0.170000X0*%
%ADD24RoundRect,0.200000X0.275000X-0.200000X0.275000X0.200000X-0.275000X0.200000X-0.275000X-0.200000X0*%
%ADD25R,1.300000X1.550000*%
%ADD26RoundRect,0.250000X-0.435000X-0.615000X0.435000X-0.615000X0.435000X0.615000X-0.435000X0.615000X0*%
%ADD27RoundRect,0.125000X-0.250000X-0.125000X0.250000X-0.125000X0.250000X0.125000X-0.250000X0.125000X0*%
%ADD28RoundRect,0.140000X-0.140000X-0.170000X0.140000X-0.170000X0.140000X0.170000X-0.140000X0.170000X0*%
%ADD29RoundRect,0.100000X-0.575000X0.100000X-0.575000X-0.100000X0.575000X-0.100000X0.575000X0.100000X0*%
%ADD30O,1.600000X0.900000*%
%ADD31RoundRect,0.250000X-0.450000X0.550000X-0.450000X-0.550000X0.450000X-0.550000X0.450000X0.550000X0*%
%ADD32RoundRect,0.250000X-0.700000X0.700000X-0.700000X-0.700000X0.700000X-0.700000X0.700000X0.700000X0*%
%ADD33RoundRect,0.225000X-0.250000X0.225000X-0.250000X-0.225000X0.250000X-0.225000X0.250000X0.225000X0*%
%ADD34RoundRect,0.249999X0.395001X0.395001X-0.395001X0.395001X-0.395001X-0.395001X0.395001X-0.395001X0*%
%ADD35RoundRect,0.050000X0.387500X0.050000X-0.387500X0.050000X-0.387500X-0.050000X0.387500X-0.050000X0*%
%ADD36RoundRect,0.050000X0.050000X0.387500X-0.050000X0.387500X-0.050000X-0.387500X0.050000X-0.387500X0*%
%ADD37RoundRect,0.135000X0.135000X0.185000X-0.135000X0.185000X-0.135000X-0.185000X0.135000X-0.185000X0*%
%ADD38R,1.400000X1.200000*%
%ADD39RoundRect,0.225000X0.250000X-0.225000X0.250000X0.225000X-0.250000X0.225000X-0.250000X-0.225000X0*%
%ADD40RoundRect,0.140000X-0.170000X0.140000X-0.170000X-0.140000X0.170000X-0.140000X0.170000X0.140000X0*%
%ADD41RoundRect,0.147500X0.147500X0.172500X-0.147500X0.172500X-0.147500X-0.172500X0.147500X-0.172500X0*%
%ADD42RoundRect,0.200000X-0.200000X-0.800000X0.200000X-0.800000X0.200000X0.800000X-0.200000X0.800000X0*%
%ADD43R,1.200000X1.400000*%
%ADD44R,1.500000X2.000000*%
%ADD45R,3.800000X2.000000*%
%ADD46RoundRect,0.225000X0.225000X0.250000X-0.225000X0.250000X-0.225000X-0.250000X0.225000X-0.250000X0*%
G04 APERTURE END LIST*
D10*
%TO.C,U6*%
X124575000Y-82925000D03*
X124575000Y-82425000D03*
X124575000Y-81925000D03*
X124575000Y-81425000D03*
X124575000Y-80925000D03*
D11*
X125500000Y-80000000D03*
X126000000Y-80000000D03*
X126500000Y-80000000D03*
X127000000Y-80000000D03*
X127500000Y-80000000D03*
D10*
X128425000Y-80925000D03*
X128425000Y-81425000D03*
X128425000Y-81925000D03*
X128425000Y-82425000D03*
X128425000Y-82925000D03*
D11*
X127500000Y-83850000D03*
X127000000Y-83850000D03*
X126500000Y-83850000D03*
X126000000Y-83850000D03*
X125500000Y-83850000D03*
D12*
X127150000Y-81275000D03*
X125850000Y-81275000D03*
X127150000Y-82575000D03*
X125850000Y-82575000D03*
%TD*%
D13*
%TO.C,D1*%
X91462500Y-84500000D03*
X93037500Y-84500000D03*
%TD*%
D14*
%TO.C,R16*%
X119500000Y-70925000D03*
X119500000Y-72575000D03*
%TD*%
D15*
%TO.C,L4*%
X128000000Y-70965000D03*
X128000000Y-69995000D03*
%TD*%
D16*
%TO.C,R8*%
X93075000Y-80250000D03*
X91425000Y-80250000D03*
%TD*%
D17*
%TO.C,C17*%
X128000000Y-67460000D03*
X128000000Y-66500000D03*
%TD*%
D18*
%TO.C,D3*%
X188787500Y-81000000D03*
X187212500Y-81000000D03*
%TD*%
D13*
%TO.C,D2*%
X91462500Y-82290000D03*
X93037500Y-82290000D03*
%TD*%
D16*
%TO.C,R7*%
X93075000Y-86500000D03*
X91425000Y-86500000D03*
%TD*%
D14*
%TO.C,R10*%
X182750000Y-83675000D03*
X182750000Y-85325000D03*
%TD*%
D19*
%TO.C,J1*%
X127000000Y-62962500D03*
X122750000Y-62962500D03*
X131250000Y-62962500D03*
%TD*%
D20*
%TO.C,SW1*%
X103100000Y-89000000D03*
X98900000Y-89000000D03*
%TD*%
D21*
%TO.C,C8*%
X121225000Y-83000000D03*
X122775000Y-83000000D03*
%TD*%
D22*
%TO.C,R20*%
X187175000Y-82750000D03*
X188825000Y-82750000D03*
%TD*%
D23*
%TO.C,C13*%
X126965000Y-78500000D03*
X126005000Y-78500000D03*
%TD*%
D24*
%TO.C,R28*%
X182100000Y-75025000D03*
X182100000Y-73375000D03*
%TD*%
D25*
%TO.C,SW3*%
X176000000Y-85000000D03*
X176000000Y-77050000D03*
X180500000Y-85000000D03*
X180500000Y-77050000D03*
%TD*%
D24*
%TO.C,R4*%
X97125000Y-83625000D03*
X97125000Y-81975000D03*
%TD*%
D25*
%TO.C,SW6*%
X165000000Y-85315000D03*
X165000000Y-77365000D03*
X169500000Y-85315000D03*
X169500000Y-77365000D03*
%TD*%
D17*
%TO.C,C21*%
X128500000Y-76710000D03*
X128500000Y-75750000D03*
%TD*%
D14*
%TO.C,R14*%
X122000000Y-70925000D03*
X122000000Y-72575000D03*
%TD*%
D26*
%TO.C,U1*%
X108325000Y-81900000D03*
X108325000Y-84050000D03*
X110025000Y-81900000D03*
X110025000Y-84050000D03*
D27*
X106475000Y-81070000D03*
X106475000Y-82340000D03*
X106475000Y-83610000D03*
X106475000Y-84880000D03*
X111875000Y-84880000D03*
X111875000Y-83610000D03*
X111875000Y-82340000D03*
X111875000Y-81070000D03*
%TD*%
D28*
%TO.C,C16*%
X128020000Y-68730000D03*
X128980000Y-68730000D03*
%TD*%
D14*
%TO.C,R9*%
X171500000Y-73175000D03*
X171500000Y-74825000D03*
%TD*%
D16*
%TO.C,R24*%
X155225000Y-87800000D03*
X153575000Y-87800000D03*
%TD*%
D29*
%TO.C,J2*%
X94175000Y-91900000D03*
X94175000Y-92550000D03*
X94175000Y-93200000D03*
X94175000Y-93850000D03*
X94175000Y-94500000D03*
D30*
X91500000Y-89900000D03*
D31*
X93950000Y-90000000D03*
D32*
X91500000Y-92000000D03*
X91500000Y-94400000D03*
D31*
X93950000Y-96400000D03*
D30*
X91500000Y-96500000D03*
%TD*%
D25*
%TO.C,SW5*%
X165000000Y-96315000D03*
X165000000Y-88365000D03*
X169500000Y-96315000D03*
X169500000Y-88365000D03*
%TD*%
D33*
%TO.C,C1*%
X95000000Y-86225000D03*
X95000000Y-87775000D03*
%TD*%
D15*
%TO.C,L1*%
X127250000Y-76715000D03*
X127250000Y-75745000D03*
%TD*%
D22*
%TO.C,R6*%
X98300000Y-70200000D03*
X99950000Y-70200000D03*
%TD*%
D25*
%TO.C,SW2*%
X165000000Y-74315000D03*
X165000000Y-66365000D03*
X169500000Y-74315000D03*
X169500000Y-66365000D03*
%TD*%
D21*
%TO.C,C5*%
X95225000Y-70200000D03*
X96775000Y-70200000D03*
%TD*%
D14*
%TO.C,R13*%
X171750000Y-83925000D03*
X171750000Y-85575000D03*
%TD*%
D24*
%TO.C,R29*%
X173000000Y-66925000D03*
X173000000Y-65275000D03*
%TD*%
%TO.C,R27*%
X183800000Y-75025000D03*
X183800000Y-73375000D03*
%TD*%
D14*
%TO.C,R12*%
X171750000Y-94675000D03*
X171750000Y-96325000D03*
%TD*%
D21*
%TO.C,C4*%
X113650000Y-81100000D03*
X115200000Y-81100000D03*
%TD*%
D34*
%TO.C,U2*%
X99862500Y-77400000D03*
X99862500Y-75800000D03*
X98262500Y-77400000D03*
X98262500Y-75800000D03*
D35*
X102500000Y-79200000D03*
X102500000Y-78800000D03*
X102500000Y-78400000D03*
X102500000Y-78000000D03*
X102500000Y-77600000D03*
X102500000Y-77200000D03*
X102500000Y-76800000D03*
X102500000Y-76400000D03*
X102500000Y-76000000D03*
X102500000Y-75600000D03*
X102500000Y-75200000D03*
X102500000Y-74800000D03*
X102500000Y-74400000D03*
X102500000Y-74000000D03*
D36*
X101662500Y-73162500D03*
X101262500Y-73162500D03*
X100862500Y-73162500D03*
X100462500Y-73162500D03*
X100062500Y-73162500D03*
X99662500Y-73162500D03*
X99262500Y-73162500D03*
X98862500Y-73162500D03*
X98462500Y-73162500D03*
X98062500Y-73162500D03*
X97662500Y-73162500D03*
X97262500Y-73162500D03*
X96862500Y-73162500D03*
X96462500Y-73162500D03*
D35*
X95625000Y-74000000D03*
X95625000Y-74400000D03*
X95625000Y-74800000D03*
X95625000Y-75200000D03*
X95625000Y-75600000D03*
X95625000Y-76000000D03*
X95625000Y-76400000D03*
X95625000Y-76800000D03*
X95625000Y-77200000D03*
X95625000Y-77600000D03*
X95625000Y-78000000D03*
X95625000Y-78400000D03*
X95625000Y-78800000D03*
X95625000Y-79200000D03*
D36*
X96462500Y-80037500D03*
X96862500Y-80037500D03*
X97262500Y-80037500D03*
X97662500Y-80037500D03*
X98062500Y-80037500D03*
X98462500Y-80037500D03*
X98862500Y-80037500D03*
X99262500Y-80037500D03*
X99662500Y-80037500D03*
X100062500Y-80037500D03*
X100462500Y-80037500D03*
X100862500Y-80037500D03*
X101262500Y-80037500D03*
X101662500Y-80037500D03*
%TD*%
D37*
%TO.C,R21*%
X123260000Y-81500000D03*
X122240000Y-81500000D03*
%TD*%
D28*
%TO.C,C19*%
X131770000Y-84750000D03*
X132730000Y-84750000D03*
%TD*%
D38*
%TO.C,Y1*%
X98925000Y-68550000D03*
X101125000Y-68550000D03*
X101125000Y-66850000D03*
X98925000Y-66850000D03*
%TD*%
D22*
%TO.C,R2*%
X107150000Y-76270000D03*
X108800000Y-76270000D03*
%TD*%
D24*
%TO.C,R26*%
X182300000Y-67125000D03*
X182300000Y-65475000D03*
%TD*%
D16*
%TO.C,R5*%
X93575000Y-70250000D03*
X91925000Y-70250000D03*
%TD*%
D15*
%TO.C,L3*%
X128000000Y-74465000D03*
X128000000Y-73495000D03*
%TD*%
D14*
%TO.C,R17*%
X118000000Y-70925000D03*
X118000000Y-72575000D03*
%TD*%
D16*
%TO.C,R23*%
X152125000Y-87800000D03*
X150475000Y-87800000D03*
%TD*%
D39*
%TO.C,C10*%
X104500000Y-81025000D03*
X104500000Y-79475000D03*
%TD*%
D40*
%TO.C,C18*%
X127500000Y-85000000D03*
X127500000Y-85960000D03*
%TD*%
D28*
%TO.C,C20*%
X131770000Y-79250000D03*
X132730000Y-79250000D03*
%TD*%
D24*
%TO.C,R3*%
X98625000Y-83625000D03*
X98625000Y-81975000D03*
%TD*%
D41*
%TO.C,L2*%
X129220000Y-78500000D03*
X128250000Y-78500000D03*
%TD*%
D42*
%TO.C,SW7*%
X175900000Y-66200000D03*
X180100000Y-66200000D03*
%TD*%
D25*
%TO.C,SW4*%
X154000000Y-85315000D03*
X154000000Y-77365000D03*
X158500000Y-85315000D03*
X158500000Y-77365000D03*
%TD*%
D39*
%TO.C,C2*%
X103125000Y-68325000D03*
X103125000Y-66775000D03*
%TD*%
D22*
%TO.C,R22*%
X156675000Y-87800000D03*
X158325000Y-87800000D03*
%TD*%
%TO.C,R1*%
X107150000Y-77970000D03*
X108800000Y-77970000D03*
%TD*%
D21*
%TO.C,C11*%
X93725000Y-99500000D03*
X95275000Y-99500000D03*
%TD*%
D28*
%TO.C,C15*%
X128020000Y-72230000D03*
X128980000Y-72230000D03*
%TD*%
D43*
%TO.C,Y2*%
X131150000Y-80900000D03*
X131150000Y-83100000D03*
X132850000Y-83100000D03*
X132850000Y-80900000D03*
%TD*%
D14*
%TO.C,R11*%
X160750000Y-84175000D03*
X160750000Y-85825000D03*
%TD*%
D33*
%TO.C,C3*%
X96925000Y-66775000D03*
X96925000Y-68325000D03*
%TD*%
D21*
%TO.C,C9*%
X91475000Y-78500000D03*
X93025000Y-78500000D03*
%TD*%
D44*
%TO.C,U3*%
X98200000Y-99650000D03*
X100500000Y-99650000D03*
D45*
X100500000Y-93350000D03*
D44*
X102800000Y-99650000D03*
%TD*%
D24*
%TO.C,R25*%
X184000000Y-67125000D03*
X184000000Y-65475000D03*
%TD*%
D39*
%TO.C,C12*%
X171750000Y-82025000D03*
X171750000Y-80475000D03*
%TD*%
D46*
%TO.C,C7*%
X108775000Y-74500000D03*
X107225000Y-74500000D03*
%TD*%
D14*
%TO.C,R15*%
X124750000Y-70925000D03*
X124750000Y-72575000D03*
%TD*%
D39*
%TO.C,C6*%
X95500000Y-83580000D03*
X95500000Y-82030000D03*
%TD*%
D23*
%TO.C,C14*%
X130480000Y-77230000D03*
X129520000Y-77230000D03*
%TD*%
D14*
%TO.C,R18*%
X115750000Y-70925000D03*
X115750000Y-72575000D03*
%TD*%
%TO.C,R19*%
X114240000Y-70925000D03*
X114240000Y-72575000D03*
%TD*%
M02*
