%TF.GenerationSoftware,KiCad,Pcbnew,7.0.10-7.0.10~ubuntu22.04.1*%
%TF.CreationDate,2024-03-26T22:08:59+01:00*%
%TF.ProjectId,hackbat,6861636b-6261-4742-9e6b-696361645f70,rev?*%
%TF.SameCoordinates,Original*%
%TF.FileFunction,Copper,L3,Inr*%
%TF.FilePolarity,Positive*%
%FSLAX46Y46*%
G04 Gerber Fmt 4.6, Leading zero omitted, Abs format (unit mm)*
G04 Created by KiCad (PCBNEW 7.0.10-7.0.10~ubuntu22.04.1) date 2024-03-26 22:08:59*
%MOMM*%
%LPD*%
G01*
G04 APERTURE LIST*
G04 Aperture macros list*
%AMRoundRect*
0 Rectangle with rounded corners*
0 $1 Rounding radius*
0 $2 $3 $4 $5 $6 $7 $8 $9 X,Y pos of 4 corners*
0 Add a 4 corners polygon primitive as box body*
4,1,4,$2,$3,$4,$5,$6,$7,$8,$9,$2,$3,0*
0 Add four circle primitives for the rounded corners*
1,1,$1+$1,$2,$3*
1,1,$1+$1,$4,$5*
1,1,$1+$1,$6,$7*
1,1,$1+$1,$8,$9*
0 Add four rect primitives between the rounded corners*
20,1,$1+$1,$2,$3,$4,$5,0*
20,1,$1+$1,$4,$5,$6,$7,0*
20,1,$1+$1,$6,$7,$8,$9,0*
20,1,$1+$1,$8,$9,$2,$3,0*%
G04 Aperture macros list end*
%TA.AperFunction,ComponentPad*%
%ADD10C,0.600000*%
%TD*%
%TA.AperFunction,ComponentPad*%
%ADD11R,1.700000X1.700000*%
%TD*%
%TA.AperFunction,ComponentPad*%
%ADD12O,1.700000X1.700000*%
%TD*%
%TA.AperFunction,ComponentPad*%
%ADD13R,1.500000X1.500000*%
%TD*%
%TA.AperFunction,ComponentPad*%
%ADD14C,3.800000*%
%TD*%
%TA.AperFunction,ComponentPad*%
%ADD15RoundRect,0.375000X0.375000X-1.125000X0.375000X1.125000X-0.375000X1.125000X-0.375000X-1.125000X0*%
%TD*%
%TA.AperFunction,ComponentPad*%
%ADD16O,1.600000X0.900000*%
%TD*%
%TA.AperFunction,ViaPad*%
%ADD17C,0.600000*%
%TD*%
%TA.AperFunction,Conductor*%
%ADD18C,0.127000*%
%TD*%
G04 APERTURE END LIST*
D10*
%TO.N,GND*%
%TO.C,U6*%
X127400000Y-81025000D03*
X125600000Y-81025000D03*
X127400000Y-82825000D03*
X125600000Y-82825000D03*
%TD*%
D11*
%TO.N,uart_tx*%
%TO.C,J5*%
X123820000Y-94200000D03*
D12*
%TO.N,uart_rx*%
X121280000Y-94200000D03*
%TO.N,GND*%
X118740000Y-94200000D03*
%TO.N,+3V3*%
X116200000Y-94200000D03*
%TD*%
D13*
%TO.N,Net-(AE1-A)*%
%TO.C,AE1*%
X127750000Y-62500000D03*
%TD*%
D14*
%TO.N,*%
%TO.C,U5*%
X106550000Y-68750000D03*
X106650000Y-96750000D03*
X137300000Y-68750000D03*
X137300000Y-96750000D03*
D15*
%TO.N,Net-(U5-VCC_IN)*%
X118100000Y-67900000D03*
%TO.N,Net-(U5-GND)*%
X120640000Y-67900000D03*
%TO.N,i2c_scl*%
X123180000Y-67900000D03*
%TO.N,i2c_sda*%
X125720000Y-67900000D03*
%TD*%
D16*
%TO.N,GND*%
%TO.C,J2*%
X91500000Y-89900000D03*
X91500000Y-96500000D03*
%TD*%
D11*
%TO.N,i2c_scl*%
%TO.C,J3*%
X136000000Y-85300000D03*
D12*
%TO.N,i2c_sda*%
X136000000Y-82760000D03*
%TO.N,+3V3*%
X136000000Y-80220000D03*
%TO.N,GND*%
X136000000Y-77680000D03*
%TD*%
D17*
%TO.N,GND*%
X100300000Y-89700000D03*
X104000000Y-87700000D03*
X106800000Y-88000000D03*
%TO.N,+3V3*%
X105200000Y-88200000D03*
X100200000Y-84600000D03*
%TO.N,GND*%
X155300000Y-85900000D03*
%TO.N,led_0*%
X93037500Y-84500000D03*
X103800000Y-71500000D03*
%TO.N,led_1*%
X93037500Y-82290000D03*
X103300000Y-70800000D03*
%TO.N,GND*%
X93300000Y-85800000D03*
X93500000Y-80200000D03*
X90600000Y-79000000D03*
X128436500Y-86700000D03*
%TO.N,spi_clk*%
X130700000Y-87500000D03*
%TO.N,sdcard_cs*%
X146700000Y-88600000D03*
%TO.N,uart_rx*%
X91536500Y-77525000D03*
%TO.N,uart_tx*%
X91800000Y-76400000D03*
%TO.N,GND*%
X120000000Y-72250000D03*
X116250000Y-72250000D03*
X99100000Y-76600000D03*
X100250000Y-75500000D03*
X102500000Y-82250000D03*
X103500000Y-84500000D03*
X102728219Y-70064612D03*
X105000000Y-84500000D03*
X103750000Y-82250000D03*
X98000000Y-75500000D03*
X115500000Y-82500000D03*
%TO.N,+5V*%
X102250000Y-99000000D03*
X94750000Y-91750000D03*
X103000000Y-100250000D03*
X95250000Y-88250000D03*
%TO.N,+3V3*%
X93250000Y-78250000D03*
X118250000Y-72000000D03*
X101750000Y-92750000D03*
X125000000Y-79500000D03*
X154500000Y-76750000D03*
X95000000Y-79750000D03*
X164750000Y-97000000D03*
X127500000Y-86900000D03*
X165000000Y-88500000D03*
X129500000Y-81250000D03*
X99000000Y-92750000D03*
X176500000Y-76500000D03*
X175500000Y-85750000D03*
X109500000Y-76250000D03*
X124686500Y-72575000D03*
X98750000Y-80750000D03*
X128000000Y-79750000D03*
X92000000Y-70000000D03*
X170200000Y-79100000D03*
X113250000Y-80250000D03*
X164750000Y-66750000D03*
X154400000Y-83900000D03*
X114250000Y-72250000D03*
X165000000Y-85500000D03*
X98976545Y-71476545D03*
X100500000Y-92750000D03*
X164300000Y-77000000D03*
X92100000Y-74800000D03*
X164750000Y-74750000D03*
X172200000Y-80700000D03*
X122233183Y-82320000D03*
X104000000Y-79750000D03*
X103800000Y-76000000D03*
X181200000Y-73400000D03*
X122500000Y-72250000D03*
%TO.N,sdcard_cs*%
X104436500Y-74398455D03*
X149100000Y-88900000D03*
%TO.N,Net-(J4-CMD)*%
X152000000Y-86900000D03*
%TO.N,sdcard_sclk*%
X154200000Y-86800000D03*
X103948455Y-73648455D03*
%TO.N,Net-(J4-DAT0)*%
X155225000Y-87800000D03*
%TO.N,button_up*%
X166800000Y-81000000D03*
X92151545Y-75648455D03*
%TO.N,button_right*%
X180500000Y-84200000D03*
X94151545Y-78751545D03*
%TO.N,button_left*%
X93300000Y-77300000D03*
X158000000Y-81282500D03*
%TO.N,button_down*%
X169200000Y-87500000D03*
X94100000Y-79600000D03*
%TO.N,button_enter*%
X168800000Y-81600000D03*
X94000000Y-77900000D03*
%TO.N,Net-(D3-A)*%
X186200000Y-81000000D03*
%TO.N,spi_rx*%
X95250000Y-71563500D03*
X125700000Y-84873000D03*
%TO.N,spi_rf_cs*%
X129700000Y-85400000D03*
X96000000Y-72250000D03*
%TO.N,spi_clk*%
X93500000Y-72750000D03*
X125000000Y-86000000D03*
%TO.N,spi_tx*%
X124250000Y-86500000D03*
X94000000Y-73500000D03*
%TO.N,rf_gd2*%
X126200000Y-86800000D03*
X93620424Y-74290924D03*
%TO.N,rf_gd0*%
X93250000Y-75000000D03*
X126750000Y-87500000D03*
%TO.N,sdcard_detection*%
X103263500Y-72236500D03*
X147048455Y-83648455D03*
X158200000Y-86900000D03*
%TO.N,sdcard_mosi*%
X105400000Y-72800000D03*
X149700000Y-87800000D03*
%TO.N,sdcard_miso*%
X104346209Y-75269738D03*
X152600000Y-89800000D03*
%TO.N,wifi_txd*%
X181400000Y-68100000D03*
X105900000Y-75800000D03*
%TO.N,Net-(U4-GPIO1{slash}TXD)*%
X184000000Y-65475000D03*
%TO.N,wifi_rxd*%
X106040294Y-76955500D03*
X182300000Y-68200000D03*
%TO.N,Net-(U4-GPIO3{slash}RXD)*%
X182300000Y-65475000D03*
%TO.N,Net-(U4-~{RST})*%
X183800000Y-76000000D03*
%TO.N,Net-(U4-EN)*%
X180900000Y-75200000D03*
%TO.N,Net-(U4-GPIO15)*%
X172200000Y-64900000D03*
%TO.N,Net-(U4-GPIO0)*%
X175900000Y-64900000D03*
%TD*%
D18*
%TO.N,led_0*%
X101862448Y-71500000D02*
X99735448Y-73627000D01*
X99735448Y-73627000D02*
X96735448Y-73627000D01*
X103800000Y-71500000D02*
X101862448Y-71500000D01*
X96735448Y-73627000D02*
X96127000Y-74235448D01*
X93037500Y-84224948D02*
X93037500Y-84500000D01*
X96127000Y-74235448D02*
X96127000Y-81173000D01*
X96089448Y-81173000D02*
X93037500Y-84224948D01*
X96127000Y-81173000D02*
X96089448Y-81173000D01*
%TO.N,led_1*%
X103300000Y-70800000D02*
X102100000Y-70800000D01*
X95800000Y-74100000D02*
X95800000Y-81000000D01*
X93047500Y-82300000D02*
X93037500Y-82290000D01*
X102100000Y-70800000D02*
X99600000Y-73300000D01*
X99600000Y-73300000D02*
X96600000Y-73300000D01*
X96600000Y-73300000D02*
X95800000Y-74100000D01*
X95800000Y-81000000D02*
X94500000Y-82300000D01*
X94500000Y-82300000D02*
X93047500Y-82300000D01*
%TO.N,sdcard_cs*%
X130600000Y-74717500D02*
X104755545Y-74717500D01*
X148173000Y-87532358D02*
X148173000Y-87197896D01*
X104755545Y-74717500D02*
X104436500Y-74398455D01*
X147337552Y-86362448D02*
X135692604Y-74717500D01*
X148173000Y-87197896D02*
X147337552Y-86362448D01*
X135692604Y-74717500D02*
X130600000Y-74717500D01*
X149100000Y-88900000D02*
X149100000Y-88459358D01*
X149100000Y-88459358D02*
X148173000Y-87532358D01*
%TO.N,sdcard_sclk*%
X103948455Y-73648455D02*
X105748455Y-73648455D01*
X148500000Y-87396910D02*
X150103090Y-89000000D01*
X106490500Y-74390500D02*
X113300000Y-74390500D01*
X154200000Y-88500000D02*
X154200000Y-86800000D01*
X148500000Y-87062448D02*
X148500000Y-87396910D01*
X153700000Y-89000000D02*
X154200000Y-88500000D01*
X105748455Y-73648455D02*
X106490500Y-74390500D01*
X113300000Y-74390500D02*
X135828052Y-74390500D01*
X135828052Y-74390500D02*
X148500000Y-87062448D01*
X150103090Y-89000000D02*
X153700000Y-89000000D01*
%TO.N,sdcard_detection*%
X105633410Y-72236500D02*
X103263500Y-72236500D01*
X136098948Y-73736500D02*
X107133410Y-73736500D01*
X107133410Y-73736500D02*
X105633410Y-72236500D01*
X147048455Y-83648455D02*
X146010903Y-83648455D01*
X146010903Y-83648455D02*
X136098948Y-73736500D01*
%TO.N,sdcard_mosi*%
X135963500Y-74063500D02*
X106663500Y-74063500D01*
X106663500Y-74063500D02*
X105400000Y-72800000D01*
X149700000Y-87800000D02*
X135963500Y-74063500D01*
%TO.N,sdcard_miso*%
X137306328Y-76793672D02*
X147656328Y-87143672D01*
X104346209Y-75269738D02*
X104571447Y-75044500D01*
X149000000Y-89800000D02*
X152600000Y-89800000D01*
X147656328Y-87143672D02*
X147846000Y-87333344D01*
X147846000Y-87333344D02*
X147846000Y-87667806D01*
X135557156Y-75044500D02*
X137306328Y-76793672D01*
X148300000Y-89100000D02*
X149000000Y-89800000D01*
X104571447Y-75044500D02*
X108300000Y-75044500D01*
X108300000Y-75044500D02*
X135557156Y-75044500D01*
X147846000Y-87667806D02*
X148300000Y-88121806D01*
X148300000Y-88121806D02*
X148300000Y-89100000D01*
%TD*%
%TA.AperFunction,Conductor*%
%TO.N,GND*%
G36*
X132142539Y-60320185D02*
G01*
X132188294Y-60372989D01*
X132199500Y-60424500D01*
X132199500Y-64940784D01*
X132196437Y-64962745D01*
X132195599Y-64971791D01*
X132195599Y-64971792D01*
X132195599Y-64971793D01*
X132197455Y-64991817D01*
X132198971Y-65008182D01*
X132199500Y-65019623D01*
X132199500Y-65027843D01*
X132199501Y-65027854D01*
X132201011Y-65035937D01*
X132202591Y-65047264D01*
X132205964Y-65083658D01*
X132208443Y-65092372D01*
X132211667Y-65101989D01*
X132214938Y-65110432D01*
X132214939Y-65110433D01*
X132230933Y-65136265D01*
X132234177Y-65141503D01*
X132239746Y-65151502D01*
X132244442Y-65160931D01*
X132256041Y-65184228D01*
X132261526Y-65191490D01*
X132267957Y-65199235D01*
X132274080Y-65205951D01*
X132303249Y-65227979D01*
X132312061Y-65235296D01*
X132339069Y-65259918D01*
X132346797Y-65264702D01*
X132355580Y-65269594D01*
X132363732Y-65273653D01*
X132363736Y-65273656D01*
X132398895Y-65283659D01*
X132409742Y-65287295D01*
X132443827Y-65300500D01*
X132443828Y-65300500D01*
X132452755Y-65302169D01*
X132462742Y-65303562D01*
X132471788Y-65304399D01*
X132471793Y-65304401D01*
X132508183Y-65301028D01*
X132519624Y-65300500D01*
X157440785Y-65300500D01*
X157462742Y-65303562D01*
X157471788Y-65304399D01*
X157471793Y-65304401D01*
X157508183Y-65301028D01*
X157519624Y-65300500D01*
X157527845Y-65300500D01*
X157530407Y-65300020D01*
X157535921Y-65298989D01*
X157547259Y-65297407D01*
X157583660Y-65294035D01*
X157583666Y-65294031D01*
X157592421Y-65291541D01*
X157601940Y-65288350D01*
X157610431Y-65285061D01*
X157610433Y-65285061D01*
X157641521Y-65265811D01*
X157651498Y-65260254D01*
X157684228Y-65243958D01*
X157684230Y-65243954D01*
X157691523Y-65238448D01*
X157699197Y-65232076D01*
X157705949Y-65225921D01*
X157705949Y-65225920D01*
X157705952Y-65225919D01*
X157727990Y-65196734D01*
X157735275Y-65187961D01*
X157759916Y-65160933D01*
X157759918Y-65160927D01*
X157764721Y-65153170D01*
X157769579Y-65144448D01*
X157773651Y-65136269D01*
X157773656Y-65136264D01*
X157783663Y-65101089D01*
X157787289Y-65090270D01*
X157800500Y-65056173D01*
X157800500Y-65056171D01*
X157800501Y-65056169D01*
X157802172Y-65047229D01*
X157803561Y-65037276D01*
X157804401Y-65028207D01*
X157801029Y-64991817D01*
X157800500Y-64980376D01*
X157800500Y-64900001D01*
X171594318Y-64900001D01*
X171614955Y-65056760D01*
X171614956Y-65056762D01*
X171672945Y-65196761D01*
X171675464Y-65202841D01*
X171771718Y-65328282D01*
X171897159Y-65424536D01*
X172043238Y-65485044D01*
X172121619Y-65495363D01*
X172199999Y-65505682D01*
X172200000Y-65505682D01*
X172200001Y-65505682D01*
X172252254Y-65498802D01*
X172356762Y-65485044D01*
X172502841Y-65424536D01*
X172628282Y-65328282D01*
X172724536Y-65202841D01*
X172785044Y-65056762D01*
X172805682Y-64900001D01*
X175294318Y-64900001D01*
X175314955Y-65056760D01*
X175314956Y-65056762D01*
X175372945Y-65196761D01*
X175375464Y-65202841D01*
X175471718Y-65328282D01*
X175597159Y-65424536D01*
X175743238Y-65485044D01*
X175821619Y-65495363D01*
X175899999Y-65505682D01*
X175900000Y-65505682D01*
X175900001Y-65505682D01*
X175952254Y-65498802D01*
X176056762Y-65485044D01*
X176081008Y-65475001D01*
X181694318Y-65475001D01*
X181714955Y-65631760D01*
X181714956Y-65631762D01*
X181775464Y-65777841D01*
X181871718Y-65903282D01*
X181997159Y-65999536D01*
X182143238Y-66060044D01*
X182221619Y-66070363D01*
X182299999Y-66080682D01*
X182300000Y-66080682D01*
X182300001Y-66080682D01*
X182352254Y-66073802D01*
X182456762Y-66060044D01*
X182602841Y-65999536D01*
X182728282Y-65903282D01*
X182824536Y-65777841D01*
X182885044Y-65631762D01*
X182905682Y-65475001D01*
X183394318Y-65475001D01*
X183414955Y-65631760D01*
X183414956Y-65631762D01*
X183475464Y-65777841D01*
X183571718Y-65903282D01*
X183697159Y-65999536D01*
X183843238Y-66060044D01*
X183921619Y-66070363D01*
X183999999Y-66080682D01*
X184000000Y-66080682D01*
X184000001Y-66080682D01*
X184052254Y-66073802D01*
X184156762Y-66060044D01*
X184302841Y-65999536D01*
X184428282Y-65903282D01*
X184524536Y-65777841D01*
X184585044Y-65631762D01*
X184605682Y-65475000D01*
X184585044Y-65318238D01*
X184524536Y-65172159D01*
X184428282Y-65046718D01*
X184302841Y-64950464D01*
X184279471Y-64940784D01*
X184156762Y-64889956D01*
X184156760Y-64889955D01*
X184000001Y-64869318D01*
X183999999Y-64869318D01*
X183843239Y-64889955D01*
X183843237Y-64889956D01*
X183697160Y-64950463D01*
X183571718Y-65046718D01*
X183475463Y-65172160D01*
X183414956Y-65318237D01*
X183414955Y-65318239D01*
X183394318Y-65474998D01*
X183394318Y-65475001D01*
X182905682Y-65475001D01*
X182905682Y-65475000D01*
X182885044Y-65318238D01*
X182824536Y-65172159D01*
X182728282Y-65046718D01*
X182602841Y-64950464D01*
X182579471Y-64940784D01*
X182456762Y-64889956D01*
X182456760Y-64889955D01*
X182300001Y-64869318D01*
X182299999Y-64869318D01*
X182143239Y-64889955D01*
X182143237Y-64889956D01*
X181997160Y-64950463D01*
X181871718Y-65046718D01*
X181775463Y-65172160D01*
X181714956Y-65318237D01*
X181714955Y-65318239D01*
X181694318Y-65474998D01*
X181694318Y-65475001D01*
X176081008Y-65475001D01*
X176202841Y-65424536D01*
X176328282Y-65328282D01*
X176424536Y-65202841D01*
X176485044Y-65056762D01*
X176505682Y-64900000D01*
X176485044Y-64743238D01*
X176424536Y-64597159D01*
X176328282Y-64471718D01*
X176202841Y-64375464D01*
X176056762Y-64314956D01*
X176056760Y-64314955D01*
X175900001Y-64294318D01*
X175899999Y-64294318D01*
X175743239Y-64314955D01*
X175743237Y-64314956D01*
X175597160Y-64375463D01*
X175471718Y-64471718D01*
X175375463Y-64597160D01*
X175314956Y-64743237D01*
X175314955Y-64743239D01*
X175294318Y-64899998D01*
X175294318Y-64900001D01*
X172805682Y-64900001D01*
X172805682Y-64900000D01*
X172785044Y-64743238D01*
X172724536Y-64597159D01*
X172628282Y-64471718D01*
X172502841Y-64375464D01*
X172356762Y-64314956D01*
X172356760Y-64314955D01*
X172200001Y-64294318D01*
X172199999Y-64294318D01*
X172043239Y-64314955D01*
X172043237Y-64314956D01*
X171897160Y-64375463D01*
X171771718Y-64471718D01*
X171675463Y-64597160D01*
X171614956Y-64743237D01*
X171614955Y-64743239D01*
X171594318Y-64899998D01*
X171594318Y-64900001D01*
X157800500Y-64900001D01*
X157800500Y-60424500D01*
X157820185Y-60357461D01*
X157872989Y-60311706D01*
X157924500Y-60300500D01*
X189575500Y-60300500D01*
X189642539Y-60320185D01*
X189688294Y-60372989D01*
X189699500Y-60424500D01*
X189699500Y-62356000D01*
X189679815Y-62423039D01*
X189627011Y-62468794D01*
X189575500Y-62480000D01*
X185050000Y-62480000D01*
X185050000Y-78720000D01*
X189575500Y-78720000D01*
X189642539Y-78739685D01*
X189688294Y-78792489D01*
X189699500Y-78844000D01*
X189699500Y-97996948D01*
X189699351Y-98003033D01*
X189681984Y-98356531D01*
X189680791Y-98368640D01*
X189629308Y-98715712D01*
X189626934Y-98727648D01*
X189541680Y-99068001D01*
X189538147Y-99079646D01*
X189419945Y-99409996D01*
X189415289Y-99421237D01*
X189265270Y-99738429D01*
X189259533Y-99749162D01*
X189079156Y-100050102D01*
X189072396Y-100060220D01*
X188863377Y-100342049D01*
X188855657Y-100351455D01*
X188620033Y-100611428D01*
X188611428Y-100620033D01*
X188351455Y-100855657D01*
X188342049Y-100863377D01*
X188060220Y-101072396D01*
X188050102Y-101079156D01*
X187749162Y-101259533D01*
X187738429Y-101265270D01*
X187421237Y-101415289D01*
X187409996Y-101419945D01*
X187079646Y-101538147D01*
X187068001Y-101541680D01*
X186727648Y-101626934D01*
X186715712Y-101629308D01*
X186368640Y-101680791D01*
X186356531Y-101681984D01*
X186023016Y-101698369D01*
X186003031Y-101699351D01*
X185996949Y-101699500D01*
X90424500Y-101699500D01*
X90357461Y-101679815D01*
X90311706Y-101627011D01*
X90300500Y-101575500D01*
X90300500Y-100250001D01*
X102394318Y-100250001D01*
X102414955Y-100406760D01*
X102414956Y-100406762D01*
X102475464Y-100552841D01*
X102571718Y-100678282D01*
X102697159Y-100774536D01*
X102843238Y-100835044D01*
X102921619Y-100845363D01*
X102999999Y-100855682D01*
X103000000Y-100855682D01*
X103000001Y-100855682D01*
X103052254Y-100848802D01*
X103156762Y-100835044D01*
X103302841Y-100774536D01*
X103428282Y-100678282D01*
X103524536Y-100552841D01*
X103585044Y-100406762D01*
X103605682Y-100250000D01*
X103585044Y-100093238D01*
X103524536Y-99947159D01*
X103428282Y-99821718D01*
X103302841Y-99725464D01*
X103156762Y-99664956D01*
X103156760Y-99664955D01*
X103000001Y-99644318D01*
X102999999Y-99644318D01*
X102843239Y-99664955D01*
X102843237Y-99664956D01*
X102697152Y-99725466D01*
X102695242Y-99726569D01*
X102692469Y-99729061D01*
X102571720Y-99821715D01*
X102475463Y-99947160D01*
X102414956Y-100093237D01*
X102414955Y-100093239D01*
X102394318Y-100249998D01*
X102394318Y-100250001D01*
X90300500Y-100250001D01*
X90300500Y-99000001D01*
X101644318Y-99000001D01*
X101664955Y-99156760D01*
X101664956Y-99156762D01*
X101725464Y-99302841D01*
X101821718Y-99428282D01*
X101947159Y-99524536D01*
X102093238Y-99585044D01*
X102171619Y-99595363D01*
X102249999Y-99605682D01*
X102250000Y-99605682D01*
X102250001Y-99605682D01*
X102302254Y-99598802D01*
X102406762Y-99585044D01*
X102552841Y-99524536D01*
X102552847Y-99524531D01*
X102554754Y-99523430D01*
X102557531Y-99520937D01*
X102678282Y-99428282D01*
X102774536Y-99302841D01*
X102835044Y-99156762D01*
X102855682Y-99000000D01*
X102853793Y-98985654D01*
X102835044Y-98843239D01*
X102835044Y-98843238D01*
X102774536Y-98697159D01*
X102678282Y-98571718D01*
X102552841Y-98475464D01*
X102406762Y-98414956D01*
X102406760Y-98414955D01*
X102250001Y-98394318D01*
X102249999Y-98394318D01*
X102093239Y-98414955D01*
X102093237Y-98414956D01*
X101947160Y-98475463D01*
X101821718Y-98571718D01*
X101725463Y-98697160D01*
X101664956Y-98843237D01*
X101664955Y-98843239D01*
X101644318Y-98999998D01*
X101644318Y-99000001D01*
X90300500Y-99000001D01*
X90300500Y-97295629D01*
X90320185Y-97228590D01*
X90372989Y-97182835D01*
X90442147Y-97172891D01*
X90505703Y-97201916D01*
X90514376Y-97210199D01*
X90528003Y-97224535D01*
X90686586Y-97334913D01*
X90864137Y-97411106D01*
X91053394Y-97450000D01*
X91250000Y-97450000D01*
X91250000Y-96750000D01*
X91750000Y-96750000D01*
X91750000Y-97450000D01*
X91898176Y-97450000D01*
X92042221Y-97435352D01*
X92226561Y-97377515D01*
X92226571Y-97377510D01*
X92395498Y-97283748D01*
X92395505Y-97283743D01*
X92542105Y-97157892D01*
X92660368Y-97005109D01*
X92660370Y-97005105D01*
X92745457Y-96831643D01*
X92766596Y-96750000D01*
X104444778Y-96750000D01*
X104461498Y-97005105D01*
X104463644Y-97037837D01*
X104463646Y-97037849D01*
X104519917Y-97320745D01*
X104519921Y-97320760D01*
X104612642Y-97593905D01*
X104740219Y-97852606D01*
X104740223Y-97852613D01*
X104900478Y-98092452D01*
X105090672Y-98309327D01*
X105307547Y-98499521D01*
X105547386Y-98659776D01*
X105547389Y-98659778D01*
X105806098Y-98787359D01*
X106079247Y-98880081D01*
X106362161Y-98936356D01*
X106650000Y-98955222D01*
X106937839Y-98936356D01*
X107220753Y-98880081D01*
X107493902Y-98787359D01*
X107752611Y-98659778D01*
X107992454Y-98499520D01*
X108209327Y-98309327D01*
X108399520Y-98092454D01*
X108559778Y-97852611D01*
X108687359Y-97593902D01*
X108780081Y-97320753D01*
X108836356Y-97037839D01*
X108855222Y-96750000D01*
X135094778Y-96750000D01*
X135111498Y-97005105D01*
X135113644Y-97037837D01*
X135113646Y-97037849D01*
X135169917Y-97320745D01*
X135169921Y-97320760D01*
X135262642Y-97593905D01*
X135390219Y-97852606D01*
X135390223Y-97852613D01*
X135550478Y-98092452D01*
X135740672Y-98309327D01*
X135957547Y-98499521D01*
X136197386Y-98659776D01*
X136197389Y-98659778D01*
X136456098Y-98787359D01*
X136729247Y-98880081D01*
X137012161Y-98936356D01*
X137300000Y-98955222D01*
X137587839Y-98936356D01*
X137870753Y-98880081D01*
X138143902Y-98787359D01*
X138402611Y-98659778D01*
X138642454Y-98499520D01*
X138859327Y-98309327D01*
X139049520Y-98092454D01*
X139209778Y-97852611D01*
X139337359Y-97593902D01*
X139430081Y-97320753D01*
X139486356Y-97037839D01*
X139488836Y-97000001D01*
X164144318Y-97000001D01*
X164164955Y-97156760D01*
X164164956Y-97156762D01*
X164193028Y-97224535D01*
X164225464Y-97302841D01*
X164321718Y-97428282D01*
X164447159Y-97524536D01*
X164593238Y-97585044D01*
X164660522Y-97593902D01*
X164749999Y-97605682D01*
X164750000Y-97605682D01*
X164750001Y-97605682D01*
X164802254Y-97598802D01*
X164906762Y-97585044D01*
X165052841Y-97524536D01*
X165178282Y-97428282D01*
X165274536Y-97302841D01*
X165335044Y-97156762D01*
X165350701Y-97037837D01*
X165355682Y-97000001D01*
X165355682Y-96999998D01*
X165335044Y-96843239D01*
X165335044Y-96843238D01*
X165274536Y-96697159D01*
X165178282Y-96571718D01*
X165052841Y-96475464D01*
X165020727Y-96462162D01*
X164906762Y-96414956D01*
X164906760Y-96414955D01*
X164750001Y-96394318D01*
X164749999Y-96394318D01*
X164593239Y-96414955D01*
X164593237Y-96414956D01*
X164447160Y-96475463D01*
X164321718Y-96571718D01*
X164225463Y-96697160D01*
X164164956Y-96843237D01*
X164164955Y-96843239D01*
X164144318Y-96999998D01*
X164144318Y-97000001D01*
X139488836Y-97000001D01*
X139505222Y-96750000D01*
X139486356Y-96462161D01*
X139430081Y-96179247D01*
X139337359Y-95906098D01*
X139209778Y-95647389D01*
X139131764Y-95530633D01*
X139049521Y-95407547D01*
X138859327Y-95190672D01*
X138642452Y-95000478D01*
X138402613Y-94840223D01*
X138402606Y-94840219D01*
X138143905Y-94712642D01*
X137870760Y-94619921D01*
X137870754Y-94619919D01*
X137870753Y-94619919D01*
X137870751Y-94619918D01*
X137870745Y-94619917D01*
X137587849Y-94563646D01*
X137587839Y-94563644D01*
X137300000Y-94544778D01*
X137012161Y-94563644D01*
X137012155Y-94563645D01*
X137012150Y-94563646D01*
X136729254Y-94619917D01*
X136729239Y-94619921D01*
X136456094Y-94712642D01*
X136197393Y-94840219D01*
X136197386Y-94840223D01*
X135957547Y-95000478D01*
X135740672Y-95190672D01*
X135550478Y-95407547D01*
X135390223Y-95647386D01*
X135390219Y-95647393D01*
X135262642Y-95906094D01*
X135169921Y-96179239D01*
X135169917Y-96179254D01*
X135113646Y-96462150D01*
X135113644Y-96462161D01*
X135094778Y-96750000D01*
X108855222Y-96750000D01*
X108836356Y-96462161D01*
X108780081Y-96179247D01*
X108687359Y-95906098D01*
X108559778Y-95647389D01*
X108481764Y-95530633D01*
X108399521Y-95407547D01*
X108209327Y-95190672D01*
X107992452Y-95000478D01*
X107752613Y-94840223D01*
X107752606Y-94840219D01*
X107493905Y-94712642D01*
X107220760Y-94619921D01*
X107220754Y-94619919D01*
X107220753Y-94619919D01*
X107220751Y-94619918D01*
X107220745Y-94619917D01*
X106937849Y-94563646D01*
X106937839Y-94563644D01*
X106650000Y-94544778D01*
X106362161Y-94563644D01*
X106362155Y-94563645D01*
X106362150Y-94563646D01*
X106079254Y-94619917D01*
X106079239Y-94619921D01*
X105806094Y-94712642D01*
X105547393Y-94840219D01*
X105547386Y-94840223D01*
X105307547Y-95000478D01*
X105090672Y-95190672D01*
X104900478Y-95407547D01*
X104740223Y-95647386D01*
X104740219Y-95647393D01*
X104612642Y-95906094D01*
X104519921Y-96179239D01*
X104519917Y-96179254D01*
X104463646Y-96462150D01*
X104463644Y-96462161D01*
X104444778Y-96750000D01*
X92766596Y-96750000D01*
X91874624Y-96750000D01*
X91947545Y-96735495D01*
X92030240Y-96680240D01*
X92085495Y-96597545D01*
X92104898Y-96500000D01*
X92085495Y-96402455D01*
X92030240Y-96319760D01*
X91947545Y-96264505D01*
X91874624Y-96250000D01*
X92770471Y-96250000D01*
X92707314Y-96079472D01*
X92707312Y-96079468D01*
X92605107Y-95915496D01*
X92471997Y-95775465D01*
X92471996Y-95775464D01*
X92313413Y-95665086D01*
X92135862Y-95588893D01*
X91946606Y-95550000D01*
X91750000Y-95550000D01*
X91750000Y-96250000D01*
X91250000Y-96250000D01*
X91250000Y-95550000D01*
X91101824Y-95550000D01*
X90957778Y-95564647D01*
X90773438Y-95622484D01*
X90773428Y-95622489D01*
X90604501Y-95716251D01*
X90604500Y-95716252D01*
X90505270Y-95801438D01*
X90441581Y-95830169D01*
X90372469Y-95819907D01*
X90319876Y-95773909D01*
X90300500Y-95707351D01*
X90300500Y-94200000D01*
X115044571Y-94200000D01*
X115064244Y-94412310D01*
X115122596Y-94617392D01*
X115122596Y-94617394D01*
X115217632Y-94808253D01*
X115346127Y-94978406D01*
X115346128Y-94978407D01*
X115503698Y-95122052D01*
X115684981Y-95234298D01*
X115883802Y-95311321D01*
X116093390Y-95350500D01*
X116093392Y-95350500D01*
X116306608Y-95350500D01*
X116306610Y-95350500D01*
X116516198Y-95311321D01*
X116715019Y-95234298D01*
X116896302Y-95122052D01*
X117053872Y-94978407D01*
X117182366Y-94808255D01*
X117249325Y-94673781D01*
X117296825Y-94622548D01*
X117364488Y-94605126D01*
X117430828Y-94627051D01*
X117472705Y-94676651D01*
X117566399Y-94877578D01*
X117701894Y-95071082D01*
X117868917Y-95238105D01*
X118062421Y-95373600D01*
X118276507Y-95473429D01*
X118276516Y-95473433D01*
X118490000Y-95530634D01*
X118490000Y-94635501D01*
X118597685Y-94684680D01*
X118704237Y-94700000D01*
X118775763Y-94700000D01*
X118882315Y-94684680D01*
X118990000Y-94635501D01*
X118990000Y-95530633D01*
X119203483Y-95473433D01*
X119203492Y-95473429D01*
X119417578Y-95373600D01*
X119611082Y-95238105D01*
X119778105Y-95071082D01*
X119913600Y-94877578D01*
X120007294Y-94676651D01*
X120053466Y-94624212D01*
X120120660Y-94605060D01*
X120187541Y-94625276D01*
X120230676Y-94673785D01*
X120297632Y-94808253D01*
X120426127Y-94978406D01*
X120426128Y-94978407D01*
X120583698Y-95122052D01*
X120764981Y-95234298D01*
X120963802Y-95311321D01*
X121173390Y-95350500D01*
X121173392Y-95350500D01*
X121386608Y-95350500D01*
X121386610Y-95350500D01*
X121596198Y-95311321D01*
X121795019Y-95234298D01*
X121976302Y-95122052D01*
X122133872Y-94978407D01*
X122262366Y-94808255D01*
X122316270Y-94700000D01*
X122357403Y-94617394D01*
X122357403Y-94617393D01*
X122357405Y-94617389D01*
X122415756Y-94412310D01*
X122422029Y-94344605D01*
X122447814Y-94279669D01*
X122504614Y-94238981D01*
X122574395Y-94235461D01*
X122635002Y-94270225D01*
X122667193Y-94332238D01*
X122669500Y-94356047D01*
X122669500Y-95094856D01*
X122669502Y-95094882D01*
X122672413Y-95119987D01*
X122672415Y-95119991D01*
X122717793Y-95222764D01*
X122717794Y-95222765D01*
X122797235Y-95302206D01*
X122900009Y-95347585D01*
X122925135Y-95350500D01*
X124714864Y-95350499D01*
X124714879Y-95350497D01*
X124714882Y-95350497D01*
X124739987Y-95347586D01*
X124739988Y-95347585D01*
X124739991Y-95347585D01*
X124842765Y-95302206D01*
X124922206Y-95222765D01*
X124967585Y-95119991D01*
X124970500Y-95094865D01*
X124970499Y-93305136D01*
X124970497Y-93305117D01*
X124967586Y-93280012D01*
X124967585Y-93280010D01*
X124967585Y-93280009D01*
X124922206Y-93177235D01*
X124842765Y-93097794D01*
X124822124Y-93088680D01*
X124739992Y-93052415D01*
X124714865Y-93049500D01*
X122925143Y-93049500D01*
X122925117Y-93049502D01*
X122900012Y-93052413D01*
X122900008Y-93052415D01*
X122797235Y-93097793D01*
X122717794Y-93177234D01*
X122672415Y-93280006D01*
X122672415Y-93280008D01*
X122669500Y-93305131D01*
X122669500Y-94043951D01*
X122649815Y-94110990D01*
X122597011Y-94156745D01*
X122527853Y-94166689D01*
X122464297Y-94137664D01*
X122426523Y-94078886D01*
X122422029Y-94055391D01*
X122415756Y-93987689D01*
X122401273Y-93936789D01*
X122357405Y-93782611D01*
X122357403Y-93782606D01*
X122357403Y-93782605D01*
X122262367Y-93591746D01*
X122133872Y-93421593D01*
X121976302Y-93277948D01*
X121795019Y-93165702D01*
X121795017Y-93165701D01*
X121695608Y-93127190D01*
X121596198Y-93088679D01*
X121386610Y-93049500D01*
X121173390Y-93049500D01*
X120963802Y-93088679D01*
X120963799Y-93088679D01*
X120963799Y-93088680D01*
X120764982Y-93165701D01*
X120764980Y-93165702D01*
X120583699Y-93277947D01*
X120426127Y-93421593D01*
X120297634Y-93591744D01*
X120230676Y-93726215D01*
X120183173Y-93777452D01*
X120115510Y-93794873D01*
X120049170Y-93772947D01*
X120007294Y-93723348D01*
X119913600Y-93522422D01*
X119913599Y-93522420D01*
X119778113Y-93328926D01*
X119778108Y-93328920D01*
X119611082Y-93161894D01*
X119417578Y-93026399D01*
X119203492Y-92926570D01*
X119203486Y-92926567D01*
X118990000Y-92869364D01*
X118990000Y-93764498D01*
X118882315Y-93715320D01*
X118775763Y-93700000D01*
X118704237Y-93700000D01*
X118597685Y-93715320D01*
X118490000Y-93764498D01*
X118490000Y-92869364D01*
X118489999Y-92869364D01*
X118276513Y-92926567D01*
X118276507Y-92926570D01*
X118062422Y-93026399D01*
X118062420Y-93026400D01*
X117868926Y-93161886D01*
X117868920Y-93161891D01*
X117701891Y-93328920D01*
X117701886Y-93328926D01*
X117566400Y-93522420D01*
X117566399Y-93522422D01*
X117472705Y-93723348D01*
X117426532Y-93775787D01*
X117359339Y-93794939D01*
X117292457Y-93774723D01*
X117249323Y-93726215D01*
X117182366Y-93591745D01*
X117053872Y-93421593D01*
X116896302Y-93277948D01*
X116715019Y-93165702D01*
X116715017Y-93165701D01*
X116615608Y-93127190D01*
X116516198Y-93088679D01*
X116306610Y-93049500D01*
X116093390Y-93049500D01*
X115883802Y-93088679D01*
X115883799Y-93088679D01*
X115883799Y-93088680D01*
X115684982Y-93165701D01*
X115684980Y-93165702D01*
X115503699Y-93277947D01*
X115346127Y-93421593D01*
X115217632Y-93591746D01*
X115122596Y-93782605D01*
X115122596Y-93782607D01*
X115064244Y-93987689D01*
X115044571Y-94199999D01*
X115044571Y-94200000D01*
X90300500Y-94200000D01*
X90300500Y-92750001D01*
X98394318Y-92750001D01*
X98414955Y-92906760D01*
X98414956Y-92906762D01*
X98475287Y-93052415D01*
X98475464Y-93052841D01*
X98571718Y-93178282D01*
X98697159Y-93274536D01*
X98843238Y-93335044D01*
X98921619Y-93345363D01*
X98999999Y-93355682D01*
X99000000Y-93355682D01*
X99000001Y-93355682D01*
X99052254Y-93348802D01*
X99156762Y-93335044D01*
X99302841Y-93274536D01*
X99428282Y-93178282D01*
X99524536Y-93052841D01*
X99585044Y-92906762D01*
X99605682Y-92750001D01*
X99894318Y-92750001D01*
X99914955Y-92906760D01*
X99914956Y-92906762D01*
X99975287Y-93052415D01*
X99975464Y-93052841D01*
X100071718Y-93178282D01*
X100197159Y-93274536D01*
X100343238Y-93335044D01*
X100421619Y-93345363D01*
X100499999Y-93355682D01*
X100500000Y-93355682D01*
X100500001Y-93355682D01*
X100552254Y-93348802D01*
X100656762Y-93335044D01*
X100802841Y-93274536D01*
X100928282Y-93178282D01*
X101024536Y-93052841D01*
X101024535Y-93052841D01*
X101026624Y-93050120D01*
X101083052Y-93008917D01*
X101152798Y-93004762D01*
X101213718Y-93038974D01*
X101223376Y-93050120D01*
X101320914Y-93177235D01*
X101321718Y-93178282D01*
X101447159Y-93274536D01*
X101593238Y-93335044D01*
X101671619Y-93345363D01*
X101749999Y-93355682D01*
X101750000Y-93355682D01*
X101750001Y-93355682D01*
X101802254Y-93348802D01*
X101906762Y-93335044D01*
X102052841Y-93274536D01*
X102178282Y-93178282D01*
X102274536Y-93052841D01*
X102335044Y-92906762D01*
X102355682Y-92750000D01*
X102335044Y-92593238D01*
X102274536Y-92447159D01*
X102178282Y-92321718D01*
X102052841Y-92225464D01*
X101906762Y-92164956D01*
X101906760Y-92164955D01*
X101750001Y-92144318D01*
X101749999Y-92144318D01*
X101593239Y-92164955D01*
X101593237Y-92164956D01*
X101447160Y-92225463D01*
X101321718Y-92321718D01*
X101223376Y-92449880D01*
X101166947Y-92491082D01*
X101097201Y-92495237D01*
X101036281Y-92461024D01*
X101026624Y-92449880D01*
X100954343Y-92355682D01*
X100928282Y-92321718D01*
X100802841Y-92225464D01*
X100656762Y-92164956D01*
X100656760Y-92164955D01*
X100500001Y-92144318D01*
X100499999Y-92144318D01*
X100343239Y-92164955D01*
X100343237Y-92164956D01*
X100197160Y-92225463D01*
X100071718Y-92321718D01*
X99975463Y-92447160D01*
X99914956Y-92593237D01*
X99914955Y-92593239D01*
X99894318Y-92749998D01*
X99894318Y-92750001D01*
X99605682Y-92750001D01*
X99605682Y-92750000D01*
X99585044Y-92593238D01*
X99524536Y-92447159D01*
X99428282Y-92321718D01*
X99302841Y-92225464D01*
X99156762Y-92164956D01*
X99156760Y-92164955D01*
X99000001Y-92144318D01*
X98999999Y-92144318D01*
X98843239Y-92164955D01*
X98843237Y-92164956D01*
X98697160Y-92225463D01*
X98571718Y-92321718D01*
X98475463Y-92447160D01*
X98414956Y-92593237D01*
X98414955Y-92593239D01*
X98394318Y-92749998D01*
X98394318Y-92750001D01*
X90300500Y-92750001D01*
X90300500Y-91750001D01*
X94144318Y-91750001D01*
X94164955Y-91906760D01*
X94164956Y-91906762D01*
X94225464Y-92052841D01*
X94321718Y-92178282D01*
X94447159Y-92274536D01*
X94593238Y-92335044D01*
X94671619Y-92345363D01*
X94749999Y-92355682D01*
X94750000Y-92355682D01*
X94750001Y-92355682D01*
X94802254Y-92348802D01*
X94906762Y-92335044D01*
X95052841Y-92274536D01*
X95178282Y-92178282D01*
X95274536Y-92052841D01*
X95335044Y-91906762D01*
X95355682Y-91750000D01*
X95335044Y-91593238D01*
X95274536Y-91447159D01*
X95178282Y-91321718D01*
X95052841Y-91225464D01*
X94906762Y-91164956D01*
X94906760Y-91164955D01*
X94750001Y-91144318D01*
X94749999Y-91144318D01*
X94593239Y-91164955D01*
X94593237Y-91164956D01*
X94447160Y-91225463D01*
X94321718Y-91321718D01*
X94225463Y-91447160D01*
X94164956Y-91593237D01*
X94164955Y-91593239D01*
X94144318Y-91749998D01*
X94144318Y-91750001D01*
X90300500Y-91750001D01*
X90300500Y-90695629D01*
X90320185Y-90628590D01*
X90372989Y-90582835D01*
X90442147Y-90572891D01*
X90505703Y-90601916D01*
X90514376Y-90610199D01*
X90528003Y-90624535D01*
X90686586Y-90734913D01*
X90864137Y-90811106D01*
X91053394Y-90850000D01*
X91250000Y-90850000D01*
X91250000Y-90150000D01*
X91750000Y-90150000D01*
X91750000Y-90850000D01*
X91898176Y-90850000D01*
X92042221Y-90835352D01*
X92226561Y-90777515D01*
X92226571Y-90777510D01*
X92395498Y-90683748D01*
X92395505Y-90683743D01*
X92542105Y-90557892D01*
X92660368Y-90405109D01*
X92660370Y-90405105D01*
X92745457Y-90231643D01*
X92766596Y-90150000D01*
X91874624Y-90150000D01*
X91947545Y-90135495D01*
X92030240Y-90080240D01*
X92085495Y-89997545D01*
X92104898Y-89900000D01*
X92085495Y-89802455D01*
X92030240Y-89719760D01*
X91947545Y-89664505D01*
X91874624Y-89650000D01*
X92770471Y-89650000D01*
X92707314Y-89479472D01*
X92707312Y-89479468D01*
X92605107Y-89315496D01*
X92471997Y-89175465D01*
X92471996Y-89175464D01*
X92313413Y-89065086D01*
X92135862Y-88988893D01*
X91946606Y-88950000D01*
X91750000Y-88950000D01*
X91750000Y-89650000D01*
X91250000Y-89650000D01*
X91250000Y-88950000D01*
X91101824Y-88950000D01*
X90957778Y-88964647D01*
X90773438Y-89022484D01*
X90773428Y-89022489D01*
X90604501Y-89116251D01*
X90604500Y-89116252D01*
X90505270Y-89201438D01*
X90441581Y-89230169D01*
X90372469Y-89219907D01*
X90319876Y-89173909D01*
X90300500Y-89107351D01*
X90300500Y-88250001D01*
X94644318Y-88250001D01*
X94664955Y-88406760D01*
X94664956Y-88406762D01*
X94703576Y-88500000D01*
X94725464Y-88552841D01*
X94821718Y-88678282D01*
X94947159Y-88774536D01*
X95093238Y-88835044D01*
X95171619Y-88845363D01*
X95249999Y-88855682D01*
X95250000Y-88855682D01*
X95250001Y-88855682D01*
X95302254Y-88848802D01*
X95406762Y-88835044D01*
X95552841Y-88774536D01*
X95678282Y-88678282D01*
X95774536Y-88552841D01*
X95835044Y-88406762D01*
X95850378Y-88290289D01*
X95855682Y-88250001D01*
X95855682Y-88249998D01*
X95849100Y-88200001D01*
X104594318Y-88200001D01*
X104614955Y-88356760D01*
X104614956Y-88356762D01*
X104674287Y-88500001D01*
X104675464Y-88502841D01*
X104771718Y-88628282D01*
X104897159Y-88724536D01*
X105043238Y-88785044D01*
X105104992Y-88793174D01*
X105199999Y-88805682D01*
X105200000Y-88805682D01*
X105200001Y-88805682D01*
X105252254Y-88798802D01*
X105356762Y-88785044D01*
X105502841Y-88724536D01*
X105628282Y-88628282D01*
X105649983Y-88600001D01*
X146094318Y-88600001D01*
X146114955Y-88756760D01*
X146114956Y-88756762D01*
X146147381Y-88835044D01*
X146175464Y-88902841D01*
X146271718Y-89028282D01*
X146397159Y-89124536D01*
X146543238Y-89185044D01*
X146621619Y-89195363D01*
X146699999Y-89205682D01*
X146700000Y-89205682D01*
X146700001Y-89205682D01*
X146752254Y-89198802D01*
X146856762Y-89185044D01*
X147002841Y-89124536D01*
X147128282Y-89028282D01*
X147224536Y-88902841D01*
X147285044Y-88756762D01*
X147305682Y-88600000D01*
X147300513Y-88560741D01*
X147285044Y-88443239D01*
X147285044Y-88443238D01*
X147224536Y-88297159D01*
X147128282Y-88171718D01*
X147002841Y-88075464D01*
X146993797Y-88071718D01*
X146856762Y-88014956D01*
X146856760Y-88014955D01*
X146700001Y-87994318D01*
X146699999Y-87994318D01*
X146543239Y-88014955D01*
X146543237Y-88014956D01*
X146397160Y-88075463D01*
X146271718Y-88171718D01*
X146175463Y-88297160D01*
X146114956Y-88443237D01*
X146114955Y-88443239D01*
X146094318Y-88599998D01*
X146094318Y-88600001D01*
X105649983Y-88600001D01*
X105724536Y-88502841D01*
X105785044Y-88356762D01*
X105800908Y-88236260D01*
X105805682Y-88200001D01*
X105805682Y-88199998D01*
X105785044Y-88043239D01*
X105785044Y-88043238D01*
X105724536Y-87897159D01*
X105628282Y-87771718D01*
X105502841Y-87675464D01*
X105477472Y-87664956D01*
X105356762Y-87614956D01*
X105356760Y-87614955D01*
X105200001Y-87594318D01*
X105199999Y-87594318D01*
X105043239Y-87614955D01*
X105043237Y-87614956D01*
X104897160Y-87675463D01*
X104771718Y-87771718D01*
X104675463Y-87897160D01*
X104614956Y-88043237D01*
X104614955Y-88043239D01*
X104594318Y-88199998D01*
X104594318Y-88200001D01*
X95849100Y-88200001D01*
X95835044Y-88093239D01*
X95835044Y-88093238D01*
X95774536Y-87947159D01*
X95678282Y-87821718D01*
X95552841Y-87725464D01*
X95406762Y-87664956D01*
X95406760Y-87664955D01*
X95250001Y-87644318D01*
X95249999Y-87644318D01*
X95093239Y-87664955D01*
X95093237Y-87664956D01*
X94947160Y-87725463D01*
X94821718Y-87821718D01*
X94725463Y-87947160D01*
X94664956Y-88093237D01*
X94664955Y-88093239D01*
X94644318Y-88249998D01*
X94644318Y-88250001D01*
X90300500Y-88250001D01*
X90300500Y-86500001D01*
X123644318Y-86500001D01*
X123664955Y-86656760D01*
X123664956Y-86656762D01*
X123724287Y-86800001D01*
X123725464Y-86802841D01*
X123821718Y-86928282D01*
X123947159Y-87024536D01*
X124093238Y-87085044D01*
X124171619Y-87095363D01*
X124249999Y-87105682D01*
X124250000Y-87105682D01*
X124250001Y-87105682D01*
X124302254Y-87098802D01*
X124406762Y-87085044D01*
X124552841Y-87024536D01*
X124678282Y-86928282D01*
X124774536Y-86802841D01*
X124775712Y-86800001D01*
X125594318Y-86800001D01*
X125614955Y-86956760D01*
X125614956Y-86956762D01*
X125656376Y-87056760D01*
X125675464Y-87102841D01*
X125771718Y-87228282D01*
X125897159Y-87324536D01*
X126043238Y-87385044D01*
X126043243Y-87385044D01*
X126051088Y-87387147D01*
X126050257Y-87390244D01*
X126100387Y-87412413D01*
X126138866Y-87470732D01*
X126142069Y-87492098D01*
X126143257Y-87491942D01*
X126164955Y-87656760D01*
X126164956Y-87656762D01*
X126224287Y-87800001D01*
X126225464Y-87802841D01*
X126321718Y-87928282D01*
X126447159Y-88024536D01*
X126593238Y-88085044D01*
X126655478Y-88093238D01*
X126749999Y-88105682D01*
X126750000Y-88105682D01*
X126750001Y-88105682D01*
X126844514Y-88093239D01*
X126906762Y-88085044D01*
X127052841Y-88024536D01*
X127178282Y-87928282D01*
X127274536Y-87802841D01*
X127335044Y-87656762D01*
X127341220Y-87609846D01*
X127369486Y-87545952D01*
X127427810Y-87507480D01*
X127480343Y-87503094D01*
X127500000Y-87505682D01*
X127543152Y-87500001D01*
X130094318Y-87500001D01*
X130114955Y-87656760D01*
X130114956Y-87656762D01*
X130174287Y-87800001D01*
X130175464Y-87802841D01*
X130271718Y-87928282D01*
X130397159Y-88024536D01*
X130543238Y-88085044D01*
X130605478Y-88093238D01*
X130699999Y-88105682D01*
X130700000Y-88105682D01*
X130700001Y-88105682D01*
X130794514Y-88093239D01*
X130856762Y-88085044D01*
X131002841Y-88024536D01*
X131128282Y-87928282D01*
X131224536Y-87802841D01*
X131285044Y-87656762D01*
X131305682Y-87500000D01*
X131285044Y-87343238D01*
X131224536Y-87197159D01*
X131128282Y-87071718D01*
X131002841Y-86975464D01*
X130957690Y-86956762D01*
X130856762Y-86914956D01*
X130856760Y-86914955D01*
X130700001Y-86894318D01*
X130699999Y-86894318D01*
X130543239Y-86914955D01*
X130543237Y-86914956D01*
X130397160Y-86975463D01*
X130271718Y-87071718D01*
X130175463Y-87197160D01*
X130114956Y-87343237D01*
X130114955Y-87343239D01*
X130094318Y-87499998D01*
X130094318Y-87500001D01*
X127543152Y-87500001D01*
X127656762Y-87485044D01*
X127802841Y-87424536D01*
X127928282Y-87328282D01*
X128024536Y-87202841D01*
X128085044Y-87056762D01*
X128105682Y-86900000D01*
X128085044Y-86743238D01*
X128024536Y-86597159D01*
X127928282Y-86471718D01*
X127802841Y-86375464D01*
X127793797Y-86371718D01*
X127656762Y-86314956D01*
X127656760Y-86314955D01*
X127500001Y-86294318D01*
X127499999Y-86294318D01*
X127343239Y-86314955D01*
X127343237Y-86314956D01*
X127197160Y-86375463D01*
X127099374Y-86450497D01*
X127071718Y-86471718D01*
X126984761Y-86585044D01*
X126970516Y-86603608D01*
X126967832Y-86601548D01*
X126928538Y-86638952D01*
X126859920Y-86652116D01*
X126795078Y-86626093D01*
X126757251Y-86576140D01*
X126724537Y-86497161D01*
X126724536Y-86497160D01*
X126724536Y-86497159D01*
X126628282Y-86371718D01*
X126502841Y-86275464D01*
X126356762Y-86214956D01*
X126356760Y-86214955D01*
X126200001Y-86194318D01*
X126199999Y-86194318D01*
X126043239Y-86214955D01*
X126043237Y-86214956D01*
X125897160Y-86275463D01*
X125771717Y-86371719D01*
X125745962Y-86405284D01*
X125689534Y-86446486D01*
X125673704Y-86447428D01*
X125668071Y-86514914D01*
X125666973Y-86517655D01*
X125614957Y-86643234D01*
X125614955Y-86643239D01*
X125594318Y-86799998D01*
X125594318Y-86800001D01*
X124775712Y-86800001D01*
X124827226Y-86675635D01*
X124871067Y-86621232D01*
X124937361Y-86599167D01*
X124957973Y-86600149D01*
X124999999Y-86605682D01*
X125000000Y-86605682D01*
X125000001Y-86605682D01*
X125064739Y-86597159D01*
X125156762Y-86585044D01*
X125302841Y-86524536D01*
X125428282Y-86428282D01*
X125454038Y-86394715D01*
X125510462Y-86353515D01*
X125526293Y-86352571D01*
X125531930Y-86285082D01*
X125533009Y-86282383D01*
X125585044Y-86156762D01*
X125605682Y-86000000D01*
X125594464Y-85914794D01*
X125585044Y-85843239D01*
X125585044Y-85843238D01*
X125524536Y-85697159D01*
X125524535Y-85697158D01*
X125524535Y-85697157D01*
X125500577Y-85665935D01*
X125475382Y-85600766D01*
X125489420Y-85532321D01*
X125538233Y-85482331D01*
X125606325Y-85466667D01*
X125615116Y-85467506D01*
X125700000Y-85478682D01*
X125700001Y-85478682D01*
X125752254Y-85471802D01*
X125856762Y-85458044D01*
X125996890Y-85400001D01*
X129094318Y-85400001D01*
X129114955Y-85556760D01*
X129114956Y-85556762D01*
X129173109Y-85697157D01*
X129175464Y-85702841D01*
X129271718Y-85828282D01*
X129397159Y-85924536D01*
X129543238Y-85985044D01*
X129621619Y-85995363D01*
X129699999Y-86005682D01*
X129700000Y-86005682D01*
X129700001Y-86005682D01*
X129752254Y-85998802D01*
X129856762Y-85985044D01*
X130002841Y-85924536D01*
X130128282Y-85828282D01*
X130224536Y-85702841D01*
X130285044Y-85556762D01*
X130305682Y-85400000D01*
X130304453Y-85390668D01*
X130285044Y-85243239D01*
X130285044Y-85243238D01*
X130224536Y-85097159D01*
X130128282Y-84971718D01*
X130002841Y-84875464D01*
X129996892Y-84873000D01*
X129856762Y-84814956D01*
X129856760Y-84814955D01*
X129700001Y-84794318D01*
X129699999Y-84794318D01*
X129543239Y-84814955D01*
X129543237Y-84814956D01*
X129397160Y-84875463D01*
X129271718Y-84971718D01*
X129175463Y-85097160D01*
X129114956Y-85243237D01*
X129114955Y-85243239D01*
X129094318Y-85399998D01*
X129094318Y-85400001D01*
X125996890Y-85400001D01*
X126002841Y-85397536D01*
X126128282Y-85301282D01*
X126224536Y-85175841D01*
X126285044Y-85029762D01*
X126301754Y-84902839D01*
X126305682Y-84873001D01*
X126305682Y-84872998D01*
X126285044Y-84716239D01*
X126285044Y-84716238D01*
X126224536Y-84570159D01*
X126128282Y-84444718D01*
X126002841Y-84348464D01*
X125990224Y-84343238D01*
X125856762Y-84287956D01*
X125856760Y-84287955D01*
X125700001Y-84267318D01*
X125699999Y-84267318D01*
X125543239Y-84287955D01*
X125543237Y-84287956D01*
X125397160Y-84348463D01*
X125271718Y-84444718D01*
X125175463Y-84570160D01*
X125114956Y-84716237D01*
X125114955Y-84716239D01*
X125094318Y-84872998D01*
X125094318Y-84873001D01*
X125114955Y-85029760D01*
X125114956Y-85029762D01*
X125175464Y-85175842D01*
X125199422Y-85207064D01*
X125224617Y-85272233D01*
X125210579Y-85340678D01*
X125161765Y-85390668D01*
X125093674Y-85406332D01*
X125084862Y-85405490D01*
X125000001Y-85394318D01*
X124999999Y-85394318D01*
X124843239Y-85414955D01*
X124843237Y-85414956D01*
X124697160Y-85475463D01*
X124571718Y-85571718D01*
X124475464Y-85697159D01*
X124422773Y-85824365D01*
X124378931Y-85878768D01*
X124312637Y-85900832D01*
X124292029Y-85899850D01*
X124250004Y-85894318D01*
X124249999Y-85894318D01*
X124093239Y-85914955D01*
X124093237Y-85914956D01*
X123947160Y-85975463D01*
X123821718Y-86071718D01*
X123725463Y-86197160D01*
X123664956Y-86343237D01*
X123664955Y-86343239D01*
X123644318Y-86499998D01*
X123644318Y-86500001D01*
X90300500Y-86500001D01*
X90300500Y-84500001D01*
X92431818Y-84500001D01*
X92452455Y-84656760D01*
X92452456Y-84656762D01*
X92509433Y-84794318D01*
X92512964Y-84802841D01*
X92609218Y-84928282D01*
X92734659Y-85024536D01*
X92880738Y-85085044D01*
X92959119Y-85095363D01*
X93037499Y-85105682D01*
X93037500Y-85105682D01*
X93037501Y-85105682D01*
X93102239Y-85097159D01*
X93194262Y-85085044D01*
X93340341Y-85024536D01*
X93465782Y-84928282D01*
X93562036Y-84802841D01*
X93622544Y-84656762D01*
X93630017Y-84600001D01*
X99594318Y-84600001D01*
X99614955Y-84756760D01*
X99614956Y-84756762D01*
X99671933Y-84894318D01*
X99675464Y-84902841D01*
X99771718Y-85028282D01*
X99897159Y-85124536D01*
X100043238Y-85185044D01*
X100121619Y-85195363D01*
X100199999Y-85205682D01*
X100200000Y-85205682D01*
X100200001Y-85205682D01*
X100264739Y-85197159D01*
X100356762Y-85185044D01*
X100502841Y-85124536D01*
X100628282Y-85028282D01*
X100724536Y-84902841D01*
X100785044Y-84756762D01*
X100805682Y-84600000D01*
X100801753Y-84570159D01*
X100785044Y-84443239D01*
X100785044Y-84443238D01*
X100724536Y-84297159D01*
X100628282Y-84171718D01*
X100502841Y-84075464D01*
X100493797Y-84071718D01*
X100356762Y-84014956D01*
X100356760Y-84014955D01*
X100200001Y-83994318D01*
X100199999Y-83994318D01*
X100043239Y-84014955D01*
X100043237Y-84014956D01*
X99897160Y-84075463D01*
X99771718Y-84171718D01*
X99675463Y-84297160D01*
X99614956Y-84443237D01*
X99614955Y-84443239D01*
X99594318Y-84599998D01*
X99594318Y-84600001D01*
X93630017Y-84600001D01*
X93643182Y-84500000D01*
X93630690Y-84405117D01*
X93622544Y-84343239D01*
X93622543Y-84343237D01*
X93599021Y-84286451D01*
X93591552Y-84216984D01*
X93622826Y-84154505D01*
X93625873Y-84151346D01*
X94235558Y-83541661D01*
X125236892Y-83541661D01*
X125250692Y-83550333D01*
X125250691Y-83550333D01*
X125420861Y-83609878D01*
X125599997Y-83630062D01*
X125600003Y-83630062D01*
X125779138Y-83609878D01*
X125779141Y-83609877D01*
X125949305Y-83550334D01*
X125949306Y-83550334D01*
X125963106Y-83541661D01*
X127036892Y-83541661D01*
X127050692Y-83550333D01*
X127050691Y-83550333D01*
X127220861Y-83609878D01*
X127399997Y-83630062D01*
X127400003Y-83630062D01*
X127579138Y-83609878D01*
X127579141Y-83609877D01*
X127749305Y-83550334D01*
X127749306Y-83550334D01*
X127763106Y-83541661D01*
X127763106Y-83541660D01*
X127400001Y-83178553D01*
X127400000Y-83178553D01*
X127036892Y-83541660D01*
X127036892Y-83541661D01*
X125963106Y-83541661D01*
X125963106Y-83541660D01*
X125600001Y-83178553D01*
X125600000Y-83178553D01*
X125236892Y-83541660D01*
X125236892Y-83541661D01*
X94235558Y-83541661D01*
X95457218Y-82320001D01*
X121627501Y-82320001D01*
X121648138Y-82476760D01*
X121648139Y-82476762D01*
X121696220Y-82592841D01*
X121708647Y-82622841D01*
X121804901Y-82748282D01*
X121930342Y-82844536D01*
X122076421Y-82905044D01*
X122154802Y-82915363D01*
X122233182Y-82925682D01*
X122233183Y-82925682D01*
X122233184Y-82925682D01*
X122285437Y-82918802D01*
X122389945Y-82905044D01*
X122536024Y-82844536D01*
X122561481Y-82825002D01*
X124794938Y-82825002D01*
X124815121Y-83004138D01*
X124874665Y-83174304D01*
X124883338Y-83188107D01*
X125246446Y-82825000D01*
X125444709Y-82825000D01*
X125465514Y-82902645D01*
X125522355Y-82959486D01*
X125580254Y-82975000D01*
X125619746Y-82975000D01*
X125677645Y-82959486D01*
X125734486Y-82902646D01*
X125755291Y-82825000D01*
X125953553Y-82825000D01*
X126316660Y-83188106D01*
X126316661Y-83188106D01*
X126325334Y-83174306D01*
X126325334Y-83174305D01*
X126382958Y-83009627D01*
X126423680Y-82952850D01*
X126488633Y-82927103D01*
X126557194Y-82940559D01*
X126607597Y-82988946D01*
X126617042Y-83009626D01*
X126674665Y-83174304D01*
X126683338Y-83188107D01*
X127046446Y-82825000D01*
X127244709Y-82825000D01*
X127265514Y-82902645D01*
X127322355Y-82959486D01*
X127380254Y-82975000D01*
X127419746Y-82975000D01*
X127477645Y-82959486D01*
X127534486Y-82902646D01*
X127555291Y-82825000D01*
X127753553Y-82825000D01*
X128116660Y-83188106D01*
X128116661Y-83188106D01*
X128125334Y-83174306D01*
X128125334Y-83174305D01*
X128184877Y-83004141D01*
X128184878Y-83004138D01*
X128205062Y-82825002D01*
X128205062Y-82824997D01*
X128184878Y-82645861D01*
X128125333Y-82475692D01*
X128116661Y-82461892D01*
X128116660Y-82461892D01*
X127753553Y-82825000D01*
X127555291Y-82825000D01*
X127534486Y-82747355D01*
X127477645Y-82690514D01*
X127419746Y-82675000D01*
X127380254Y-82675000D01*
X127322355Y-82690514D01*
X127265514Y-82747354D01*
X127244709Y-82825000D01*
X127046446Y-82825000D01*
X127046446Y-82824999D01*
X126683338Y-82461891D01*
X126683337Y-82461891D01*
X126674667Y-82475691D01*
X126674659Y-82475706D01*
X126617040Y-82640373D01*
X126576318Y-82697149D01*
X126511366Y-82722896D01*
X126442804Y-82709440D01*
X126392401Y-82661052D01*
X126382957Y-82640372D01*
X126325334Y-82475694D01*
X126325333Y-82475692D01*
X126316661Y-82461892D01*
X126316660Y-82461892D01*
X125953553Y-82825000D01*
X125755291Y-82825000D01*
X125734486Y-82747355D01*
X125677645Y-82690514D01*
X125619746Y-82675000D01*
X125580254Y-82675000D01*
X125522355Y-82690514D01*
X125465514Y-82747354D01*
X125444709Y-82825000D01*
X125246446Y-82825000D01*
X125246446Y-82824999D01*
X124883338Y-82461891D01*
X124883337Y-82461891D01*
X124874667Y-82475691D01*
X124874662Y-82475701D01*
X124815122Y-82645858D01*
X124815121Y-82645861D01*
X124794938Y-82824997D01*
X124794938Y-82825002D01*
X122561481Y-82825002D01*
X122661465Y-82748282D01*
X122757719Y-82622841D01*
X122818227Y-82476762D01*
X122838865Y-82320000D01*
X122834915Y-82290000D01*
X122818227Y-82163239D01*
X122818227Y-82163238D01*
X122795487Y-82108338D01*
X125236891Y-82108338D01*
X125600000Y-82471446D01*
X125600001Y-82471446D01*
X125963107Y-82108338D01*
X127036891Y-82108338D01*
X127400000Y-82471446D01*
X127400001Y-82471446D01*
X127763107Y-82108338D01*
X127749304Y-82099665D01*
X127584626Y-82042042D01*
X127527850Y-82001320D01*
X127502103Y-81936367D01*
X127515559Y-81867805D01*
X127563946Y-81817403D01*
X127584627Y-81807958D01*
X127749305Y-81750334D01*
X127749306Y-81750334D01*
X127763106Y-81741661D01*
X127763106Y-81741660D01*
X127400001Y-81378553D01*
X127400000Y-81378553D01*
X127036892Y-81741660D01*
X127036892Y-81741661D01*
X127050692Y-81750333D01*
X127050694Y-81750334D01*
X127215372Y-81807957D01*
X127272148Y-81848679D01*
X127297896Y-81913631D01*
X127284440Y-81982193D01*
X127236053Y-82032596D01*
X127215373Y-82042040D01*
X127050706Y-82099659D01*
X127050691Y-82099667D01*
X127036891Y-82108337D01*
X127036891Y-82108338D01*
X125963107Y-82108338D01*
X125949304Y-82099665D01*
X125784626Y-82042042D01*
X125727850Y-82001320D01*
X125702103Y-81936367D01*
X125715559Y-81867805D01*
X125763946Y-81817403D01*
X125784627Y-81807958D01*
X125949305Y-81750334D01*
X125949306Y-81750334D01*
X125963106Y-81741661D01*
X125963106Y-81741660D01*
X125600001Y-81378553D01*
X125600000Y-81378553D01*
X125236892Y-81741660D01*
X125236892Y-81741661D01*
X125250692Y-81750333D01*
X125250694Y-81750334D01*
X125415372Y-81807957D01*
X125472148Y-81848679D01*
X125497896Y-81913631D01*
X125484440Y-81982193D01*
X125436053Y-82032596D01*
X125415373Y-82042040D01*
X125250706Y-82099659D01*
X125250691Y-82099667D01*
X125236891Y-82108337D01*
X125236891Y-82108338D01*
X122795487Y-82108338D01*
X122757719Y-82017159D01*
X122661465Y-81891718D01*
X122536024Y-81795464D01*
X122485499Y-81774536D01*
X122389945Y-81734956D01*
X122389943Y-81734955D01*
X122233184Y-81714318D01*
X122233182Y-81714318D01*
X122076422Y-81734955D01*
X122076420Y-81734956D01*
X121930343Y-81795463D01*
X121804901Y-81891718D01*
X121708646Y-82017160D01*
X121648139Y-82163237D01*
X121648138Y-82163239D01*
X121627501Y-82319998D01*
X121627501Y-82320001D01*
X95457218Y-82320001D01*
X96242761Y-81534458D01*
X96267345Y-81517664D01*
X96266633Y-81516574D01*
X96275239Y-81510951D01*
X96309202Y-81488759D01*
X96317980Y-81483529D01*
X96353665Y-81464219D01*
X96353667Y-81464216D01*
X96353869Y-81464059D01*
X96376734Y-81444694D01*
X96376937Y-81444507D01*
X96376936Y-81444507D01*
X96376939Y-81444506D01*
X96401848Y-81412500D01*
X96408464Y-81404688D01*
X96435942Y-81374842D01*
X96435943Y-81374840D01*
X96436098Y-81374602D01*
X96451415Y-81348897D01*
X96451550Y-81348646D01*
X96451555Y-81348640D01*
X96464730Y-81310261D01*
X96468440Y-81300753D01*
X96484741Y-81263592D01*
X96484741Y-81263586D01*
X96484807Y-81263324D01*
X96490956Y-81234004D01*
X96491000Y-81233743D01*
X96491000Y-81193180D01*
X96491424Y-81182938D01*
X96493368Y-81159486D01*
X96494773Y-81142525D01*
X96494773Y-81142524D01*
X96494753Y-81142290D01*
X96491000Y-81112169D01*
X96491000Y-80750001D01*
X98144318Y-80750001D01*
X98164955Y-80906760D01*
X98164956Y-80906762D01*
X98213930Y-81024997D01*
X98225464Y-81052841D01*
X98321718Y-81178282D01*
X98447159Y-81274536D01*
X98593238Y-81335044D01*
X98671619Y-81345363D01*
X98749999Y-81355682D01*
X98750000Y-81355682D01*
X98750001Y-81355682D01*
X98803490Y-81348640D01*
X98906762Y-81335044D01*
X99052841Y-81274536D01*
X99178282Y-81178282D01*
X99274536Y-81052841D01*
X99286067Y-81025002D01*
X124794938Y-81025002D01*
X124815121Y-81204138D01*
X124874665Y-81374304D01*
X124883338Y-81388107D01*
X125246446Y-81025000D01*
X125444709Y-81025000D01*
X125465514Y-81102645D01*
X125522355Y-81159486D01*
X125580254Y-81175000D01*
X125619746Y-81175000D01*
X125677645Y-81159486D01*
X125734486Y-81102646D01*
X125755291Y-81025000D01*
X125953552Y-81025000D01*
X126316660Y-81388106D01*
X126316661Y-81388106D01*
X126325334Y-81374306D01*
X126325334Y-81374305D01*
X126382958Y-81209627D01*
X126423680Y-81152850D01*
X126488633Y-81127103D01*
X126557194Y-81140559D01*
X126607597Y-81188946D01*
X126617042Y-81209626D01*
X126674665Y-81374304D01*
X126683338Y-81388107D01*
X127046446Y-81025000D01*
X127244709Y-81025000D01*
X127265514Y-81102645D01*
X127322355Y-81159486D01*
X127380254Y-81175000D01*
X127419746Y-81175000D01*
X127477645Y-81159486D01*
X127534486Y-81102646D01*
X127555291Y-81025000D01*
X127534486Y-80947355D01*
X127477645Y-80890514D01*
X127419746Y-80875000D01*
X127380254Y-80875000D01*
X127322355Y-80890514D01*
X127265514Y-80947354D01*
X127244709Y-81025000D01*
X127046446Y-81025000D01*
X127046446Y-81024999D01*
X126683338Y-80661891D01*
X126683337Y-80661891D01*
X126674667Y-80675691D01*
X126674659Y-80675706D01*
X126617040Y-80840373D01*
X126576318Y-80897149D01*
X126511366Y-80922896D01*
X126442804Y-80909440D01*
X126392401Y-80861052D01*
X126382957Y-80840372D01*
X126325334Y-80675694D01*
X126325333Y-80675692D01*
X126316661Y-80661892D01*
X126316660Y-80661892D01*
X125953552Y-81025000D01*
X125755291Y-81025000D01*
X125734486Y-80947355D01*
X125677645Y-80890514D01*
X125619746Y-80875000D01*
X125580254Y-80875000D01*
X125522355Y-80890514D01*
X125465514Y-80947354D01*
X125444709Y-81025000D01*
X125246446Y-81025000D01*
X125246446Y-81024999D01*
X124883338Y-80661891D01*
X124883337Y-80661891D01*
X124874667Y-80675691D01*
X124874662Y-80675701D01*
X124815122Y-80845858D01*
X124815121Y-80845861D01*
X124794938Y-81024997D01*
X124794938Y-81025002D01*
X99286067Y-81025002D01*
X99335044Y-80906762D01*
X99355682Y-80750000D01*
X99349099Y-80700000D01*
X99335044Y-80593239D01*
X99335044Y-80593238D01*
X99274536Y-80447159D01*
X99178282Y-80321718D01*
X99052841Y-80225464D01*
X99039647Y-80219999D01*
X98906762Y-80164956D01*
X98906760Y-80164955D01*
X98750001Y-80144318D01*
X98749999Y-80144318D01*
X98593239Y-80164955D01*
X98593237Y-80164956D01*
X98447160Y-80225463D01*
X98321718Y-80321718D01*
X98225463Y-80447160D01*
X98164956Y-80593237D01*
X98164955Y-80593239D01*
X98144318Y-80749998D01*
X98144318Y-80750001D01*
X96491000Y-80750001D01*
X96491000Y-79750001D01*
X103394318Y-79750001D01*
X103414955Y-79906760D01*
X103414956Y-79906762D01*
X103475464Y-80052841D01*
X103571718Y-80178282D01*
X103697159Y-80274536D01*
X103843238Y-80335044D01*
X103921619Y-80345363D01*
X103999999Y-80355682D01*
X104000000Y-80355682D01*
X104000001Y-80355682D01*
X104052254Y-80348802D01*
X104156762Y-80335044D01*
X104302841Y-80274536D01*
X104334816Y-80250001D01*
X112644318Y-80250001D01*
X112664955Y-80406760D01*
X112664956Y-80406762D01*
X112715410Y-80528570D01*
X112725464Y-80552841D01*
X112821718Y-80678282D01*
X112947159Y-80774536D01*
X113093238Y-80835044D01*
X113155478Y-80843238D01*
X113249999Y-80855682D01*
X113250000Y-80855682D01*
X113250001Y-80855682D01*
X113344514Y-80843239D01*
X113406762Y-80835044D01*
X113552841Y-80774536D01*
X113678282Y-80678282D01*
X113774536Y-80552841D01*
X113835044Y-80406762D01*
X113848002Y-80308338D01*
X125236891Y-80308338D01*
X125600000Y-80671446D01*
X125600001Y-80671446D01*
X125963107Y-80308338D01*
X127036891Y-80308338D01*
X127400000Y-80671447D01*
X128116660Y-81388106D01*
X128116661Y-81388106D01*
X128125334Y-81374306D01*
X128125334Y-81374305D01*
X128168830Y-81250001D01*
X128894318Y-81250001D01*
X128914955Y-81406760D01*
X128914956Y-81406762D01*
X128965961Y-81529900D01*
X128975464Y-81552841D01*
X129071718Y-81678282D01*
X129197159Y-81774536D01*
X129343238Y-81835044D01*
X129421619Y-81845363D01*
X129499999Y-81855682D01*
X129500000Y-81855682D01*
X129500001Y-81855682D01*
X129553193Y-81848679D01*
X129656762Y-81835044D01*
X129802841Y-81774536D01*
X129928282Y-81678282D01*
X130024536Y-81552841D01*
X130085044Y-81406762D01*
X130105682Y-81250000D01*
X130103541Y-81233741D01*
X130087536Y-81112169D01*
X130085044Y-81093238D01*
X130024536Y-80947159D01*
X129928282Y-80821718D01*
X129802841Y-80725464D01*
X129735221Y-80697455D01*
X129656762Y-80664956D01*
X129656760Y-80664955D01*
X129500001Y-80644318D01*
X129499999Y-80644318D01*
X129343239Y-80664955D01*
X129343237Y-80664956D01*
X129197160Y-80725463D01*
X129071718Y-80821718D01*
X128975463Y-80947160D01*
X128914956Y-81093237D01*
X128914955Y-81093239D01*
X128894318Y-81249998D01*
X128894318Y-81250001D01*
X128168830Y-81250001D01*
X128184877Y-81204141D01*
X128184878Y-81204138D01*
X128205062Y-81025002D01*
X128205062Y-81024997D01*
X128184878Y-80845861D01*
X128184877Y-80845858D01*
X128125336Y-80675698D01*
X128032890Y-80528570D01*
X128013890Y-80461333D01*
X128034258Y-80394498D01*
X128087526Y-80349284D01*
X128121690Y-80339661D01*
X128156762Y-80335044D01*
X128302841Y-80274536D01*
X128428282Y-80178282D01*
X128524536Y-80052841D01*
X128585044Y-79906762D01*
X128605682Y-79750000D01*
X128599847Y-79705682D01*
X128585044Y-79593239D01*
X128585044Y-79593238D01*
X128524536Y-79447159D01*
X128428282Y-79321718D01*
X128302841Y-79225464D01*
X128284022Y-79217669D01*
X128156762Y-79164956D01*
X128156760Y-79164955D01*
X128000001Y-79144318D01*
X127999999Y-79144318D01*
X127843239Y-79164955D01*
X127843237Y-79164956D01*
X127697160Y-79225463D01*
X127571718Y-79321718D01*
X127475463Y-79447160D01*
X127414956Y-79593237D01*
X127414955Y-79593239D01*
X127394318Y-79749998D01*
X127394318Y-79750001D01*
X127414955Y-79906760D01*
X127414956Y-79906762D01*
X127456761Y-80007689D01*
X127475173Y-80052138D01*
X127482642Y-80121608D01*
X127451367Y-80184087D01*
X127391278Y-80219739D01*
X127374496Y-80222811D01*
X127220861Y-80240121D01*
X127220858Y-80240122D01*
X127050701Y-80299662D01*
X127050691Y-80299667D01*
X127036891Y-80308337D01*
X127036891Y-80308338D01*
X125963107Y-80308338D01*
X125949304Y-80299665D01*
X125779138Y-80240121D01*
X125600003Y-80219938D01*
X125599997Y-80219938D01*
X125420861Y-80240121D01*
X125420852Y-80240123D01*
X125417551Y-80241279D01*
X125415285Y-80241394D01*
X125414070Y-80241672D01*
X125414021Y-80241459D01*
X125347772Y-80244838D01*
X125287146Y-80210107D01*
X125281993Y-80200194D01*
X125285034Y-80211024D01*
X125264554Y-80277824D01*
X125237329Y-80304454D01*
X125236891Y-80308338D01*
X113848002Y-80308338D01*
X113855682Y-80250000D01*
X113855002Y-80244838D01*
X113835044Y-80093239D01*
X113835044Y-80093238D01*
X113774536Y-79947159D01*
X113678282Y-79821718D01*
X113552841Y-79725464D01*
X113406762Y-79664956D01*
X113406760Y-79664955D01*
X113250001Y-79644318D01*
X113249999Y-79644318D01*
X113093239Y-79664955D01*
X113093237Y-79664956D01*
X112947160Y-79725463D01*
X112821718Y-79821718D01*
X112725463Y-79947160D01*
X112664956Y-80093237D01*
X112664955Y-80093239D01*
X112644318Y-80249998D01*
X112644318Y-80250001D01*
X104334816Y-80250001D01*
X104428282Y-80178282D01*
X104524536Y-80052841D01*
X104585044Y-79906762D01*
X104605682Y-79750000D01*
X104599847Y-79705682D01*
X104585044Y-79593239D01*
X104585044Y-79593238D01*
X104546424Y-79500001D01*
X124394318Y-79500001D01*
X124414955Y-79656760D01*
X124414956Y-79656762D01*
X124456376Y-79756760D01*
X124475464Y-79802841D01*
X124571718Y-79928282D01*
X124697159Y-80024536D01*
X124843238Y-80085044D01*
X124905478Y-80093238D01*
X124999999Y-80105682D01*
X125000000Y-80105682D01*
X125144861Y-80086610D01*
X125213892Y-80097375D01*
X125256140Y-80134872D01*
X125261329Y-80078537D01*
X125301115Y-80025860D01*
X125302839Y-80024536D01*
X125302841Y-80024536D01*
X125428282Y-79928282D01*
X125524536Y-79802841D01*
X125585044Y-79656762D01*
X125605682Y-79500000D01*
X125598725Y-79447159D01*
X125585044Y-79343239D01*
X125585044Y-79343238D01*
X125524536Y-79197159D01*
X125428282Y-79071718D01*
X125302841Y-78975464D01*
X125156762Y-78914956D01*
X125156760Y-78914955D01*
X125000001Y-78894318D01*
X124999999Y-78894318D01*
X124843239Y-78914955D01*
X124843237Y-78914956D01*
X124697160Y-78975463D01*
X124571718Y-79071718D01*
X124475463Y-79197160D01*
X124414956Y-79343237D01*
X124414955Y-79343239D01*
X124394318Y-79499998D01*
X124394318Y-79500001D01*
X104546424Y-79500001D01*
X104524536Y-79447159D01*
X104428282Y-79321718D01*
X104302841Y-79225464D01*
X104284022Y-79217669D01*
X104156762Y-79164956D01*
X104156760Y-79164955D01*
X104000001Y-79144318D01*
X103999999Y-79144318D01*
X103843239Y-79164955D01*
X103843237Y-79164956D01*
X103697160Y-79225463D01*
X103571718Y-79321718D01*
X103475463Y-79447160D01*
X103414956Y-79593237D01*
X103414955Y-79593239D01*
X103394318Y-79749998D01*
X103394318Y-79750001D01*
X96491000Y-79750001D01*
X96491000Y-74437583D01*
X96510685Y-74370544D01*
X96527319Y-74349902D01*
X96849902Y-74027319D01*
X96911225Y-73993834D01*
X96937583Y-73991000D01*
X99684842Y-73991000D01*
X99710286Y-73993639D01*
X99713453Y-73994302D01*
X99720198Y-73995717D01*
X99750403Y-73991951D01*
X99765206Y-73991033D01*
X99765601Y-73991000D01*
X99765610Y-73991000D01*
X99785464Y-73987686D01*
X99790460Y-73986958D01*
X99822644Y-73982947D01*
X99840742Y-73980692D01*
X99840744Y-73980691D01*
X99840747Y-73980691D01*
X99840749Y-73980689D01*
X99848071Y-73978509D01*
X99855267Y-73976038D01*
X99855273Y-73976038D01*
X99899855Y-73951909D01*
X99904370Y-73949586D01*
X99949884Y-73927337D01*
X99949888Y-73927332D01*
X99956099Y-73922897D01*
X99962102Y-73918224D01*
X99962113Y-73918219D01*
X99996438Y-73880930D01*
X99999963Y-73877256D01*
X101976902Y-71900319D01*
X102038225Y-71866834D01*
X102064583Y-71864000D01*
X102582239Y-71864000D01*
X102649278Y-71883685D01*
X102695033Y-71936489D01*
X102704977Y-72005647D01*
X102696801Y-72035449D01*
X102690582Y-72050463D01*
X102678456Y-72079737D01*
X102678455Y-72079739D01*
X102657818Y-72236498D01*
X102657818Y-72236501D01*
X102678455Y-72393260D01*
X102678456Y-72393262D01*
X102732831Y-72524536D01*
X102738964Y-72539341D01*
X102835218Y-72664782D01*
X102960659Y-72761036D01*
X103106738Y-72821544D01*
X103185119Y-72831863D01*
X103263499Y-72842182D01*
X103263500Y-72842182D01*
X103263501Y-72842182D01*
X103317726Y-72835043D01*
X103420262Y-72821544D01*
X103566341Y-72761036D01*
X103691782Y-72664782D01*
X103703883Y-72649011D01*
X103760309Y-72607811D01*
X103802257Y-72600500D01*
X104679188Y-72600500D01*
X104746227Y-72620185D01*
X104791982Y-72672989D01*
X104802126Y-72740685D01*
X104799802Y-72758347D01*
X104794318Y-72800000D01*
X104794318Y-72800001D01*
X104814955Y-72956760D01*
X104814956Y-72956762D01*
X104874095Y-73099537D01*
X104878574Y-73110349D01*
X104876067Y-73111387D01*
X104889405Y-73166345D01*
X104866558Y-73232374D01*
X104811641Y-73275569D01*
X104765545Y-73284455D01*
X104487212Y-73284455D01*
X104420173Y-73264770D01*
X104388839Y-73235944D01*
X104376737Y-73220173D01*
X104251296Y-73123919D01*
X104200409Y-73102841D01*
X104105217Y-73063411D01*
X104105215Y-73063410D01*
X103948456Y-73042773D01*
X103948454Y-73042773D01*
X103791694Y-73063410D01*
X103791692Y-73063411D01*
X103645615Y-73123918D01*
X103520173Y-73220173D01*
X103423918Y-73345615D01*
X103363411Y-73491692D01*
X103363410Y-73491694D01*
X103342773Y-73648453D01*
X103342773Y-73648456D01*
X103363410Y-73805215D01*
X103363411Y-73805217D01*
X103423203Y-73949569D01*
X103423919Y-73951296D01*
X103520173Y-74076737D01*
X103645614Y-74172991D01*
X103746926Y-74214956D01*
X103761482Y-74220985D01*
X103815886Y-74264826D01*
X103837951Y-74331120D01*
X103836969Y-74351731D01*
X103830818Y-74398453D01*
X103830818Y-74398456D01*
X103851455Y-74555215D01*
X103851456Y-74555217D01*
X103910250Y-74697159D01*
X103911965Y-74701298D01*
X103916028Y-74708336D01*
X103914456Y-74709243D01*
X103935991Y-74764938D01*
X103921955Y-74833383D01*
X103910797Y-74850747D01*
X103821673Y-74966895D01*
X103761165Y-75112975D01*
X103761164Y-75112977D01*
X103740527Y-75269736D01*
X103740527Y-75269739D01*
X103741485Y-75277018D01*
X103730716Y-75346053D01*
X103684334Y-75398306D01*
X103650642Y-75412972D01*
X103643239Y-75414955D01*
X103497160Y-75475463D01*
X103371718Y-75571718D01*
X103275463Y-75697160D01*
X103214956Y-75843237D01*
X103214955Y-75843239D01*
X103194318Y-75999998D01*
X103194318Y-76000001D01*
X103214955Y-76156760D01*
X103214956Y-76156762D01*
X103253576Y-76250000D01*
X103275464Y-76302841D01*
X103371718Y-76428282D01*
X103497159Y-76524536D01*
X103643238Y-76585044D01*
X103705478Y-76593238D01*
X103799999Y-76605682D01*
X103800000Y-76605682D01*
X103800001Y-76605682D01*
X103894514Y-76593239D01*
X103956762Y-76585044D01*
X104102841Y-76524536D01*
X104228282Y-76428282D01*
X104324536Y-76302841D01*
X104385044Y-76156762D01*
X104405682Y-76000000D01*
X104404724Y-75992724D01*
X104415489Y-75923691D01*
X104461868Y-75871434D01*
X104495575Y-75856763D01*
X104502963Y-75854782D01*
X104502971Y-75854782D01*
X104649050Y-75794274D01*
X104774491Y-75698020D01*
X104870745Y-75572579D01*
X104907002Y-75485047D01*
X104950843Y-75430644D01*
X105017137Y-75408579D01*
X105021563Y-75408500D01*
X105226609Y-75408500D01*
X105293648Y-75428185D01*
X105339403Y-75480989D01*
X105349347Y-75550147D01*
X105341170Y-75579949D01*
X105339061Y-75585044D01*
X105314956Y-75643237D01*
X105314955Y-75643239D01*
X105294318Y-75799998D01*
X105294318Y-75800001D01*
X105314955Y-75956760D01*
X105314956Y-75956762D01*
X105375464Y-76102841D01*
X105471718Y-76228282D01*
X105597159Y-76324536D01*
X105597160Y-76324536D01*
X105603608Y-76329484D01*
X105602532Y-76330885D01*
X105643859Y-76374223D01*
X105657086Y-76442830D01*
X105631122Y-76507696D01*
X105617474Y-76521186D01*
X105617759Y-76521471D01*
X105612016Y-76527213D01*
X105515757Y-76652660D01*
X105455250Y-76798737D01*
X105455249Y-76798739D01*
X105434612Y-76955498D01*
X105434612Y-76955501D01*
X105455249Y-77112260D01*
X105455250Y-77112262D01*
X105473682Y-77156762D01*
X105515758Y-77258341D01*
X105612012Y-77383782D01*
X105737453Y-77480036D01*
X105883532Y-77540544D01*
X105961913Y-77550863D01*
X106040293Y-77561182D01*
X106040294Y-77561182D01*
X106040295Y-77561182D01*
X106092548Y-77554302D01*
X106197056Y-77540544D01*
X106343135Y-77480036D01*
X106468576Y-77383782D01*
X106564830Y-77258341D01*
X106625338Y-77112262D01*
X106640117Y-77000001D01*
X106645976Y-76955501D01*
X106645976Y-76955498D01*
X106631197Y-76843239D01*
X106625338Y-76798738D01*
X106564830Y-76652659D01*
X106468576Y-76527218D01*
X106343135Y-76430964D01*
X106343133Y-76430963D01*
X106336686Y-76426016D01*
X106337760Y-76424615D01*
X106296431Y-76381269D01*
X106283207Y-76312662D01*
X106308293Y-76250001D01*
X108894318Y-76250001D01*
X108914955Y-76406760D01*
X108914956Y-76406762D01*
X108964850Y-76527218D01*
X108975464Y-76552841D01*
X109071718Y-76678282D01*
X109197159Y-76774536D01*
X109343238Y-76835044D01*
X109405478Y-76843238D01*
X109499999Y-76855682D01*
X109500000Y-76855682D01*
X109500001Y-76855682D01*
X109594514Y-76843239D01*
X109656762Y-76835044D01*
X109802841Y-76774536D01*
X109928282Y-76678282D01*
X110024536Y-76552841D01*
X110085044Y-76406762D01*
X110099454Y-76297305D01*
X110105682Y-76250001D01*
X110105682Y-76249998D01*
X110085044Y-76093239D01*
X110085044Y-76093238D01*
X110024536Y-75947159D01*
X109928282Y-75821718D01*
X109802841Y-75725464D01*
X109736585Y-75698020D01*
X109656762Y-75664956D01*
X109656760Y-75664955D01*
X109584473Y-75655439D01*
X109520576Y-75627172D01*
X109500679Y-75597007D01*
X109493055Y-75613703D01*
X109434277Y-75651477D01*
X109415527Y-75655439D01*
X109343239Y-75664955D01*
X109343237Y-75664956D01*
X109197160Y-75725463D01*
X109071718Y-75821718D01*
X108975463Y-75947160D01*
X108914956Y-76093237D01*
X108914955Y-76093239D01*
X108894318Y-76249998D01*
X108894318Y-76250001D01*
X106308293Y-76250001D01*
X106309175Y-76247797D01*
X106322820Y-76234314D01*
X106322535Y-76234029D01*
X106328277Y-76228286D01*
X106328277Y-76228285D01*
X106328282Y-76228282D01*
X106424536Y-76102841D01*
X106485044Y-75956762D01*
X106504995Y-75805217D01*
X106505682Y-75800001D01*
X106505682Y-75799998D01*
X106485731Y-75648454D01*
X106485044Y-75643238D01*
X106458829Y-75579951D01*
X106451361Y-75510484D01*
X106482636Y-75448004D01*
X106542725Y-75412352D01*
X106573391Y-75408500D01*
X108239259Y-75408500D01*
X109399342Y-75408500D01*
X109466381Y-75428185D01*
X109500757Y-75467857D01*
X109518346Y-75439760D01*
X109581552Y-75409981D01*
X109600658Y-75408500D01*
X135355021Y-75408500D01*
X135422060Y-75428185D01*
X135442702Y-75444819D01*
X136213681Y-76215798D01*
X136247166Y-76277121D01*
X136250000Y-76303479D01*
X136250000Y-77244498D01*
X136142315Y-77195320D01*
X136035763Y-77180000D01*
X135964237Y-77180000D01*
X135857685Y-77195320D01*
X135750000Y-77244498D01*
X135750000Y-76349364D01*
X135749999Y-76349364D01*
X135536513Y-76406567D01*
X135536507Y-76406570D01*
X135322422Y-76506399D01*
X135322420Y-76506400D01*
X135128926Y-76641886D01*
X135128920Y-76641891D01*
X134961891Y-76808920D01*
X134961886Y-76808926D01*
X134826400Y-77002420D01*
X134826399Y-77002422D01*
X134726570Y-77216507D01*
X134726567Y-77216513D01*
X134669364Y-77429999D01*
X134669364Y-77430000D01*
X135566314Y-77430000D01*
X135540507Y-77470156D01*
X135500000Y-77608111D01*
X135500000Y-77751889D01*
X135540507Y-77889844D01*
X135566314Y-77930000D01*
X134669364Y-77930000D01*
X134726567Y-78143486D01*
X134726570Y-78143492D01*
X134826399Y-78357578D01*
X134961894Y-78551082D01*
X135128917Y-78718105D01*
X135322421Y-78853600D01*
X135521573Y-78946466D01*
X135574012Y-78992638D01*
X135593164Y-79059832D01*
X135572948Y-79126713D01*
X135519783Y-79172048D01*
X135513968Y-79174472D01*
X135506771Y-79177260D01*
X135484982Y-79185701D01*
X135484980Y-79185702D01*
X135303699Y-79297947D01*
X135146127Y-79441593D01*
X135017632Y-79611746D01*
X134922596Y-79802605D01*
X134922596Y-79802607D01*
X134864244Y-80007689D01*
X134849672Y-80164955D01*
X134844571Y-80220000D01*
X134864244Y-80432310D01*
X134910032Y-80593237D01*
X134922596Y-80637392D01*
X134922596Y-80637394D01*
X135017632Y-80828253D01*
X135107574Y-80947354D01*
X135146128Y-80998407D01*
X135303698Y-81142052D01*
X135484981Y-81254298D01*
X135683802Y-81331321D01*
X135880613Y-81368111D01*
X135942893Y-81399779D01*
X135978166Y-81460092D01*
X135975232Y-81529900D01*
X135935023Y-81587040D01*
X135880613Y-81611888D01*
X135683802Y-81648679D01*
X135683799Y-81648679D01*
X135683799Y-81648680D01*
X135484982Y-81725701D01*
X135484980Y-81725702D01*
X135303699Y-81837947D01*
X135146127Y-81981593D01*
X135017632Y-82151746D01*
X134922596Y-82342605D01*
X134922596Y-82342607D01*
X134864244Y-82547689D01*
X134846750Y-82736489D01*
X134844571Y-82760000D01*
X134864244Y-82972310D01*
X134874861Y-83009626D01*
X134922596Y-83177392D01*
X134922596Y-83177394D01*
X135017632Y-83368253D01*
X135146127Y-83538406D01*
X135146128Y-83538407D01*
X135303698Y-83682052D01*
X135484981Y-83794298D01*
X135683802Y-83871321D01*
X135856544Y-83903612D01*
X135918823Y-83935279D01*
X135954096Y-83995591D01*
X135951162Y-84065400D01*
X135910953Y-84122540D01*
X135846235Y-84148871D01*
X135833757Y-84149500D01*
X135105143Y-84149500D01*
X135105117Y-84149502D01*
X135080012Y-84152413D01*
X135080008Y-84152415D01*
X134977235Y-84197793D01*
X134897794Y-84277234D01*
X134852415Y-84380006D01*
X134852415Y-84380008D01*
X134849500Y-84405131D01*
X134849500Y-86194856D01*
X134849502Y-86194882D01*
X134852413Y-86219987D01*
X134852415Y-86219991D01*
X134897793Y-86322764D01*
X134897794Y-86322765D01*
X134977235Y-86402206D01*
X135080009Y-86447585D01*
X135105135Y-86450500D01*
X136894864Y-86450499D01*
X136894879Y-86450497D01*
X136894882Y-86450497D01*
X136919987Y-86447586D01*
X136919988Y-86447585D01*
X136919991Y-86447585D01*
X137022765Y-86402206D01*
X137102206Y-86322765D01*
X137147585Y-86219991D01*
X137150500Y-86194865D01*
X137150499Y-84405136D01*
X137149158Y-84393570D01*
X137147586Y-84380012D01*
X137147585Y-84380010D01*
X137147585Y-84380009D01*
X137102206Y-84277235D01*
X137022765Y-84197794D01*
X137021327Y-84197159D01*
X136919992Y-84152415D01*
X136894868Y-84149500D01*
X136166243Y-84149500D01*
X136099204Y-84129815D01*
X136053449Y-84077011D01*
X136043505Y-84007853D01*
X136072530Y-83944297D01*
X136131308Y-83906523D01*
X136143441Y-83903614D01*
X136316198Y-83871321D01*
X136515019Y-83794298D01*
X136696302Y-83682052D01*
X136853872Y-83538407D01*
X136982366Y-83368255D01*
X136993640Y-83345614D01*
X137077403Y-83177394D01*
X137077403Y-83177393D01*
X137077405Y-83177389D01*
X137135756Y-82972310D01*
X137155429Y-82760000D01*
X137135756Y-82547690D01*
X137077405Y-82342611D01*
X137077403Y-82342606D01*
X137077403Y-82342605D01*
X136982367Y-82151746D01*
X136853872Y-81981593D01*
X136696302Y-81837948D01*
X136515019Y-81725702D01*
X136515017Y-81725701D01*
X136392610Y-81678281D01*
X136316198Y-81648679D01*
X136119385Y-81611888D01*
X136057106Y-81580221D01*
X136021833Y-81519908D01*
X136024767Y-81450100D01*
X136064976Y-81392960D01*
X136119384Y-81368111D01*
X136316198Y-81331321D01*
X136515019Y-81254298D01*
X136696302Y-81142052D01*
X136853872Y-80998407D01*
X136982366Y-80828255D01*
X137009115Y-80774536D01*
X137077403Y-80637394D01*
X137077403Y-80637393D01*
X137077405Y-80637389D01*
X137135756Y-80432310D01*
X137155429Y-80220000D01*
X137135756Y-80007690D01*
X137077405Y-79802611D01*
X137077403Y-79802606D01*
X137077403Y-79802605D01*
X136982367Y-79611746D01*
X136853872Y-79441593D01*
X136811361Y-79402839D01*
X136696302Y-79297948D01*
X136515019Y-79185702D01*
X136515014Y-79185700D01*
X136499854Y-79179827D01*
X136486037Y-79174474D01*
X136430636Y-79131903D01*
X136407045Y-79066136D01*
X136422756Y-78998056D01*
X136472779Y-78949276D01*
X136478426Y-78946466D01*
X136677578Y-78853599D01*
X136871082Y-78718105D01*
X137038105Y-78551082D01*
X137173600Y-78357578D01*
X137273429Y-78143492D01*
X137273432Y-78143486D01*
X137330636Y-77930000D01*
X136433686Y-77930000D01*
X136459493Y-77889844D01*
X136500000Y-77751889D01*
X136500000Y-77608111D01*
X136459493Y-77470156D01*
X136433686Y-77430000D01*
X137376521Y-77430000D01*
X137443560Y-77449685D01*
X137464202Y-77466319D01*
X147445681Y-87447798D01*
X147479166Y-87509121D01*
X147482000Y-87535479D01*
X147482000Y-87617198D01*
X147479361Y-87642644D01*
X147477282Y-87652555D01*
X147481048Y-87682760D01*
X147481968Y-87697594D01*
X147481999Y-87697963D01*
X147485304Y-87717774D01*
X147486041Y-87722837D01*
X147492307Y-87773103D01*
X147494483Y-87780411D01*
X147496962Y-87787633D01*
X147521086Y-87832210D01*
X147523432Y-87836767D01*
X147545662Y-87882241D01*
X147550116Y-87888478D01*
X147554778Y-87894468D01*
X147592066Y-87928794D01*
X147595764Y-87932343D01*
X147899681Y-88236260D01*
X147933166Y-88297583D01*
X147936000Y-88323941D01*
X147936000Y-89049392D01*
X147933361Y-89074838D01*
X147931282Y-89084749D01*
X147935048Y-89114954D01*
X147935968Y-89129788D01*
X147935999Y-89130157D01*
X147939304Y-89149968D01*
X147940041Y-89155031D01*
X147946307Y-89205297D01*
X147948483Y-89212605D01*
X147950962Y-89219827D01*
X147975086Y-89264404D01*
X147977432Y-89268961D01*
X147999662Y-89314435D01*
X148004116Y-89320672D01*
X148008778Y-89326662D01*
X148008780Y-89326664D01*
X148008781Y-89326665D01*
X148030569Y-89346722D01*
X148046067Y-89360989D01*
X148049765Y-89364538D01*
X148706824Y-90021597D01*
X148722949Y-90041453D01*
X148728491Y-90049935D01*
X148728494Y-90049939D01*
X148752527Y-90068644D01*
X148763639Y-90078459D01*
X148763945Y-90078717D01*
X148780283Y-90090384D01*
X148784384Y-90093442D01*
X148824358Y-90124554D01*
X148831066Y-90128184D01*
X148837922Y-90131536D01*
X148886486Y-90145994D01*
X148891302Y-90147536D01*
X148939259Y-90164000D01*
X148939264Y-90164000D01*
X148946798Y-90165257D01*
X148954352Y-90166198D01*
X148954353Y-90166199D01*
X148954353Y-90166198D01*
X148954354Y-90166199D01*
X148987251Y-90164838D01*
X149004950Y-90164105D01*
X149010075Y-90164000D01*
X152061243Y-90164000D01*
X152128282Y-90183685D01*
X152159615Y-90212510D01*
X152171718Y-90228282D01*
X152297159Y-90324536D01*
X152443238Y-90385044D01*
X152521619Y-90395363D01*
X152599999Y-90405682D01*
X152600000Y-90405682D01*
X152600001Y-90405682D01*
X152652254Y-90398802D01*
X152756762Y-90385044D01*
X152902841Y-90324536D01*
X153028282Y-90228282D01*
X153124536Y-90102841D01*
X153185044Y-89956762D01*
X153205682Y-89800000D01*
X153185044Y-89643238D01*
X153140398Y-89535452D01*
X153132929Y-89465983D01*
X153164204Y-89403504D01*
X153224293Y-89367852D01*
X153254959Y-89364000D01*
X153649394Y-89364000D01*
X153674838Y-89366639D01*
X153678005Y-89367302D01*
X153684750Y-89368717D01*
X153714955Y-89364951D01*
X153729758Y-89364033D01*
X153730153Y-89364000D01*
X153730162Y-89364000D01*
X153750016Y-89360686D01*
X153755012Y-89359958D01*
X153787196Y-89355947D01*
X153805294Y-89353692D01*
X153805296Y-89353691D01*
X153805299Y-89353691D01*
X153805301Y-89353689D01*
X153812623Y-89351509D01*
X153819819Y-89349038D01*
X153819825Y-89349038D01*
X153864407Y-89324909D01*
X153868922Y-89322586D01*
X153914436Y-89300337D01*
X153914440Y-89300332D01*
X153920651Y-89295897D01*
X153926655Y-89291224D01*
X153926665Y-89291219D01*
X153961001Y-89253918D01*
X153964503Y-89250268D01*
X154421602Y-88793169D01*
X154441458Y-88777046D01*
X154449939Y-88771506D01*
X154468639Y-88747478D01*
X154478415Y-88736411D01*
X154478702Y-88736071D01*
X154478715Y-88736059D01*
X154490408Y-88719680D01*
X154493451Y-88715601D01*
X154524555Y-88675640D01*
X154524556Y-88675634D01*
X154528185Y-88668929D01*
X154531532Y-88662082D01*
X154531536Y-88662078D01*
X154545999Y-88613495D01*
X154547524Y-88608730D01*
X154564000Y-88560741D01*
X154564000Y-88560737D01*
X154565256Y-88553207D01*
X154566199Y-88545644D01*
X154564311Y-88500001D01*
X164394318Y-88500001D01*
X164414955Y-88656760D01*
X164414956Y-88656762D01*
X164462484Y-88771506D01*
X164475464Y-88802841D01*
X164571718Y-88928282D01*
X164697159Y-89024536D01*
X164843238Y-89085044D01*
X164921619Y-89095363D01*
X164999999Y-89105682D01*
X165000000Y-89105682D01*
X165000001Y-89105682D01*
X165052254Y-89098802D01*
X165156762Y-89085044D01*
X165302841Y-89024536D01*
X165428282Y-88928282D01*
X165524536Y-88802841D01*
X165585044Y-88656762D01*
X165605682Y-88500000D01*
X165604354Y-88489915D01*
X165585044Y-88343239D01*
X165585044Y-88343238D01*
X165524536Y-88197159D01*
X165428282Y-88071718D01*
X165302841Y-87975464D01*
X165257690Y-87956762D01*
X165156762Y-87914956D01*
X165156760Y-87914955D01*
X165000001Y-87894318D01*
X164999999Y-87894318D01*
X164843239Y-87914955D01*
X164843237Y-87914956D01*
X164697160Y-87975463D01*
X164571718Y-88071718D01*
X164475463Y-88197160D01*
X164414956Y-88343237D01*
X164414955Y-88343239D01*
X164394318Y-88499998D01*
X164394318Y-88500001D01*
X154564311Y-88500001D01*
X154564106Y-88495040D01*
X154564000Y-88489915D01*
X154564000Y-88290289D01*
X154583685Y-88223250D01*
X154636489Y-88177495D01*
X154705647Y-88167551D01*
X154769203Y-88196576D01*
X154786371Y-88214798D01*
X154796718Y-88228282D01*
X154922159Y-88324536D01*
X155068238Y-88385044D01*
X155101599Y-88389436D01*
X155224999Y-88405682D01*
X155225000Y-88405682D01*
X155225001Y-88405682D01*
X155277254Y-88398802D01*
X155381762Y-88385044D01*
X155527841Y-88324536D01*
X155653282Y-88228282D01*
X155749536Y-88102841D01*
X155810044Y-87956762D01*
X155826148Y-87834442D01*
X155830682Y-87800001D01*
X155830682Y-87799998D01*
X155811271Y-87652556D01*
X155810044Y-87643238D01*
X155749536Y-87497159D01*
X155653282Y-87371718D01*
X155527841Y-87275464D01*
X155381762Y-87214956D01*
X155381760Y-87214955D01*
X155225001Y-87194318D01*
X155224999Y-87194318D01*
X155068239Y-87214955D01*
X155068237Y-87214956D01*
X154922158Y-87275464D01*
X154866687Y-87318028D01*
X154801518Y-87343221D01*
X154733073Y-87329182D01*
X154683084Y-87280368D01*
X154667422Y-87212276D01*
X154691058Y-87146526D01*
X154692762Y-87144248D01*
X154724536Y-87102841D01*
X154785044Y-86956762D01*
X154792517Y-86900001D01*
X157594318Y-86900001D01*
X157614955Y-87056760D01*
X157614956Y-87056762D01*
X157671933Y-87194318D01*
X157675464Y-87202841D01*
X157771718Y-87328282D01*
X157897159Y-87424536D01*
X158043238Y-87485044D01*
X158095634Y-87491942D01*
X158199999Y-87505682D01*
X158200000Y-87505682D01*
X158200001Y-87505682D01*
X158243152Y-87500001D01*
X168594318Y-87500001D01*
X168614955Y-87656760D01*
X168614956Y-87656762D01*
X168674287Y-87800001D01*
X168675464Y-87802841D01*
X168771718Y-87928282D01*
X168897159Y-88024536D01*
X169043238Y-88085044D01*
X169105478Y-88093238D01*
X169199999Y-88105682D01*
X169200000Y-88105682D01*
X169200001Y-88105682D01*
X169294514Y-88093239D01*
X169356762Y-88085044D01*
X169502841Y-88024536D01*
X169628282Y-87928282D01*
X169724536Y-87802841D01*
X169785044Y-87656762D01*
X169805682Y-87500000D01*
X169785044Y-87343238D01*
X169724536Y-87197159D01*
X169628282Y-87071718D01*
X169502841Y-86975464D01*
X169457690Y-86956762D01*
X169356762Y-86914956D01*
X169356760Y-86914955D01*
X169200001Y-86894318D01*
X169199999Y-86894318D01*
X169043239Y-86914955D01*
X169043237Y-86914956D01*
X168897160Y-86975463D01*
X168771718Y-87071718D01*
X168675463Y-87197160D01*
X168614956Y-87343237D01*
X168614955Y-87343239D01*
X168594318Y-87499998D01*
X168594318Y-87500001D01*
X158243152Y-87500001D01*
X158264739Y-87497159D01*
X158356762Y-87485044D01*
X158502841Y-87424536D01*
X158628282Y-87328282D01*
X158724536Y-87202841D01*
X158785044Y-87056762D01*
X158805682Y-86900000D01*
X158785044Y-86743238D01*
X158724536Y-86597159D01*
X158628282Y-86471718D01*
X158502841Y-86375464D01*
X158493797Y-86371718D01*
X158356762Y-86314956D01*
X158356760Y-86314955D01*
X158200001Y-86294318D01*
X158199999Y-86294318D01*
X158043239Y-86314955D01*
X158043237Y-86314956D01*
X157897160Y-86375463D01*
X157771718Y-86471718D01*
X157675463Y-86597160D01*
X157614956Y-86743237D01*
X157614955Y-86743239D01*
X157594318Y-86899998D01*
X157594318Y-86900001D01*
X154792517Y-86900001D01*
X154805682Y-86800000D01*
X154785044Y-86643238D01*
X154724536Y-86497159D01*
X154628282Y-86371718D01*
X154502841Y-86275464D01*
X154356762Y-86214956D01*
X154356760Y-86214955D01*
X154200001Y-86194318D01*
X154199999Y-86194318D01*
X154043239Y-86214955D01*
X154043237Y-86214956D01*
X153897160Y-86275463D01*
X153771718Y-86371718D01*
X153675463Y-86497160D01*
X153614956Y-86643237D01*
X153614955Y-86643239D01*
X153594318Y-86799998D01*
X153594318Y-86800001D01*
X153614955Y-86956760D01*
X153614956Y-86956762D01*
X153656376Y-87056760D01*
X153675464Y-87102841D01*
X153771718Y-87228282D01*
X153787486Y-87240381D01*
X153828688Y-87296805D01*
X153836000Y-87338756D01*
X153836000Y-88297864D01*
X153816315Y-88364903D01*
X153799681Y-88385545D01*
X153585545Y-88599681D01*
X153524222Y-88633166D01*
X153497864Y-88636000D01*
X150305226Y-88636000D01*
X150238187Y-88616315D01*
X150217545Y-88599681D01*
X150068623Y-88450759D01*
X150035138Y-88389436D01*
X150040122Y-88319744D01*
X150080818Y-88264702D01*
X150099981Y-88249998D01*
X150128282Y-88228282D01*
X150224536Y-88102841D01*
X150285044Y-87956762D01*
X150301148Y-87834442D01*
X150305682Y-87800001D01*
X150305682Y-87799998D01*
X150286271Y-87652556D01*
X150285044Y-87643238D01*
X150224536Y-87497159D01*
X150128282Y-87371718D01*
X150002841Y-87275464D01*
X149856762Y-87214956D01*
X149856760Y-87214955D01*
X149700002Y-87194318D01*
X149699998Y-87194318D01*
X149680293Y-87196912D01*
X149611258Y-87186146D01*
X149576428Y-87161654D01*
X149314775Y-86900001D01*
X151394318Y-86900001D01*
X151414955Y-87056760D01*
X151414956Y-87056762D01*
X151471933Y-87194318D01*
X151475464Y-87202841D01*
X151571718Y-87328282D01*
X151697159Y-87424536D01*
X151843238Y-87485044D01*
X151895634Y-87491942D01*
X151999999Y-87505682D01*
X152000000Y-87505682D01*
X152000001Y-87505682D01*
X152064739Y-87497159D01*
X152156762Y-87485044D01*
X152302841Y-87424536D01*
X152428282Y-87328282D01*
X152524536Y-87202841D01*
X152585044Y-87056762D01*
X152605682Y-86900000D01*
X152585044Y-86743238D01*
X152524536Y-86597159D01*
X152428282Y-86471718D01*
X152302841Y-86375464D01*
X152293797Y-86371718D01*
X152156762Y-86314956D01*
X152156760Y-86314955D01*
X152000001Y-86294318D01*
X151999999Y-86294318D01*
X151843239Y-86314955D01*
X151843237Y-86314956D01*
X151697160Y-86375463D01*
X151571718Y-86471718D01*
X151475463Y-86597160D01*
X151414956Y-86743237D01*
X151414955Y-86743239D01*
X151394318Y-86899998D01*
X151394318Y-86900001D01*
X149314775Y-86900001D01*
X147914775Y-85500001D01*
X164394318Y-85500001D01*
X164414955Y-85656760D01*
X164414956Y-85656762D01*
X164453576Y-85750000D01*
X164475464Y-85802841D01*
X164571718Y-85928282D01*
X164697159Y-86024536D01*
X164843238Y-86085044D01*
X164921619Y-86095363D01*
X164999999Y-86105682D01*
X165000000Y-86105682D01*
X165000001Y-86105682D01*
X165052254Y-86098802D01*
X165156762Y-86085044D01*
X165302841Y-86024536D01*
X165428282Y-85928282D01*
X165524536Y-85802841D01*
X165546423Y-85750001D01*
X174894318Y-85750001D01*
X174914955Y-85906760D01*
X174914956Y-85906762D01*
X174953576Y-86000000D01*
X174975464Y-86052841D01*
X175071718Y-86178282D01*
X175197159Y-86274536D01*
X175343238Y-86335044D01*
X175405478Y-86343238D01*
X175499999Y-86355682D01*
X175500000Y-86355682D01*
X175500001Y-86355682D01*
X175594514Y-86343239D01*
X175656762Y-86335044D01*
X175802841Y-86274536D01*
X175928282Y-86178282D01*
X176024536Y-86052841D01*
X176085044Y-85906762D01*
X176105682Y-85750000D01*
X176099473Y-85702841D01*
X176085044Y-85593239D01*
X176085044Y-85593238D01*
X176024536Y-85447159D01*
X175928282Y-85321718D01*
X175802841Y-85225464D01*
X175656762Y-85164956D01*
X175656760Y-85164955D01*
X175500001Y-85144318D01*
X175499999Y-85144318D01*
X175343239Y-85164955D01*
X175343237Y-85164956D01*
X175197160Y-85225463D01*
X175071718Y-85321718D01*
X174975463Y-85447160D01*
X174914956Y-85593237D01*
X174914955Y-85593239D01*
X174894318Y-85749998D01*
X174894318Y-85750001D01*
X165546423Y-85750001D01*
X165585044Y-85656762D01*
X165605682Y-85500000D01*
X165602875Y-85478682D01*
X165585044Y-85343239D01*
X165585044Y-85343238D01*
X165524536Y-85197159D01*
X165428282Y-85071718D01*
X165302841Y-84975464D01*
X165293797Y-84971718D01*
X165156762Y-84914956D01*
X165156760Y-84914955D01*
X165000001Y-84894318D01*
X164999999Y-84894318D01*
X164843239Y-84914955D01*
X164843237Y-84914956D01*
X164697160Y-84975463D01*
X164571718Y-85071718D01*
X164475463Y-85197160D01*
X164414956Y-85343237D01*
X164414955Y-85343239D01*
X164394318Y-85499998D01*
X164394318Y-85500001D01*
X147914775Y-85500001D01*
X146869667Y-84454893D01*
X146836182Y-84393570D01*
X146841166Y-84323878D01*
X146883038Y-84267945D01*
X146948502Y-84243528D01*
X146973528Y-84244272D01*
X147048455Y-84254137D01*
X147048456Y-84254137D01*
X147100709Y-84247257D01*
X147205217Y-84233499D01*
X147351296Y-84172991D01*
X147476737Y-84076737D01*
X147572991Y-83951296D01*
X147594238Y-83900001D01*
X153794318Y-83900001D01*
X153814955Y-84056760D01*
X153814956Y-84056762D01*
X153874287Y-84200001D01*
X153875464Y-84202841D01*
X153971718Y-84328282D01*
X154097159Y-84424536D01*
X154243238Y-84485044D01*
X154321619Y-84495363D01*
X154399999Y-84505682D01*
X154400000Y-84505682D01*
X154400001Y-84505682D01*
X154452254Y-84498802D01*
X154556762Y-84485044D01*
X154702841Y-84424536D01*
X154828282Y-84328282D01*
X154924536Y-84202841D01*
X154925712Y-84200001D01*
X179894318Y-84200001D01*
X179914955Y-84356760D01*
X179914956Y-84356762D01*
X179974287Y-84500001D01*
X179975464Y-84502841D01*
X180071718Y-84628282D01*
X180197159Y-84724536D01*
X180343238Y-84785044D01*
X180413681Y-84794318D01*
X180499999Y-84805682D01*
X180500000Y-84805682D01*
X180500001Y-84805682D01*
X180552254Y-84798802D01*
X180656762Y-84785044D01*
X180802841Y-84724536D01*
X180928282Y-84628282D01*
X181024536Y-84502841D01*
X181085044Y-84356762D01*
X181105682Y-84200000D01*
X181105391Y-84197793D01*
X181085044Y-84043239D01*
X181085044Y-84043238D01*
X181024536Y-83897159D01*
X180928282Y-83771718D01*
X180802841Y-83675464D01*
X180656762Y-83614956D01*
X180656760Y-83614955D01*
X180500001Y-83594318D01*
X180499999Y-83594318D01*
X180343239Y-83614955D01*
X180343237Y-83614956D01*
X180197160Y-83675463D01*
X180071718Y-83771718D01*
X179975463Y-83897160D01*
X179914956Y-84043237D01*
X179914955Y-84043239D01*
X179894318Y-84199998D01*
X179894318Y-84200001D01*
X154925712Y-84200001D01*
X154985044Y-84056762D01*
X155005682Y-83900000D01*
X155001906Y-83871321D01*
X154985044Y-83743239D01*
X154985044Y-83743238D01*
X154924536Y-83597159D01*
X154828282Y-83471718D01*
X154702841Y-83375464D01*
X154556762Y-83314956D01*
X154556760Y-83314955D01*
X154400001Y-83294318D01*
X154399999Y-83294318D01*
X154243239Y-83314955D01*
X154243237Y-83314956D01*
X154097160Y-83375463D01*
X153971718Y-83471718D01*
X153875463Y-83597160D01*
X153814956Y-83743237D01*
X153814955Y-83743239D01*
X153794318Y-83899998D01*
X153794318Y-83900001D01*
X147594238Y-83900001D01*
X147633499Y-83805217D01*
X147654137Y-83648455D01*
X147633499Y-83491693D01*
X147572991Y-83345614D01*
X147476737Y-83220173D01*
X147351296Y-83123919D01*
X147205217Y-83063411D01*
X147205215Y-83063410D01*
X147048456Y-83042773D01*
X147048454Y-83042773D01*
X146891694Y-83063410D01*
X146891692Y-83063411D01*
X146745615Y-83123918D01*
X146679948Y-83174306D01*
X146620173Y-83220173D01*
X146608071Y-83235943D01*
X146551646Y-83277144D01*
X146509698Y-83284455D01*
X146213039Y-83284455D01*
X146146000Y-83264770D01*
X146125358Y-83248136D01*
X144159723Y-81282501D01*
X157394318Y-81282501D01*
X157414955Y-81439260D01*
X157414956Y-81439262D01*
X157475340Y-81585043D01*
X157475464Y-81585341D01*
X157571718Y-81710782D01*
X157697159Y-81807036D01*
X157843238Y-81867544D01*
X157845221Y-81867805D01*
X157999999Y-81888182D01*
X158000000Y-81888182D01*
X158000001Y-81888182D01*
X158052254Y-81881302D01*
X158156762Y-81867544D01*
X158302841Y-81807036D01*
X158428282Y-81710782D01*
X158524536Y-81585341D01*
X158585044Y-81439262D01*
X158605682Y-81282500D01*
X158603157Y-81263324D01*
X158585044Y-81125739D01*
X158585044Y-81125738D01*
X158532962Y-81000001D01*
X166194318Y-81000001D01*
X166214955Y-81156760D01*
X166214956Y-81156762D01*
X166267037Y-81282498D01*
X166275464Y-81302841D01*
X166371718Y-81428282D01*
X166497159Y-81524536D01*
X166643238Y-81585044D01*
X166721619Y-81595363D01*
X166799999Y-81605682D01*
X166800000Y-81605682D01*
X166800001Y-81605682D01*
X166843148Y-81600001D01*
X168194318Y-81600001D01*
X168214955Y-81756760D01*
X168214956Y-81756762D01*
X168260951Y-81867805D01*
X168275464Y-81902841D01*
X168371718Y-82028282D01*
X168497159Y-82124536D01*
X168643238Y-82185044D01*
X168721619Y-82195363D01*
X168799999Y-82205682D01*
X168800000Y-82205682D01*
X168800001Y-82205682D01*
X168852254Y-82198802D01*
X168956762Y-82185044D01*
X169102841Y-82124536D01*
X169228282Y-82028282D01*
X169324536Y-81902841D01*
X169385044Y-81756762D01*
X169405682Y-81600000D01*
X169399473Y-81552841D01*
X169385044Y-81443239D01*
X169385044Y-81443238D01*
X169324536Y-81297159D01*
X169228282Y-81171718D01*
X169102841Y-81075464D01*
X169048224Y-81052841D01*
X168956762Y-81014956D01*
X168956760Y-81014955D01*
X168800001Y-80994318D01*
X168799999Y-80994318D01*
X168643239Y-81014955D01*
X168643237Y-81014956D01*
X168497160Y-81075463D01*
X168371718Y-81171718D01*
X168275463Y-81297160D01*
X168214956Y-81443237D01*
X168214955Y-81443239D01*
X168194318Y-81599998D01*
X168194318Y-81600001D01*
X166843148Y-81600001D01*
X166852254Y-81598802D01*
X166956762Y-81585044D01*
X167102841Y-81524536D01*
X167228282Y-81428282D01*
X167324536Y-81302841D01*
X167385044Y-81156762D01*
X167398802Y-81052254D01*
X167405682Y-81000001D01*
X167405682Y-80999998D01*
X167390614Y-80885545D01*
X167385044Y-80843238D01*
X167325713Y-80700001D01*
X171594318Y-80700001D01*
X171614955Y-80856760D01*
X171614956Y-80856762D01*
X171674287Y-81000001D01*
X171675464Y-81002841D01*
X171771718Y-81128282D01*
X171897159Y-81224536D01*
X172043238Y-81285044D01*
X172121619Y-81295363D01*
X172199999Y-81305682D01*
X172200000Y-81305682D01*
X172200001Y-81305682D01*
X172264739Y-81297159D01*
X172356762Y-81285044D01*
X172502841Y-81224536D01*
X172628282Y-81128282D01*
X172724536Y-81002841D01*
X172725712Y-81000001D01*
X185594318Y-81000001D01*
X185614955Y-81156760D01*
X185614956Y-81156762D01*
X185667037Y-81282498D01*
X185675464Y-81302841D01*
X185771718Y-81428282D01*
X185897159Y-81524536D01*
X186043238Y-81585044D01*
X186121619Y-81595363D01*
X186199999Y-81605682D01*
X186200000Y-81605682D01*
X186200001Y-81605682D01*
X186252254Y-81598802D01*
X186356762Y-81585044D01*
X186502841Y-81524536D01*
X186628282Y-81428282D01*
X186724536Y-81302841D01*
X186785044Y-81156762D01*
X186798802Y-81052254D01*
X186805682Y-81000001D01*
X186805682Y-80999998D01*
X186790614Y-80885545D01*
X186785044Y-80843238D01*
X186724536Y-80697159D01*
X186628282Y-80571718D01*
X186502841Y-80475464D01*
X186356762Y-80414956D01*
X186356760Y-80414955D01*
X186200001Y-80394318D01*
X186199999Y-80394318D01*
X186043239Y-80414955D01*
X186043237Y-80414956D01*
X185897160Y-80475463D01*
X185771718Y-80571718D01*
X185675463Y-80697160D01*
X185614956Y-80843237D01*
X185614955Y-80843239D01*
X185594318Y-80999998D01*
X185594318Y-81000001D01*
X172725712Y-81000001D01*
X172785044Y-80856762D01*
X172805682Y-80700000D01*
X172801068Y-80664956D01*
X172785044Y-80543239D01*
X172785044Y-80543238D01*
X172724536Y-80397159D01*
X172628282Y-80271718D01*
X172502841Y-80175464D01*
X172477472Y-80164956D01*
X172356762Y-80114956D01*
X172356760Y-80114955D01*
X172200001Y-80094318D01*
X172199999Y-80094318D01*
X172043239Y-80114955D01*
X172043237Y-80114956D01*
X171897160Y-80175463D01*
X171771718Y-80271718D01*
X171675463Y-80397160D01*
X171614956Y-80543237D01*
X171614955Y-80543239D01*
X171594318Y-80699998D01*
X171594318Y-80700001D01*
X167325713Y-80700001D01*
X167324536Y-80697159D01*
X167228282Y-80571718D01*
X167102841Y-80475464D01*
X166956762Y-80414956D01*
X166956760Y-80414955D01*
X166800001Y-80394318D01*
X166799999Y-80394318D01*
X166643239Y-80414955D01*
X166643237Y-80414956D01*
X166497160Y-80475463D01*
X166371718Y-80571718D01*
X166275463Y-80697160D01*
X166214956Y-80843237D01*
X166214955Y-80843239D01*
X166194318Y-80999998D01*
X166194318Y-81000001D01*
X158532962Y-81000001D01*
X158524536Y-80979659D01*
X158428282Y-80854218D01*
X158302841Y-80757964D01*
X158283614Y-80750000D01*
X158156762Y-80697456D01*
X158156760Y-80697455D01*
X158000001Y-80676818D01*
X157999999Y-80676818D01*
X157843239Y-80697455D01*
X157843237Y-80697456D01*
X157697160Y-80757963D01*
X157571718Y-80854218D01*
X157475463Y-80979660D01*
X157414956Y-81125737D01*
X157414955Y-81125739D01*
X157394318Y-81282498D01*
X157394318Y-81282501D01*
X144159723Y-81282501D01*
X141977223Y-79100001D01*
X169594318Y-79100001D01*
X169614955Y-79256760D01*
X169614956Y-79256762D01*
X169650775Y-79343238D01*
X169675464Y-79402841D01*
X169771718Y-79528282D01*
X169897159Y-79624536D01*
X170043238Y-79685044D01*
X170121619Y-79695363D01*
X170199999Y-79705682D01*
X170200000Y-79705682D01*
X170200001Y-79705682D01*
X170252254Y-79698802D01*
X170356762Y-79685044D01*
X170502841Y-79624536D01*
X170628282Y-79528282D01*
X170724536Y-79402841D01*
X170785044Y-79256762D01*
X170802625Y-79123221D01*
X170805682Y-79100001D01*
X170805682Y-79099998D01*
X170785044Y-78943239D01*
X170785044Y-78943238D01*
X170724536Y-78797159D01*
X170628282Y-78671718D01*
X170502841Y-78575464D01*
X170448224Y-78552841D01*
X170356762Y-78514956D01*
X170356760Y-78514955D01*
X170200001Y-78494318D01*
X170199999Y-78494318D01*
X170043239Y-78514955D01*
X170043237Y-78514956D01*
X169897160Y-78575463D01*
X169771718Y-78671718D01*
X169675463Y-78797160D01*
X169614956Y-78943237D01*
X169614955Y-78943239D01*
X169594318Y-79099998D01*
X169594318Y-79100001D01*
X141977223Y-79100001D01*
X139627223Y-76750001D01*
X153894318Y-76750001D01*
X153914955Y-76906760D01*
X153914956Y-76906762D01*
X153953576Y-77000000D01*
X153975464Y-77052841D01*
X154071718Y-77178282D01*
X154197159Y-77274536D01*
X154343238Y-77335044D01*
X154421619Y-77345363D01*
X154499999Y-77355682D01*
X154500000Y-77355682D01*
X154500001Y-77355682D01*
X154552254Y-77348802D01*
X154656762Y-77335044D01*
X154802841Y-77274536D01*
X154928282Y-77178282D01*
X155024536Y-77052841D01*
X155046423Y-77000001D01*
X163694318Y-77000001D01*
X163714955Y-77156760D01*
X163714956Y-77156762D01*
X163774287Y-77300001D01*
X163775464Y-77302841D01*
X163871718Y-77428282D01*
X163997159Y-77524536D01*
X164143238Y-77585044D01*
X164221619Y-77595363D01*
X164299999Y-77605682D01*
X164300000Y-77605682D01*
X164300001Y-77605682D01*
X164364739Y-77597159D01*
X164456762Y-77585044D01*
X164602841Y-77524536D01*
X164728282Y-77428282D01*
X164824536Y-77302841D01*
X164885044Y-77156762D01*
X164905363Y-77002422D01*
X164905682Y-77000001D01*
X164905682Y-76999998D01*
X164885044Y-76843239D01*
X164885044Y-76843238D01*
X164824536Y-76697159D01*
X164728282Y-76571718D01*
X164634818Y-76500001D01*
X175894318Y-76500001D01*
X175914955Y-76656760D01*
X175914956Y-76656762D01*
X175969041Y-76787336D01*
X175975464Y-76802841D01*
X176071718Y-76928282D01*
X176197159Y-77024536D01*
X176343238Y-77085044D01*
X176421619Y-77095363D01*
X176499999Y-77105682D01*
X176500000Y-77105682D01*
X176500001Y-77105682D01*
X176552254Y-77098802D01*
X176656762Y-77085044D01*
X176802841Y-77024536D01*
X176928282Y-76928282D01*
X177024536Y-76802841D01*
X177085044Y-76656762D01*
X177104669Y-76507696D01*
X177105682Y-76500001D01*
X177105682Y-76499998D01*
X177085044Y-76343239D01*
X177085044Y-76343238D01*
X177024536Y-76197159D01*
X176928282Y-76071718D01*
X176834818Y-76000001D01*
X183194318Y-76000001D01*
X183214955Y-76156760D01*
X183214956Y-76156762D01*
X183253576Y-76250000D01*
X183275464Y-76302841D01*
X183371718Y-76428282D01*
X183497159Y-76524536D01*
X183643238Y-76585044D01*
X183705478Y-76593238D01*
X183799999Y-76605682D01*
X183800000Y-76605682D01*
X183800001Y-76605682D01*
X183894514Y-76593239D01*
X183956762Y-76585044D01*
X184102841Y-76524536D01*
X184228282Y-76428282D01*
X184324536Y-76302841D01*
X184385044Y-76156762D01*
X184405682Y-76000000D01*
X184404724Y-75992726D01*
X184388547Y-75869846D01*
X184385044Y-75843238D01*
X184324536Y-75697159D01*
X184228282Y-75571718D01*
X184102841Y-75475464D01*
X183956762Y-75414956D01*
X183956760Y-75414955D01*
X183800001Y-75394318D01*
X183799999Y-75394318D01*
X183643239Y-75414955D01*
X183643237Y-75414956D01*
X183497160Y-75475463D01*
X183371718Y-75571718D01*
X183275463Y-75697160D01*
X183214956Y-75843237D01*
X183214955Y-75843239D01*
X183194318Y-75999998D01*
X183194318Y-76000001D01*
X176834818Y-76000001D01*
X176802841Y-75975464D01*
X176793797Y-75971718D01*
X176656762Y-75914956D01*
X176656760Y-75914955D01*
X176500001Y-75894318D01*
X176499999Y-75894318D01*
X176343239Y-75914955D01*
X176343237Y-75914956D01*
X176197160Y-75975463D01*
X176071718Y-76071718D01*
X175975463Y-76197160D01*
X175914956Y-76343237D01*
X175914955Y-76343239D01*
X175894318Y-76499998D01*
X175894318Y-76500001D01*
X164634818Y-76500001D01*
X164602841Y-76475464D01*
X164456762Y-76414956D01*
X164456760Y-76414955D01*
X164300001Y-76394318D01*
X164299999Y-76394318D01*
X164143239Y-76414955D01*
X164143237Y-76414956D01*
X163997160Y-76475463D01*
X163871718Y-76571718D01*
X163775463Y-76697160D01*
X163714956Y-76843237D01*
X163714955Y-76843239D01*
X163694318Y-76999998D01*
X163694318Y-77000001D01*
X155046423Y-77000001D01*
X155085044Y-76906762D01*
X155105682Y-76750000D01*
X155101068Y-76714956D01*
X155085044Y-76593239D01*
X155085044Y-76593238D01*
X155024536Y-76447159D01*
X154928282Y-76321718D01*
X154802841Y-76225464D01*
X154779505Y-76215798D01*
X154656762Y-76164956D01*
X154656760Y-76164955D01*
X154500001Y-76144318D01*
X154499999Y-76144318D01*
X154343239Y-76164955D01*
X154343237Y-76164956D01*
X154197160Y-76225463D01*
X154071718Y-76321718D01*
X153975463Y-76447160D01*
X153914956Y-76593237D01*
X153914955Y-76593239D01*
X153894318Y-76749998D01*
X153894318Y-76750001D01*
X139627223Y-76750001D01*
X137627223Y-74750001D01*
X164144318Y-74750001D01*
X164164955Y-74906760D01*
X164164956Y-74906762D01*
X164203576Y-75000000D01*
X164225464Y-75052841D01*
X164321718Y-75178282D01*
X164447159Y-75274536D01*
X164593238Y-75335044D01*
X164671619Y-75345363D01*
X164749999Y-75355682D01*
X164750000Y-75355682D01*
X164750001Y-75355682D01*
X164826497Y-75345611D01*
X164906762Y-75335044D01*
X165052841Y-75274536D01*
X165149977Y-75200001D01*
X180294318Y-75200001D01*
X180314955Y-75356760D01*
X180314956Y-75356762D01*
X180366412Y-75480989D01*
X180375464Y-75502841D01*
X180471718Y-75628282D01*
X180597159Y-75724536D01*
X180743238Y-75785044D01*
X180813347Y-75794274D01*
X180899999Y-75805682D01*
X180900000Y-75805682D01*
X180900001Y-75805682D01*
X180952254Y-75798802D01*
X181056762Y-75785044D01*
X181202841Y-75724536D01*
X181328282Y-75628282D01*
X181424536Y-75502841D01*
X181485044Y-75356762D01*
X181505682Y-75200000D01*
X181503355Y-75182328D01*
X181485044Y-75043239D01*
X181485044Y-75043238D01*
X181424536Y-74897159D01*
X181328282Y-74771718D01*
X181202841Y-74675464D01*
X181056762Y-74614956D01*
X181056760Y-74614955D01*
X180900001Y-74594318D01*
X180899999Y-74594318D01*
X180743239Y-74614955D01*
X180743237Y-74614956D01*
X180597160Y-74675463D01*
X180471718Y-74771718D01*
X180375463Y-74897160D01*
X180314956Y-75043237D01*
X180314955Y-75043239D01*
X180294318Y-75199998D01*
X180294318Y-75200001D01*
X165149977Y-75200001D01*
X165178282Y-75178282D01*
X165274536Y-75052841D01*
X165335044Y-74906762D01*
X165355682Y-74750000D01*
X165348725Y-74697159D01*
X165335044Y-74593239D01*
X165335044Y-74593238D01*
X165274536Y-74447159D01*
X165178282Y-74321718D01*
X165052841Y-74225464D01*
X165027472Y-74214956D01*
X164906762Y-74164956D01*
X164906760Y-74164955D01*
X164750001Y-74144318D01*
X164749999Y-74144318D01*
X164593239Y-74164955D01*
X164593237Y-74164956D01*
X164447160Y-74225463D01*
X164321718Y-74321718D01*
X164225463Y-74447160D01*
X164164956Y-74593237D01*
X164164955Y-74593239D01*
X164144318Y-74749998D01*
X164144318Y-74750001D01*
X137627223Y-74750001D01*
X136392120Y-73514898D01*
X136375992Y-73495037D01*
X136370456Y-73486564D01*
X136370452Y-73486559D01*
X136346429Y-73467861D01*
X136335320Y-73458050D01*
X136335008Y-73457786D01*
X136318663Y-73446115D01*
X136314559Y-73443055D01*
X136274589Y-73411945D01*
X136267852Y-73408300D01*
X136261028Y-73404964D01*
X136244358Y-73400001D01*
X180594318Y-73400001D01*
X180614955Y-73556760D01*
X180614956Y-73556762D01*
X180656376Y-73656760D01*
X180675464Y-73702841D01*
X180771718Y-73828282D01*
X180897159Y-73924536D01*
X181043238Y-73985044D01*
X181095710Y-73991952D01*
X181199999Y-74005682D01*
X181200000Y-74005682D01*
X181200001Y-74005682D01*
X181275692Y-73995717D01*
X181356762Y-73985044D01*
X181502841Y-73924536D01*
X181628282Y-73828282D01*
X181724536Y-73702841D01*
X181785044Y-73556762D01*
X181800763Y-73437361D01*
X181805682Y-73400001D01*
X181805682Y-73399998D01*
X181785044Y-73243239D01*
X181785044Y-73243238D01*
X181724536Y-73097159D01*
X181628282Y-72971718D01*
X181502841Y-72875464D01*
X181356762Y-72814956D01*
X181356760Y-72814955D01*
X181200001Y-72794318D01*
X181199999Y-72794318D01*
X181043239Y-72814955D01*
X181043237Y-72814956D01*
X180897160Y-72875463D01*
X180771718Y-72971718D01*
X180675463Y-73097160D01*
X180614956Y-73243237D01*
X180614955Y-73243239D01*
X180594318Y-73399998D01*
X180594318Y-73400001D01*
X136244358Y-73400001D01*
X136212470Y-73390507D01*
X136207614Y-73388952D01*
X136177482Y-73378608D01*
X136159687Y-73372499D01*
X136152166Y-73371244D01*
X136144593Y-73370300D01*
X136095951Y-73372312D01*
X136093987Y-73372394D01*
X136088865Y-73372500D01*
X124953737Y-73372500D01*
X124886698Y-73352815D01*
X124840943Y-73300011D01*
X124830999Y-73230853D01*
X124860024Y-73167297D01*
X124906285Y-73133939D01*
X124981362Y-73102841D01*
X124989341Y-73099536D01*
X125114782Y-73003282D01*
X125211036Y-72877841D01*
X125271544Y-72731762D01*
X125292182Y-72575000D01*
X125289264Y-72552839D01*
X125275352Y-72447160D01*
X125271544Y-72418238D01*
X125211036Y-72272159D01*
X125114782Y-72146718D01*
X124989341Y-72050464D01*
X124953101Y-72035453D01*
X124843262Y-71989956D01*
X124843260Y-71989955D01*
X124686501Y-71969318D01*
X124686499Y-71969318D01*
X124529739Y-71989955D01*
X124529737Y-71989956D01*
X124383660Y-72050463D01*
X124258218Y-72146718D01*
X124161963Y-72272160D01*
X124101456Y-72418237D01*
X124101455Y-72418239D01*
X124080818Y-72574998D01*
X124080818Y-72575001D01*
X124101455Y-72731760D01*
X124101456Y-72731762D01*
X124147193Y-72842182D01*
X124161964Y-72877841D01*
X124258218Y-73003282D01*
X124383659Y-73099536D01*
X124383660Y-73099536D01*
X124383661Y-73099537D01*
X124466715Y-73133939D01*
X124521119Y-73177780D01*
X124543184Y-73244074D01*
X124525905Y-73311773D01*
X124474768Y-73359384D01*
X124419263Y-73372500D01*
X107335546Y-73372500D01*
X107268507Y-73352815D01*
X107247865Y-73336181D01*
X106161685Y-72250001D01*
X113644318Y-72250001D01*
X113664955Y-72406760D01*
X113664956Y-72406762D01*
X113725464Y-72552841D01*
X113821718Y-72678282D01*
X113947159Y-72774536D01*
X114093238Y-72835044D01*
X114147457Y-72842182D01*
X114249999Y-72855682D01*
X114250000Y-72855682D01*
X114250001Y-72855682D01*
X114302254Y-72848802D01*
X114406762Y-72835044D01*
X114552841Y-72774536D01*
X114678282Y-72678282D01*
X114774536Y-72552841D01*
X114835044Y-72406762D01*
X114855682Y-72250000D01*
X114853904Y-72236498D01*
X114835044Y-72093239D01*
X114835044Y-72093238D01*
X114796424Y-72000001D01*
X117644318Y-72000001D01*
X117664955Y-72156760D01*
X117664956Y-72156762D01*
X117703576Y-72250000D01*
X117725464Y-72302841D01*
X117821718Y-72428282D01*
X117947159Y-72524536D01*
X118093238Y-72585044D01*
X118155478Y-72593238D01*
X118249999Y-72605682D01*
X118250000Y-72605682D01*
X118250001Y-72605682D01*
X118344514Y-72593239D01*
X118406762Y-72585044D01*
X118552841Y-72524536D01*
X118678282Y-72428282D01*
X118774536Y-72302841D01*
X118796423Y-72250001D01*
X121894318Y-72250001D01*
X121914955Y-72406760D01*
X121914956Y-72406762D01*
X121975464Y-72552841D01*
X122071718Y-72678282D01*
X122197159Y-72774536D01*
X122343238Y-72835044D01*
X122397457Y-72842182D01*
X122499999Y-72855682D01*
X122500000Y-72855682D01*
X122500001Y-72855682D01*
X122552254Y-72848802D01*
X122656762Y-72835044D01*
X122802841Y-72774536D01*
X122928282Y-72678282D01*
X123024536Y-72552841D01*
X123085044Y-72406762D01*
X123105682Y-72250000D01*
X123103904Y-72236498D01*
X123085044Y-72093239D01*
X123085044Y-72093238D01*
X123024536Y-71947159D01*
X122928282Y-71821718D01*
X122802841Y-71725464D01*
X122790282Y-71720262D01*
X122656762Y-71664956D01*
X122656760Y-71664955D01*
X122500001Y-71644318D01*
X122499999Y-71644318D01*
X122343239Y-71664955D01*
X122343237Y-71664956D01*
X122197160Y-71725463D01*
X122071718Y-71821718D01*
X121975463Y-71947160D01*
X121914956Y-72093237D01*
X121914955Y-72093239D01*
X121894318Y-72249998D01*
X121894318Y-72250001D01*
X118796423Y-72250001D01*
X118835044Y-72156762D01*
X118855682Y-72000000D01*
X118853912Y-71986559D01*
X118838150Y-71866834D01*
X118835044Y-71843238D01*
X118774536Y-71697159D01*
X118678282Y-71571718D01*
X118552841Y-71475464D01*
X118406762Y-71414956D01*
X118406760Y-71414955D01*
X118250001Y-71394318D01*
X118249999Y-71394318D01*
X118093239Y-71414955D01*
X118093237Y-71414956D01*
X117947160Y-71475463D01*
X117821718Y-71571718D01*
X117725463Y-71697160D01*
X117664956Y-71843237D01*
X117664955Y-71843239D01*
X117644318Y-71999998D01*
X117644318Y-72000001D01*
X114796424Y-72000001D01*
X114774536Y-71947159D01*
X114678282Y-71821718D01*
X114552841Y-71725464D01*
X114540282Y-71720262D01*
X114406762Y-71664956D01*
X114406760Y-71664955D01*
X114250001Y-71644318D01*
X114249999Y-71644318D01*
X114093239Y-71664955D01*
X114093237Y-71664956D01*
X113947160Y-71725463D01*
X113821718Y-71821718D01*
X113725463Y-71947160D01*
X113664956Y-72093237D01*
X113664955Y-72093239D01*
X113644318Y-72249998D01*
X113644318Y-72250001D01*
X106161685Y-72250001D01*
X105926582Y-72014898D01*
X105910454Y-71995037D01*
X105904918Y-71986564D01*
X105904914Y-71986559D01*
X105880891Y-71967861D01*
X105869782Y-71958050D01*
X105869470Y-71957786D01*
X105853125Y-71946115D01*
X105849021Y-71943055D01*
X105809051Y-71911945D01*
X105802314Y-71908300D01*
X105795490Y-71904964D01*
X105746932Y-71890507D01*
X105742076Y-71888952D01*
X105711944Y-71878608D01*
X105694149Y-71872499D01*
X105686628Y-71871244D01*
X105679055Y-71870300D01*
X105630413Y-71872312D01*
X105628449Y-71872394D01*
X105623327Y-71872500D01*
X104481261Y-71872500D01*
X104414222Y-71852815D01*
X104368467Y-71800011D01*
X104358523Y-71730853D01*
X104366698Y-71701050D01*
X104385044Y-71656762D01*
X104405682Y-71500000D01*
X104385044Y-71343238D01*
X104324536Y-71197159D01*
X104228282Y-71071718D01*
X104102841Y-70975464D01*
X104046213Y-70952008D01*
X103981877Y-70925359D01*
X103927474Y-70881518D01*
X103905409Y-70815224D01*
X103905748Y-70808128D01*
X103905682Y-70808128D01*
X103905682Y-70799998D01*
X103887222Y-70659780D01*
X103885044Y-70643238D01*
X103824536Y-70497159D01*
X103728282Y-70371718D01*
X103602841Y-70275464D01*
X103456762Y-70214956D01*
X103456760Y-70214955D01*
X103300001Y-70194318D01*
X103299999Y-70194318D01*
X103143239Y-70214955D01*
X103143237Y-70214956D01*
X102997160Y-70275463D01*
X102953028Y-70309327D01*
X102871718Y-70371718D01*
X102859616Y-70387488D01*
X102803191Y-70428689D01*
X102761243Y-70436000D01*
X102150606Y-70436000D01*
X102125162Y-70433361D01*
X102115251Y-70431283D01*
X102115248Y-70431283D01*
X102085045Y-70435048D01*
X102070220Y-70435968D01*
X102069845Y-70435999D01*
X102069839Y-70436000D01*
X102069838Y-70436000D01*
X102050030Y-70439304D01*
X102044971Y-70440041D01*
X101994701Y-70446308D01*
X101987385Y-70448485D01*
X101980174Y-70450961D01*
X101935612Y-70475077D01*
X101931057Y-70477422D01*
X101885567Y-70499661D01*
X101879323Y-70504118D01*
X101873335Y-70508779D01*
X101839009Y-70546066D01*
X101835463Y-70549761D01*
X99485545Y-72899681D01*
X99424222Y-72933166D01*
X99397864Y-72936000D01*
X96650606Y-72936000D01*
X96625162Y-72933361D01*
X96615251Y-72931283D01*
X96615248Y-72931283D01*
X96585045Y-72935048D01*
X96570220Y-72935968D01*
X96569845Y-72935999D01*
X96569839Y-72936000D01*
X96569838Y-72936000D01*
X96550030Y-72939304D01*
X96544971Y-72940041D01*
X96494701Y-72946308D01*
X96487385Y-72948485D01*
X96480177Y-72950960D01*
X96471950Y-72955413D01*
X96403621Y-72970008D01*
X96401367Y-72969157D01*
X96379566Y-73000557D01*
X96380291Y-73001225D01*
X96375456Y-73006475D01*
X96374505Y-73007847D01*
X96373360Y-73008753D01*
X96339010Y-73046066D01*
X96335463Y-73049762D01*
X95578396Y-73806828D01*
X95558544Y-73822951D01*
X95550059Y-73828494D01*
X95531354Y-73852525D01*
X95521546Y-73863632D01*
X95521283Y-73863943D01*
X95509622Y-73880274D01*
X95506566Y-73884372D01*
X95475443Y-73924360D01*
X95471820Y-73931054D01*
X95468464Y-73937919D01*
X95454012Y-73986461D01*
X95452450Y-73991335D01*
X95435999Y-74039258D01*
X95434749Y-74046749D01*
X95433800Y-74054356D01*
X95435894Y-74104958D01*
X95436000Y-74110083D01*
X95436000Y-79095041D01*
X95416315Y-79162080D01*
X95363511Y-79207835D01*
X95294353Y-79217779D01*
X95264548Y-79209602D01*
X95156765Y-79164957D01*
X95156760Y-79164955D01*
X95000001Y-79144318D01*
X94999999Y-79144318D01*
X94958147Y-79149828D01*
X94843238Y-79164956D01*
X94843237Y-79164956D01*
X94835180Y-79166017D01*
X94834886Y-79163787D01*
X94776704Y-79162393D01*
X94718848Y-79123221D01*
X94691355Y-79058988D01*
X94699918Y-78996837D01*
X94736589Y-78908307D01*
X94757227Y-78751545D01*
X94736589Y-78594783D01*
X94676081Y-78448704D01*
X94579827Y-78323263D01*
X94579825Y-78323262D01*
X94579825Y-78323261D01*
X94577803Y-78321710D01*
X94575509Y-78319949D01*
X94534305Y-78263525D01*
X94530148Y-78193779D01*
X94536429Y-78174126D01*
X94585044Y-78056762D01*
X94599474Y-77947157D01*
X94605682Y-77900001D01*
X94605682Y-77899998D01*
X94585044Y-77743239D01*
X94585044Y-77743238D01*
X94524536Y-77597159D01*
X94428282Y-77471718D01*
X94302841Y-77375464D01*
X94285398Y-77368239D01*
X94239439Y-77349202D01*
X94156762Y-77314956D01*
X94132131Y-77311713D01*
X93997590Y-77294000D01*
X93933694Y-77265733D01*
X93895223Y-77207409D01*
X93890838Y-77187251D01*
X93885044Y-77143238D01*
X93824536Y-76997159D01*
X93728282Y-76871718D01*
X93602841Y-76775464D01*
X93456762Y-76714956D01*
X93456760Y-76714955D01*
X93300001Y-76694318D01*
X93299999Y-76694318D01*
X93143239Y-76714955D01*
X93143237Y-76714956D01*
X92997160Y-76775463D01*
X92871718Y-76871718D01*
X92775463Y-76997160D01*
X92714956Y-77143237D01*
X92714955Y-77143239D01*
X92694318Y-77299998D01*
X92694318Y-77300001D01*
X92714955Y-77456760D01*
X92714956Y-77456762D01*
X92775464Y-77602842D01*
X92824643Y-77666933D01*
X92849837Y-77732102D01*
X92835799Y-77800547D01*
X92824643Y-77817905D01*
X92725464Y-77947157D01*
X92664956Y-78093237D01*
X92664955Y-78093239D01*
X92644318Y-78249998D01*
X92644318Y-78250001D01*
X92664955Y-78406760D01*
X92664956Y-78406762D01*
X92725464Y-78552841D01*
X92821718Y-78678282D01*
X92947159Y-78774536D01*
X93093238Y-78835044D01*
X93161266Y-78844000D01*
X93249999Y-78855682D01*
X93250000Y-78855682D01*
X93250001Y-78855682D01*
X93302254Y-78848802D01*
X93406762Y-78835044D01*
X93406765Y-78835042D01*
X93414613Y-78832940D01*
X93415270Y-78835393D01*
X93472101Y-78829278D01*
X93534584Y-78860547D01*
X93564658Y-78903857D01*
X93627009Y-79054387D01*
X93636456Y-79066698D01*
X93661650Y-79131867D01*
X93647612Y-79200312D01*
X93636457Y-79217669D01*
X93575464Y-79297158D01*
X93514956Y-79443237D01*
X93514955Y-79443239D01*
X93494318Y-79599998D01*
X93494318Y-79600001D01*
X93514955Y-79756760D01*
X93514956Y-79756762D01*
X93575464Y-79902841D01*
X93671718Y-80028282D01*
X93797159Y-80124536D01*
X93943238Y-80185044D01*
X94021619Y-80195363D01*
X94099999Y-80205682D01*
X94100000Y-80205682D01*
X94100001Y-80205682D01*
X94152254Y-80198802D01*
X94256762Y-80185044D01*
X94333992Y-80153054D01*
X94410351Y-80121426D01*
X94411561Y-80124347D01*
X94464950Y-80111365D01*
X94530989Y-80134182D01*
X94557490Y-80159741D01*
X94571718Y-80178282D01*
X94697159Y-80274536D01*
X94843238Y-80335044D01*
X94921619Y-80345363D01*
X94999999Y-80355682D01*
X95000000Y-80355682D01*
X95000001Y-80355682D01*
X95052254Y-80348802D01*
X95156762Y-80335044D01*
X95264549Y-80290396D01*
X95334016Y-80282928D01*
X95396495Y-80314203D01*
X95432148Y-80374291D01*
X95436000Y-80404958D01*
X95436000Y-80797864D01*
X95416315Y-80864903D01*
X95399681Y-80885545D01*
X94385545Y-81899681D01*
X94324222Y-81933166D01*
X94297864Y-81936000D01*
X93583930Y-81936000D01*
X93516891Y-81916315D01*
X93485554Y-81887486D01*
X93465783Y-81861719D01*
X93465782Y-81861718D01*
X93340341Y-81765464D01*
X93194262Y-81704956D01*
X93194260Y-81704955D01*
X93037501Y-81684318D01*
X93037499Y-81684318D01*
X92880739Y-81704955D01*
X92880737Y-81704956D01*
X92734660Y-81765463D01*
X92609218Y-81861718D01*
X92512963Y-81987160D01*
X92452456Y-82133237D01*
X92452455Y-82133239D01*
X92431818Y-82289998D01*
X92431818Y-82290001D01*
X92452455Y-82446760D01*
X92452456Y-82446762D01*
X92512964Y-82592841D01*
X92609218Y-82718282D01*
X92734659Y-82814536D01*
X92880738Y-82875044D01*
X92885577Y-82875681D01*
X93037499Y-82895682D01*
X93037500Y-82895682D01*
X93037501Y-82895682D01*
X93089754Y-82888802D01*
X93194262Y-82875044D01*
X93340341Y-82814536D01*
X93465782Y-82718282D01*
X93470210Y-82712511D01*
X93526638Y-82671310D01*
X93568584Y-82664000D01*
X93784312Y-82664000D01*
X93851351Y-82683685D01*
X93897106Y-82736489D01*
X93907050Y-82805647D01*
X93878025Y-82869203D01*
X93871993Y-82875681D01*
X92816203Y-83931469D01*
X92775977Y-83958348D01*
X92734663Y-83975461D01*
X92734658Y-83975464D01*
X92609219Y-84071716D01*
X92512963Y-84197160D01*
X92452456Y-84343237D01*
X92452455Y-84343239D01*
X92431818Y-84499998D01*
X92431818Y-84500001D01*
X90300500Y-84500001D01*
X90300500Y-77525001D01*
X90930818Y-77525001D01*
X90951455Y-77681760D01*
X90951456Y-77681762D01*
X90972307Y-77732102D01*
X91011964Y-77827841D01*
X91108218Y-77953282D01*
X91233659Y-78049536D01*
X91379738Y-78110044D01*
X91458119Y-78120363D01*
X91536499Y-78130682D01*
X91536500Y-78130682D01*
X91536501Y-78130682D01*
X91588754Y-78123802D01*
X91693262Y-78110044D01*
X91839341Y-78049536D01*
X91964782Y-77953282D01*
X92061036Y-77827841D01*
X92121544Y-77681762D01*
X92142182Y-77525000D01*
X92136262Y-77480036D01*
X92121544Y-77368239D01*
X92121544Y-77368238D01*
X92061036Y-77222159D01*
X91996197Y-77137660D01*
X91971005Y-77072494D01*
X91985043Y-77004049D01*
X92033857Y-76954059D01*
X92047123Y-76947615D01*
X92102841Y-76924536D01*
X92228282Y-76828282D01*
X92324536Y-76702841D01*
X92385044Y-76556762D01*
X92404817Y-76406570D01*
X92405682Y-76400001D01*
X92405682Y-76399998D01*
X92392162Y-76297305D01*
X92402928Y-76228270D01*
X92449308Y-76176014D01*
X92453104Y-76173731D01*
X92454381Y-76172992D01*
X92454386Y-76172991D01*
X92579827Y-76076737D01*
X92676081Y-75951296D01*
X92736589Y-75805217D01*
X92757227Y-75648455D01*
X92756767Y-75644960D01*
X92757227Y-75642010D01*
X92757227Y-75640328D01*
X92757489Y-75640328D01*
X92767533Y-75575925D01*
X92813912Y-75523669D01*
X92881181Y-75504784D01*
X92941704Y-75521387D01*
X92947157Y-75524534D01*
X92947159Y-75524536D01*
X93093238Y-75585044D01*
X93171619Y-75595363D01*
X93249999Y-75605682D01*
X93250000Y-75605682D01*
X93250001Y-75605682D01*
X93302254Y-75598802D01*
X93406762Y-75585044D01*
X93552841Y-75524536D01*
X93678282Y-75428282D01*
X93774536Y-75302841D01*
X93835044Y-75156762D01*
X93855682Y-75000000D01*
X93848557Y-74945882D01*
X93859322Y-74876849D01*
X93905702Y-74824593D01*
X93921989Y-74816196D01*
X93923260Y-74815463D01*
X93923262Y-74815460D01*
X93923265Y-74815460D01*
X94048706Y-74719206D01*
X94144960Y-74593765D01*
X94205468Y-74447686D01*
X94226106Y-74290924D01*
X94209236Y-74162785D01*
X94220001Y-74093751D01*
X94266381Y-74041495D01*
X94284712Y-74032044D01*
X94302841Y-74024536D01*
X94428282Y-73928282D01*
X94524536Y-73802841D01*
X94585044Y-73656762D01*
X94605682Y-73500000D01*
X94605681Y-73499995D01*
X94585044Y-73343239D01*
X94585044Y-73343238D01*
X94524536Y-73197159D01*
X94428282Y-73071718D01*
X94302841Y-72975464D01*
X94302839Y-72975463D01*
X94175635Y-72922773D01*
X94121232Y-72878932D01*
X94099167Y-72812637D01*
X94100149Y-72792026D01*
X94105682Y-72750000D01*
X94105682Y-72749998D01*
X94088592Y-72620185D01*
X94085044Y-72593238D01*
X94024536Y-72447159D01*
X93928282Y-72321718D01*
X93802841Y-72225464D01*
X93656762Y-72164956D01*
X93656760Y-72164955D01*
X93500001Y-72144318D01*
X93499999Y-72144318D01*
X93343239Y-72164955D01*
X93343237Y-72164956D01*
X93197160Y-72225463D01*
X93071718Y-72321718D01*
X92975463Y-72447160D01*
X92914956Y-72593237D01*
X92914955Y-72593239D01*
X92894318Y-72749998D01*
X92894318Y-72750001D01*
X92914955Y-72906760D01*
X92914956Y-72906762D01*
X92974188Y-73049762D01*
X92975464Y-73052841D01*
X93071718Y-73178282D01*
X93197159Y-73274536D01*
X93287057Y-73311773D01*
X93324364Y-73327226D01*
X93378767Y-73371067D01*
X93400832Y-73437361D01*
X93399850Y-73457970D01*
X93394318Y-73499995D01*
X93394318Y-73500001D01*
X93411187Y-73628136D01*
X93400421Y-73697171D01*
X93354041Y-73749427D01*
X93335704Y-73758881D01*
X93317585Y-73766386D01*
X93192143Y-73862640D01*
X93095887Y-73988084D01*
X93035380Y-74134161D01*
X93035379Y-74134163D01*
X93014742Y-74290922D01*
X93014742Y-74290926D01*
X93021866Y-74345042D01*
X93011100Y-74414077D01*
X92964720Y-74466332D01*
X92948423Y-74474733D01*
X92947158Y-74475464D01*
X92823732Y-74570172D01*
X92758563Y-74595366D01*
X92690118Y-74581327D01*
X92640128Y-74532513D01*
X92633689Y-74519256D01*
X92624536Y-74497159D01*
X92528282Y-74371718D01*
X92402841Y-74275464D01*
X92320562Y-74241383D01*
X92256762Y-74214956D01*
X92256760Y-74214955D01*
X92100001Y-74194318D01*
X92099999Y-74194318D01*
X91943239Y-74214955D01*
X91943237Y-74214956D01*
X91797160Y-74275463D01*
X91671718Y-74371718D01*
X91575463Y-74497160D01*
X91514956Y-74643237D01*
X91514955Y-74643239D01*
X91494318Y-74799998D01*
X91494318Y-74800001D01*
X91514955Y-74956760D01*
X91514956Y-74956762D01*
X91575464Y-75102842D01*
X91636456Y-75182328D01*
X91661650Y-75247497D01*
X91647612Y-75315942D01*
X91636460Y-75333295D01*
X91627009Y-75345611D01*
X91566501Y-75491692D01*
X91566500Y-75491694D01*
X91545863Y-75648453D01*
X91545863Y-75648457D01*
X91559382Y-75751150D01*
X91548616Y-75820185D01*
X91502236Y-75872440D01*
X91498460Y-75874712D01*
X91497161Y-75875461D01*
X91371719Y-75971716D01*
X91275463Y-76097160D01*
X91214956Y-76243237D01*
X91214955Y-76243239D01*
X91194318Y-76399998D01*
X91194318Y-76400001D01*
X91214955Y-76556760D01*
X91214956Y-76556762D01*
X91271933Y-76694318D01*
X91275464Y-76702841D01*
X91340300Y-76787338D01*
X91365494Y-76852506D01*
X91351456Y-76920950D01*
X91302642Y-76970940D01*
X91289378Y-76977383D01*
X91233662Y-77000462D01*
X91233659Y-77000463D01*
X91233659Y-77000464D01*
X91123433Y-77085043D01*
X91108218Y-77096718D01*
X91011963Y-77222160D01*
X90951456Y-77368237D01*
X90951455Y-77368239D01*
X90930818Y-77524998D01*
X90930818Y-77525001D01*
X90300500Y-77525001D01*
X90300500Y-71563501D01*
X94644318Y-71563501D01*
X94664955Y-71720260D01*
X94664956Y-71720262D01*
X94706980Y-71821718D01*
X94725464Y-71866341D01*
X94821718Y-71991782D01*
X94947159Y-72088036D01*
X95093238Y-72148544D01*
X95250000Y-72169182D01*
X95258460Y-72168068D01*
X95327494Y-72178833D01*
X95379751Y-72225212D01*
X95397585Y-72274821D01*
X95410348Y-72371765D01*
X95414956Y-72406762D01*
X95475464Y-72552841D01*
X95571718Y-72678282D01*
X95697159Y-72774536D01*
X95843238Y-72835044D01*
X95897457Y-72842182D01*
X95999999Y-72855682D01*
X96000000Y-72855682D01*
X96000001Y-72855682D01*
X96039190Y-72850522D01*
X96156762Y-72835044D01*
X96249249Y-72796734D01*
X96307908Y-72790427D01*
X96325583Y-72758347D01*
X96337447Y-72747982D01*
X96358588Y-72731760D01*
X96428282Y-72678282D01*
X96524536Y-72552841D01*
X96585044Y-72406762D01*
X96605682Y-72250000D01*
X96603904Y-72236498D01*
X96585044Y-72093239D01*
X96585044Y-72093238D01*
X96524536Y-71947159D01*
X96428282Y-71821718D01*
X96302841Y-71725464D01*
X96290282Y-71720262D01*
X96156762Y-71664956D01*
X96156760Y-71664955D01*
X96000001Y-71644318D01*
X95999997Y-71644318D01*
X95991532Y-71645432D01*
X95922497Y-71634663D01*
X95870244Y-71588280D01*
X95852414Y-71538677D01*
X95844234Y-71476546D01*
X98370863Y-71476546D01*
X98391500Y-71633305D01*
X98391501Y-71633307D01*
X98452009Y-71779386D01*
X98548263Y-71904827D01*
X98673704Y-72001081D01*
X98819783Y-72061589D01*
X98898164Y-72071908D01*
X98976544Y-72082227D01*
X98976545Y-72082227D01*
X98976546Y-72082227D01*
X99028799Y-72075347D01*
X99133307Y-72061589D01*
X99279386Y-72001081D01*
X99404827Y-71904827D01*
X99501081Y-71779386D01*
X99561589Y-71633307D01*
X99582227Y-71476545D01*
X99561589Y-71319783D01*
X99501081Y-71173704D01*
X99404827Y-71048263D01*
X99279386Y-70952009D01*
X99241596Y-70936356D01*
X99133307Y-70891501D01*
X99133305Y-70891500D01*
X98976546Y-70870863D01*
X98976544Y-70870863D01*
X98819784Y-70891500D01*
X98819782Y-70891501D01*
X98673705Y-70952008D01*
X98548263Y-71048263D01*
X98452008Y-71173705D01*
X98391501Y-71319782D01*
X98391500Y-71319784D01*
X98370863Y-71476543D01*
X98370863Y-71476546D01*
X95844234Y-71476546D01*
X95835044Y-71406739D01*
X95835044Y-71406738D01*
X95774536Y-71260659D01*
X95678282Y-71135218D01*
X95552841Y-71038964D01*
X95406762Y-70978456D01*
X95406760Y-70978455D01*
X95250001Y-70957818D01*
X95249999Y-70957818D01*
X95093239Y-70978455D01*
X95093237Y-70978456D01*
X94947160Y-71038963D01*
X94821718Y-71135218D01*
X94725463Y-71260660D01*
X94664956Y-71406737D01*
X94664955Y-71406739D01*
X94644318Y-71563498D01*
X94644318Y-71563501D01*
X90300500Y-71563501D01*
X90300500Y-70000001D01*
X91394318Y-70000001D01*
X91414955Y-70156760D01*
X91414956Y-70156762D01*
X91475464Y-70302841D01*
X91571718Y-70428282D01*
X91697159Y-70524536D01*
X91843238Y-70585044D01*
X91921619Y-70595363D01*
X91999999Y-70605682D01*
X92000000Y-70605682D01*
X92000001Y-70605682D01*
X92052254Y-70598802D01*
X92156762Y-70585044D01*
X92302841Y-70524536D01*
X92428282Y-70428282D01*
X92524536Y-70302841D01*
X92585044Y-70156762D01*
X92605682Y-70000000D01*
X92585044Y-69843238D01*
X92524536Y-69697159D01*
X92428282Y-69571718D01*
X92302841Y-69475464D01*
X92228454Y-69444652D01*
X92156762Y-69414956D01*
X92156760Y-69414955D01*
X92000001Y-69394318D01*
X91999999Y-69394318D01*
X91843239Y-69414955D01*
X91843237Y-69414956D01*
X91697160Y-69475463D01*
X91571718Y-69571718D01*
X91475463Y-69697160D01*
X91414956Y-69843237D01*
X91414955Y-69843239D01*
X91394318Y-69999998D01*
X91394318Y-70000001D01*
X90300500Y-70000001D01*
X90300500Y-68750000D01*
X104344778Y-68750000D01*
X104363644Y-69037837D01*
X104363646Y-69037849D01*
X104419917Y-69320745D01*
X104419921Y-69320760D01*
X104512642Y-69593905D01*
X104640219Y-69852606D01*
X104640223Y-69852613D01*
X104800478Y-70092452D01*
X104990672Y-70309327D01*
X105207547Y-70499521D01*
X105422634Y-70643237D01*
X105447389Y-70659778D01*
X105706098Y-70787359D01*
X105979247Y-70880081D01*
X106262161Y-70936356D01*
X106550000Y-70955222D01*
X106837839Y-70936356D01*
X107120753Y-70880081D01*
X107393902Y-70787359D01*
X107652611Y-70659778D01*
X107892454Y-70499520D01*
X108109327Y-70309327D01*
X108299520Y-70092454D01*
X108459778Y-69852611D01*
X108587359Y-69593902D01*
X108680081Y-69320753D01*
X108728050Y-69079594D01*
X117049500Y-69079594D01*
X117055685Y-69147657D01*
X117055686Y-69147662D01*
X117055687Y-69147664D01*
X117104485Y-69304263D01*
X117104488Y-69304272D01*
X117189348Y-69444648D01*
X117189351Y-69444652D01*
X117305347Y-69560648D01*
X117305351Y-69560651D01*
X117445727Y-69645511D01*
X117445730Y-69645512D01*
X117602343Y-69694315D01*
X117670406Y-69700500D01*
X117670409Y-69700500D01*
X118529591Y-69700500D01*
X118529594Y-69700500D01*
X118597657Y-69694315D01*
X118754270Y-69645512D01*
X118894653Y-69560648D01*
X119010648Y-69444653D01*
X119095512Y-69304270D01*
X119144315Y-69147657D01*
X119150500Y-69079594D01*
X119589500Y-69079594D01*
X119595685Y-69147657D01*
X119595686Y-69147662D01*
X119595687Y-69147664D01*
X119644485Y-69304263D01*
X119644488Y-69304272D01*
X119729348Y-69444648D01*
X119729351Y-69444652D01*
X119845347Y-69560648D01*
X119845351Y-69560651D01*
X119985727Y-69645511D01*
X119985730Y-69645512D01*
X120142343Y-69694315D01*
X120210406Y-69700500D01*
X120210409Y-69700500D01*
X121069591Y-69700500D01*
X121069594Y-69700500D01*
X121137657Y-69694315D01*
X121294270Y-69645512D01*
X121434653Y-69560648D01*
X121550648Y-69444653D01*
X121635512Y-69304270D01*
X121684315Y-69147657D01*
X121690500Y-69079594D01*
X122129500Y-69079594D01*
X122135685Y-69147657D01*
X122135686Y-69147662D01*
X122135687Y-69147664D01*
X122184485Y-69304263D01*
X122184488Y-69304272D01*
X122269348Y-69444648D01*
X122269351Y-69444652D01*
X122385347Y-69560648D01*
X122385351Y-69560651D01*
X122525727Y-69645511D01*
X122525730Y-69645512D01*
X122682343Y-69694315D01*
X122750406Y-69700500D01*
X122750409Y-69700500D01*
X123609591Y-69700500D01*
X123609594Y-69700500D01*
X123677657Y-69694315D01*
X123834270Y-69645512D01*
X123974653Y-69560648D01*
X124090648Y-69444653D01*
X124175512Y-69304270D01*
X124224315Y-69147657D01*
X124230500Y-69079594D01*
X124669500Y-69079594D01*
X124675685Y-69147657D01*
X124675686Y-69147662D01*
X124675687Y-69147664D01*
X124724485Y-69304263D01*
X124724488Y-69304272D01*
X124809348Y-69444648D01*
X124809351Y-69444652D01*
X124925347Y-69560648D01*
X124925351Y-69560651D01*
X125065727Y-69645511D01*
X125065730Y-69645512D01*
X125222343Y-69694315D01*
X125290406Y-69700500D01*
X125290409Y-69700500D01*
X126149591Y-69700500D01*
X126149594Y-69700500D01*
X126217657Y-69694315D01*
X126374270Y-69645512D01*
X126514653Y-69560648D01*
X126630648Y-69444653D01*
X126715512Y-69304270D01*
X126764315Y-69147657D01*
X126770500Y-69079594D01*
X126770500Y-68750000D01*
X135094778Y-68750000D01*
X135113644Y-69037837D01*
X135113646Y-69037849D01*
X135169917Y-69320745D01*
X135169921Y-69320760D01*
X135262642Y-69593905D01*
X135390219Y-69852606D01*
X135390223Y-69852613D01*
X135550478Y-70092452D01*
X135740672Y-70309327D01*
X135957547Y-70499521D01*
X136172634Y-70643237D01*
X136197389Y-70659778D01*
X136456098Y-70787359D01*
X136729247Y-70880081D01*
X137012161Y-70936356D01*
X137300000Y-70955222D01*
X137587839Y-70936356D01*
X137870753Y-70880081D01*
X138143902Y-70787359D01*
X138402611Y-70659778D01*
X138642454Y-70499520D01*
X138859327Y-70309327D01*
X139049520Y-70092454D01*
X139209778Y-69852611D01*
X139337359Y-69593902D01*
X139430081Y-69320753D01*
X139486356Y-69037839D01*
X139505222Y-68750000D01*
X139486356Y-68462161D01*
X139430081Y-68179247D01*
X139403180Y-68100001D01*
X180794318Y-68100001D01*
X180814955Y-68256760D01*
X180814956Y-68256762D01*
X180856376Y-68356760D01*
X180875464Y-68402841D01*
X180971718Y-68528282D01*
X181097159Y-68624536D01*
X181243238Y-68685044D01*
X181321619Y-68695363D01*
X181399999Y-68705682D01*
X181400000Y-68705682D01*
X181400001Y-68705682D01*
X181452254Y-68698802D01*
X181556762Y-68685044D01*
X181702841Y-68624536D01*
X181710000Y-68619042D01*
X181775163Y-68593846D01*
X181843609Y-68607879D01*
X181864996Y-68623691D01*
X181865271Y-68623334D01*
X181871716Y-68628279D01*
X181871718Y-68628282D01*
X181997159Y-68724536D01*
X182143238Y-68785044D01*
X182221619Y-68795363D01*
X182299999Y-68805682D01*
X182300000Y-68805682D01*
X182300001Y-68805682D01*
X182352254Y-68798802D01*
X182456762Y-68785044D01*
X182602841Y-68724536D01*
X182728282Y-68628282D01*
X182824536Y-68502841D01*
X182885044Y-68356762D01*
X182905682Y-68200000D01*
X182885044Y-68043238D01*
X182824536Y-67897159D01*
X182728282Y-67771718D01*
X182602841Y-67675464D01*
X182593797Y-67671718D01*
X182456762Y-67614956D01*
X182456760Y-67614955D01*
X182300001Y-67594318D01*
X182299999Y-67594318D01*
X182143239Y-67614955D01*
X182143237Y-67614956D01*
X181997157Y-67675464D01*
X181989996Y-67680960D01*
X181924827Y-67706154D01*
X181856382Y-67692115D01*
X181835003Y-67676308D01*
X181834729Y-67676666D01*
X181828283Y-67671720D01*
X181828282Y-67671718D01*
X181702841Y-67575464D01*
X181556762Y-67514956D01*
X181556760Y-67514955D01*
X181400001Y-67494318D01*
X181399999Y-67494318D01*
X181243239Y-67514955D01*
X181243237Y-67514956D01*
X181097160Y-67575463D01*
X180971718Y-67671718D01*
X180875463Y-67797160D01*
X180814956Y-67943237D01*
X180814955Y-67943239D01*
X180794318Y-68099998D01*
X180794318Y-68100001D01*
X139403180Y-68100001D01*
X139337359Y-67906098D01*
X139209778Y-67647389D01*
X139121289Y-67514956D01*
X139049521Y-67407547D01*
X138859327Y-67190672D01*
X138642452Y-67000478D01*
X138402613Y-66840223D01*
X138402606Y-66840219D01*
X138219662Y-66750001D01*
X164144318Y-66750001D01*
X164164955Y-66906760D01*
X164164956Y-66906762D01*
X164203774Y-67000478D01*
X164225464Y-67052841D01*
X164321718Y-67178282D01*
X164447159Y-67274536D01*
X164593238Y-67335044D01*
X164671619Y-67345363D01*
X164749999Y-67355682D01*
X164750000Y-67355682D01*
X164750001Y-67355682D01*
X164802254Y-67348802D01*
X164906762Y-67335044D01*
X165052841Y-67274536D01*
X165178282Y-67178282D01*
X165274536Y-67052841D01*
X165335044Y-66906762D01*
X165355682Y-66750000D01*
X165335044Y-66593238D01*
X165274536Y-66447159D01*
X165178282Y-66321718D01*
X165052841Y-66225464D01*
X164906762Y-66164956D01*
X164906760Y-66164955D01*
X164750001Y-66144318D01*
X164749999Y-66144318D01*
X164593239Y-66164955D01*
X164593237Y-66164956D01*
X164447160Y-66225463D01*
X164321718Y-66321718D01*
X164225463Y-66447160D01*
X164164956Y-66593237D01*
X164164955Y-66593239D01*
X164144318Y-66749998D01*
X164144318Y-66750001D01*
X138219662Y-66750001D01*
X138143905Y-66712642D01*
X137870760Y-66619921D01*
X137870754Y-66619919D01*
X137870753Y-66619919D01*
X137870751Y-66619918D01*
X137870745Y-66619917D01*
X137587849Y-66563646D01*
X137587839Y-66563644D01*
X137300000Y-66544778D01*
X137012161Y-66563644D01*
X137012155Y-66563645D01*
X137012150Y-66563646D01*
X136729254Y-66619917D01*
X136729239Y-66619921D01*
X136456094Y-66712642D01*
X136197393Y-66840219D01*
X136197386Y-66840223D01*
X135957547Y-67000478D01*
X135740672Y-67190672D01*
X135550478Y-67407547D01*
X135390223Y-67647386D01*
X135390219Y-67647393D01*
X135262642Y-67906094D01*
X135169921Y-68179239D01*
X135169917Y-68179254D01*
X135113646Y-68462150D01*
X135113644Y-68462162D01*
X135094778Y-68750000D01*
X126770500Y-68750000D01*
X126770500Y-66720406D01*
X126764315Y-66652343D01*
X126715512Y-66495730D01*
X126715511Y-66495727D01*
X126630651Y-66355351D01*
X126630648Y-66355347D01*
X126514652Y-66239351D01*
X126514648Y-66239348D01*
X126374272Y-66154488D01*
X126374263Y-66154485D01*
X126217664Y-66105687D01*
X126217662Y-66105686D01*
X126217657Y-66105685D01*
X126149594Y-66099500D01*
X125290406Y-66099500D01*
X125222343Y-66105685D01*
X125222339Y-66105686D01*
X125222335Y-66105687D01*
X125065736Y-66154485D01*
X125065727Y-66154488D01*
X124925351Y-66239348D01*
X124925347Y-66239351D01*
X124809351Y-66355347D01*
X124809348Y-66355351D01*
X124724488Y-66495727D01*
X124724485Y-66495736D01*
X124685788Y-66619921D01*
X124675685Y-66652343D01*
X124669500Y-66720406D01*
X124669500Y-69079594D01*
X124230500Y-69079594D01*
X124230500Y-66720406D01*
X124224315Y-66652343D01*
X124175512Y-66495730D01*
X124175511Y-66495727D01*
X124090651Y-66355351D01*
X124090648Y-66355347D01*
X123974652Y-66239351D01*
X123974648Y-66239348D01*
X123834272Y-66154488D01*
X123834263Y-66154485D01*
X123677664Y-66105687D01*
X123677662Y-66105686D01*
X123677657Y-66105685D01*
X123609594Y-66099500D01*
X122750406Y-66099500D01*
X122682343Y-66105685D01*
X122682339Y-66105686D01*
X122682335Y-66105687D01*
X122525736Y-66154485D01*
X122525727Y-66154488D01*
X122385351Y-66239348D01*
X122385347Y-66239351D01*
X122269351Y-66355347D01*
X122269348Y-66355351D01*
X122184488Y-66495727D01*
X122184485Y-66495736D01*
X122145788Y-66619921D01*
X122135685Y-66652343D01*
X122129500Y-66720406D01*
X122129500Y-69079594D01*
X121690500Y-69079594D01*
X121690500Y-66720406D01*
X121684315Y-66652343D01*
X121635512Y-66495730D01*
X121635511Y-66495727D01*
X121550651Y-66355351D01*
X121550648Y-66355347D01*
X121434652Y-66239351D01*
X121434648Y-66239348D01*
X121294272Y-66154488D01*
X121294263Y-66154485D01*
X121137664Y-66105687D01*
X121137662Y-66105686D01*
X121137657Y-66105685D01*
X121069594Y-66099500D01*
X120210406Y-66099500D01*
X120142343Y-66105685D01*
X120142339Y-66105686D01*
X120142335Y-66105687D01*
X119985736Y-66154485D01*
X119985727Y-66154488D01*
X119845351Y-66239348D01*
X119845347Y-66239351D01*
X119729351Y-66355347D01*
X119729348Y-66355351D01*
X119644488Y-66495727D01*
X119644485Y-66495736D01*
X119605788Y-66619921D01*
X119595685Y-66652343D01*
X119589500Y-66720406D01*
X119589500Y-69079594D01*
X119150500Y-69079594D01*
X119150500Y-66720406D01*
X119144315Y-66652343D01*
X119095512Y-66495730D01*
X119095511Y-66495727D01*
X119010651Y-66355351D01*
X119010648Y-66355347D01*
X118894652Y-66239351D01*
X118894648Y-66239348D01*
X118754272Y-66154488D01*
X118754263Y-66154485D01*
X118597664Y-66105687D01*
X118597662Y-66105686D01*
X118597657Y-66105685D01*
X118529594Y-66099500D01*
X117670406Y-66099500D01*
X117602343Y-66105685D01*
X117602339Y-66105686D01*
X117602335Y-66105687D01*
X117445736Y-66154485D01*
X117445727Y-66154488D01*
X117305351Y-66239348D01*
X117305347Y-66239351D01*
X117189351Y-66355347D01*
X117189348Y-66355351D01*
X117104488Y-66495727D01*
X117104485Y-66495736D01*
X117065788Y-66619921D01*
X117055685Y-66652343D01*
X117049500Y-66720406D01*
X117049500Y-69079594D01*
X108728050Y-69079594D01*
X108736356Y-69037839D01*
X108755222Y-68750000D01*
X108736356Y-68462161D01*
X108680081Y-68179247D01*
X108587359Y-67906098D01*
X108459778Y-67647389D01*
X108371289Y-67514956D01*
X108299521Y-67407547D01*
X108109327Y-67190672D01*
X107892452Y-67000478D01*
X107652613Y-66840223D01*
X107652606Y-66840219D01*
X107393905Y-66712642D01*
X107120760Y-66619921D01*
X107120754Y-66619919D01*
X107120753Y-66619919D01*
X107120751Y-66619918D01*
X107120745Y-66619917D01*
X106837849Y-66563646D01*
X106837839Y-66563644D01*
X106550000Y-66544778D01*
X106262161Y-66563644D01*
X106262155Y-66563645D01*
X106262150Y-66563646D01*
X105979254Y-66619917D01*
X105979239Y-66619921D01*
X105706094Y-66712642D01*
X105447393Y-66840219D01*
X105447386Y-66840223D01*
X105207547Y-67000478D01*
X104990672Y-67190672D01*
X104800478Y-67407547D01*
X104640223Y-67647386D01*
X104640219Y-67647393D01*
X104512642Y-67906094D01*
X104419921Y-68179239D01*
X104419917Y-68179254D01*
X104363646Y-68462150D01*
X104363644Y-68462162D01*
X104344778Y-68750000D01*
X90300500Y-68750000D01*
X90300500Y-64003051D01*
X90300649Y-63996967D01*
X90303260Y-63943827D01*
X90318015Y-63643465D01*
X90319208Y-63631359D01*
X90331202Y-63550500D01*
X90369123Y-63294856D01*
X126699500Y-63294856D01*
X126699502Y-63294882D01*
X126702413Y-63319987D01*
X126702415Y-63319991D01*
X126747793Y-63422764D01*
X126747794Y-63422765D01*
X126827235Y-63502206D01*
X126930009Y-63547585D01*
X126955135Y-63550500D01*
X128544864Y-63550499D01*
X128544879Y-63550497D01*
X128544882Y-63550497D01*
X128569987Y-63547586D01*
X128569988Y-63547585D01*
X128569991Y-63547585D01*
X128672765Y-63502206D01*
X128752206Y-63422765D01*
X128797585Y-63319991D01*
X128800500Y-63294865D01*
X128800499Y-61705136D01*
X128800497Y-61705117D01*
X128797586Y-61680012D01*
X128797585Y-61680010D01*
X128797585Y-61680009D01*
X128752206Y-61577235D01*
X128672765Y-61497794D01*
X128672763Y-61497793D01*
X128569992Y-61452415D01*
X128544865Y-61449500D01*
X126955143Y-61449500D01*
X126955117Y-61449502D01*
X126930012Y-61452413D01*
X126930008Y-61452415D01*
X126827235Y-61497793D01*
X126747794Y-61577234D01*
X126702415Y-61680006D01*
X126702415Y-61680008D01*
X126699500Y-61705131D01*
X126699500Y-63294856D01*
X90369123Y-63294856D01*
X90370692Y-63284278D01*
X90373061Y-63272367D01*
X90458322Y-62931986D01*
X90461852Y-62920353D01*
X90580054Y-62590003D01*
X90584710Y-62578762D01*
X90619835Y-62504495D01*
X90734735Y-62261557D01*
X90740454Y-62250857D01*
X90920851Y-61949884D01*
X90927594Y-61939791D01*
X91136630Y-61657939D01*
X91144333Y-61648554D01*
X91379983Y-61388553D01*
X91388553Y-61379983D01*
X91648554Y-61144333D01*
X91657939Y-61136630D01*
X91939791Y-60927594D01*
X91949884Y-60920851D01*
X92250857Y-60740454D01*
X92261557Y-60734735D01*
X92578762Y-60584710D01*
X92589999Y-60580055D01*
X92920361Y-60461849D01*
X92931986Y-60458322D01*
X93272367Y-60373061D01*
X93284278Y-60370692D01*
X93631359Y-60319207D01*
X93643465Y-60318015D01*
X93996967Y-60300648D01*
X94003051Y-60300500D01*
X94047595Y-60300500D01*
X132075500Y-60300500D01*
X132142539Y-60320185D01*
G37*
%TD.AperFunction*%
%TD*%
M02*
