M48
; DRILL file {KiCad 7.0.10-7.0.10~ubuntu22.04.1} date mar 26 mar 2024 22:09:02
; FORMAT={-:-/ absolute / inch / decimal}
; #@! TF.CreationDate,2024-03-26T22:09:02+01:00
; #@! TF.GenerationSoftware,Kicad,Pcbnew,7.0.10-7.0.10~ubuntu22.04.1
; #@! TF.FileFunction,Plated,1,4,PTH
FMAT,2
INCH
; #@! TA.AperFunction,Plated,PTH,ViaDrill
T1C0.0118
; #@! TA.AperFunction,Plated,PTH,ComponentDrill
T2C0.0118
; #@! TA.AperFunction,Plated,PTH,ComponentDrill
T3C0.0197
; #@! TA.AperFunction,Plated,PTH,ComponentDrill
T4C0.0394
; #@! TA.AperFunction,Plated,PTH,ComponentDrill
T5C0.1280
%
G90
G05
T1
X3.5669Y-3.1102
X3.6038Y-3.0522
X3.6142Y-3.0079
X3.622Y-2.7559
X3.626Y-2.9449
X3.628Y-2.9783
X3.6629Y-3.2398
X3.6629Y-3.3268
X3.6713Y-2.9528
X3.6713Y-3.0807
X3.6732Y-3.0433
X3.6732Y-3.378
X3.6811Y-2.8642
X3.6811Y-3.1575
X3.6858Y-2.9248
X3.7008Y-2.8937
X3.7008Y-3.0669
X3.7047Y-3.1339
X3.7068Y-3.1005
X3.7303Y-3.6122
X3.7402Y-3.1398
X3.75Y-2.8175
X3.75Y-3.4744
X3.7795Y-2.8445
X3.8583Y-2.9724
X3.8878Y-3.1791
X3.8967Y-2.814
X3.8976Y-3.6516
X3.9016Y-3.0157
X3.9449Y-3.3307
X3.9469Y-2.9724
X3.9488Y-3.5315
X3.9567Y-3.6516
X4.0059Y-3.6516
X4.0256Y-3.8976
X4.0354Y-3.2382
X4.0444Y-2.7584
X4.0551Y-3.9469
X4.0655Y-2.844
X4.0669Y-2.7874
X4.0748Y-3.3268
X4.0846Y-3.2382
X4.0866Y-2.815
X4.0866Y-2.9921
X4.0925Y-2.8995
X4.0945Y-3.1398
X4.0945Y-3.4528
X4.1081Y-2.9634
X4.1117Y-2.9291
X4.1339Y-3.3268
X4.1417Y-3.4724
X4.1496Y-2.8661
X4.1693Y-2.9843
X4.1748Y-3.0297
X4.2047Y-3.4646
X4.311Y-3.002
X4.4587Y-3.1594
X4.498Y-2.8445
X4.5472Y-3.248
X4.5768Y-2.8445
X4.6555Y-2.8346
X4.7244Y-2.8445
X4.8123Y-3.2409
X4.8228Y-2.8445
X4.8917Y-3.4055
X4.9089Y-2.8573
X4.9213Y-3.1299
X4.9213Y-3.3858
X4.9488Y-3.3415
X4.9685Y-3.4173
X4.9902Y-3.4449
X5.0197Y-3.4213
X5.0394Y-3.1398
X5.0566Y-3.4134
X5.0984Y-3.1988
X5.1063Y-3.3622
X5.1457Y-3.4449
X5.7756Y-3.4882
X5.7893Y-3.2932
X5.8701Y-3.5
X5.8937Y-3.4567
X5.9843Y-3.4213
X6.0079Y-3.5354
X6.0709Y-3.4173
X6.0787Y-3.3031
X6.0827Y-3.0217
X6.1112Y-3.4567
X6.1142Y-3.3819
X6.2205Y-3.2001
X6.2283Y-3.4213
X6.4685Y-3.0315
X6.4862Y-2.628
X6.4862Y-2.9429
X6.4862Y-3.8189
X6.4961Y-3.3661
X6.4961Y-3.4843
X6.5669Y-3.189
X6.6457Y-3.2126
X6.6614Y-3.4449
X6.7008Y-3.1142
X6.7795Y-2.5551
X6.7795Y-3.1772
X6.9094Y-3.376
X6.9252Y-2.5551
X6.9488Y-3.0118
X7.1063Y-3.315
X7.122Y-2.9606
X7.1339Y-2.8898
X7.1417Y-2.6811
X7.1772Y-2.5778
X7.1772Y-2.685
X7.2362Y-2.9921
X7.2441Y-2.5778
X7.3307Y-3.189
T2
X4.9449Y-3.19
X4.9449Y-3.2608
X5.0157Y-3.19
X5.0157Y-3.2608
T4
X4.5748Y-3.7087
X4.6496Y-2.6732
X4.6748Y-3.7087
X4.7496Y-2.6732
X4.7748Y-3.7087
X4.8496Y-2.6732
X4.8748Y-3.7087
X4.9496Y-2.6732
X5.0295Y-2.4606
X5.3543Y-3.0583
X5.3543Y-3.1583
X5.3543Y-3.2583
X5.3543Y-3.3583
T5
X4.1949Y-2.7067
X4.1988Y-3.8091
X5.4055Y-2.7067
X5.4055Y-3.8091
T3
G00X3.5886Y-3.5394
M15
G01X3.6161Y-3.5394
M16
G05
G00X3.5886Y-3.7992
M15
G01X3.6161Y-3.7992
M16
G05
M30
