%TF.GenerationSoftware,KiCad,Pcbnew,7.0.10-7.0.10~ubuntu22.04.1*%
%TF.CreationDate,2024-03-26T22:09:04+01:00*%
%TF.ProjectId,hackbat,6861636b-6261-4742-9e6b-696361645f70,rev?*%
%TF.SameCoordinates,Original*%
%TF.FileFunction,Drillmap*%
%TF.FilePolarity,Positive*%
%FSLAX45Y45*%
G04 Gerber Fmt 4.5, Leading zero omitted, Abs format (unit mm)*
G04 Created by KiCad (PCBNEW 7.0.10-7.0.10~ubuntu22.04.1) date 2024-03-26 22:09:04*
%MOMM*%
%LPD*%
G01*
G04 APERTURE LIST*
%ADD10C,0.100000*%
%ADD11C,0.200000*%
%ADD12C,0.325000*%
G04 APERTURE END LIST*
D10*
X18600000Y-10200000D02*
X9000000Y-10200000D01*
X13250000Y-6000000D02*
X13250000Y-6500000D01*
X19000000Y-6000000D02*
X19000000Y-9800000D01*
X15750000Y-6000000D02*
X15750000Y-6500000D01*
X9400000Y-6000000D02*
X13250000Y-6000000D01*
X9000000Y-10200000D02*
X9000000Y-6400000D01*
X18600000Y-10200000D02*
G75*
G03*
X19000000Y-9800000I0J400000D01*
G01*
X13250000Y-6500000D02*
X15750000Y-6500000D01*
X9400000Y-6000000D02*
G75*
G03*
X9000000Y-6400000I0J-400000D01*
G01*
X15750000Y-6000000D02*
X19000000Y-6000000D01*
D11*
D10*
X9045000Y-7885000D02*
X9075000Y-7915000D01*
X9075000Y-7885000D02*
X9045000Y-7915000D01*
X9138650Y-7737500D02*
X9168650Y-7767500D01*
X9168650Y-7737500D02*
X9138650Y-7767500D01*
X9165000Y-7625000D02*
X9195000Y-7655000D01*
X9195000Y-7625000D02*
X9165000Y-7655000D01*
X9185000Y-6985000D02*
X9215000Y-7015000D01*
X9215000Y-6985000D02*
X9185000Y-7015000D01*
X9195000Y-7465000D02*
X9225000Y-7495000D01*
X9225000Y-7465000D02*
X9195000Y-7495000D01*
X9200155Y-7549845D02*
X9230155Y-7579845D01*
X9230155Y-7549845D02*
X9200155Y-7579845D01*
X9288750Y-8214000D02*
X9318750Y-8244000D01*
X9318750Y-8214000D02*
X9288750Y-8244000D01*
X9288750Y-8435000D02*
X9318750Y-8465000D01*
X9318750Y-8435000D02*
X9288750Y-8465000D01*
X9310000Y-7485000D02*
X9340000Y-7515000D01*
X9340000Y-7485000D02*
X9310000Y-7515000D01*
X9310000Y-7810000D02*
X9340000Y-7840000D01*
X9340000Y-7810000D02*
X9310000Y-7840000D01*
X9315000Y-7715000D02*
X9345000Y-7745000D01*
X9345000Y-7715000D02*
X9315000Y-7745000D01*
X9315000Y-8565000D02*
X9345000Y-8595000D01*
X9345000Y-8565000D02*
X9315000Y-8595000D01*
X9335000Y-7260000D02*
X9365000Y-7290000D01*
X9365000Y-7260000D02*
X9335000Y-7290000D01*
X9335000Y-8005000D02*
X9365000Y-8035000D01*
X9365000Y-8005000D02*
X9335000Y-8035000D01*
X9347042Y-7414092D02*
X9377042Y-7444092D01*
X9377042Y-7414092D02*
X9347042Y-7444092D01*
X9385000Y-7335000D02*
X9415000Y-7365000D01*
X9415000Y-7335000D02*
X9385000Y-7365000D01*
X9385000Y-7775000D02*
X9415000Y-7805000D01*
X9415000Y-7775000D02*
X9385000Y-7805000D01*
X9395000Y-7945000D02*
X9425000Y-7975000D01*
X9425000Y-7945000D02*
X9395000Y-7975000D01*
X9400155Y-7860154D02*
X9430155Y-7890154D01*
X9430155Y-7860154D02*
X9400155Y-7890154D01*
X9460000Y-9160000D02*
X9490000Y-9190000D01*
X9490000Y-9160000D02*
X9460000Y-9190000D01*
X9485000Y-7960000D02*
X9515000Y-7990000D01*
X9515000Y-7960000D02*
X9485000Y-7990000D01*
X9510000Y-7141350D02*
X9540000Y-7171350D01*
X9540000Y-7141350D02*
X9510000Y-7171350D01*
X9510000Y-8810000D02*
X9540000Y-8840000D01*
X9540000Y-8810000D02*
X9510000Y-8840000D01*
X9585000Y-7210000D02*
X9615000Y-7240000D01*
X9615000Y-7210000D02*
X9585000Y-7240000D01*
X9785000Y-7535000D02*
X9815000Y-7565000D01*
X9815000Y-7535000D02*
X9785000Y-7565000D01*
X9860000Y-8060000D02*
X9890000Y-8090000D01*
X9890000Y-8060000D02*
X9860000Y-8090000D01*
X9882655Y-7132654D02*
X9912655Y-7162654D01*
X9912655Y-7132654D02*
X9882655Y-7162654D01*
X9885000Y-9260000D02*
X9915000Y-9290000D01*
X9915000Y-9260000D02*
X9885000Y-9290000D01*
X9895000Y-7645000D02*
X9925000Y-7675000D01*
X9925000Y-7645000D02*
X9895000Y-7675000D01*
X10005000Y-8445000D02*
X10035000Y-8475000D01*
X10035000Y-8445000D02*
X10005000Y-8475000D01*
X10010000Y-7535000D02*
X10040000Y-7565000D01*
X10040000Y-7535000D02*
X10010000Y-7565000D01*
X10015000Y-8955000D02*
X10045000Y-8985000D01*
X10045000Y-8955000D02*
X10015000Y-8985000D01*
X10035000Y-9260000D02*
X10065000Y-9290000D01*
X10065000Y-9260000D02*
X10035000Y-9290000D01*
X10160000Y-9260000D02*
X10190000Y-9290000D01*
X10190000Y-9260000D02*
X10160000Y-9290000D01*
X10210000Y-9885000D02*
X10240000Y-9915000D01*
X10240000Y-9885000D02*
X10210000Y-9915000D01*
X10235000Y-8210000D02*
X10265000Y-8240000D01*
X10265000Y-8210000D02*
X10235000Y-8240000D01*
X10257822Y-6991461D02*
X10287822Y-7021461D01*
X10287822Y-6991461D02*
X10257822Y-7021461D01*
X10285000Y-10010000D02*
X10315000Y-10040000D01*
X10315000Y-10010000D02*
X10285000Y-10040000D01*
X10311350Y-7208650D02*
X10341350Y-7238650D01*
X10341350Y-7208650D02*
X10311350Y-7238650D01*
X10315000Y-7065000D02*
X10345000Y-7095000D01*
X10345000Y-7065000D02*
X10315000Y-7095000D01*
X10335000Y-8435000D02*
X10365000Y-8465000D01*
X10365000Y-8435000D02*
X10335000Y-8465000D01*
X10360000Y-8210000D02*
X10390000Y-8240000D01*
X10390000Y-8210000D02*
X10360000Y-8240000D01*
X10365000Y-7135000D02*
X10395000Y-7165000D01*
X10395000Y-7135000D02*
X10365000Y-7165000D01*
X10365000Y-7585000D02*
X10395000Y-7615000D01*
X10395000Y-7585000D02*
X10365000Y-7615000D01*
X10379846Y-7349845D02*
X10409846Y-7379845D01*
X10409846Y-7349845D02*
X10379846Y-7379845D01*
X10385000Y-7960000D02*
X10415000Y-7990000D01*
X10415000Y-7960000D02*
X10385000Y-7990000D01*
X10385000Y-8755000D02*
X10415000Y-8785000D01*
X10415000Y-8755000D02*
X10385000Y-8785000D01*
X10419621Y-7511974D02*
X10449621Y-7541974D01*
X10449621Y-7511974D02*
X10419621Y-7541974D01*
X10428650Y-7424845D02*
X10458650Y-7454845D01*
X10458650Y-7424845D02*
X10428650Y-7454845D01*
X10485000Y-8435000D02*
X10515000Y-8465000D01*
X10515000Y-8435000D02*
X10485000Y-8465000D01*
X10505000Y-8805000D02*
X10535000Y-8835000D01*
X10535000Y-8805000D02*
X10505000Y-8835000D01*
X10525000Y-7265000D02*
X10555000Y-7295000D01*
X10555000Y-7265000D02*
X10525000Y-7295000D01*
X10575000Y-7565000D02*
X10605000Y-7595000D01*
X10605000Y-7565000D02*
X10575000Y-7595000D01*
X10589029Y-7680550D02*
X10619029Y-7710550D01*
X10619029Y-7680550D02*
X10589029Y-7710550D01*
X10665000Y-8785000D02*
X10695000Y-8815000D01*
X10695000Y-8785000D02*
X10665000Y-8815000D01*
X10935000Y-7610000D02*
X10965000Y-7640000D01*
X10965000Y-7610000D02*
X10935000Y-7640000D01*
X11310000Y-8010000D02*
X11340000Y-8040000D01*
X11340000Y-8010000D02*
X11310000Y-8040000D01*
X11410000Y-7210000D02*
X11440000Y-7240000D01*
X11440000Y-7210000D02*
X11410000Y-7240000D01*
X11535000Y-8235000D02*
X11565000Y-8265000D01*
X11565000Y-8235000D02*
X11535000Y-8265000D01*
X11610000Y-7210000D02*
X11640000Y-7240000D01*
X11640000Y-7210000D02*
X11610000Y-7240000D01*
X11810000Y-7185000D02*
X11840000Y-7215000D01*
X11840000Y-7185000D02*
X11810000Y-7215000D01*
X11985000Y-7210000D02*
X12015000Y-7240000D01*
X12015000Y-7210000D02*
X11985000Y-7240000D01*
X12208318Y-8217000D02*
X12238318Y-8247000D01*
X12238318Y-8217000D02*
X12208318Y-8247000D01*
X12235000Y-7210000D02*
X12265000Y-7240000D01*
X12265000Y-7210000D02*
X12235000Y-7240000D01*
X12410000Y-8635000D02*
X12440000Y-8665000D01*
X12440000Y-8635000D02*
X12410000Y-8665000D01*
X12453650Y-7242500D02*
X12483650Y-7272500D01*
X12483650Y-7242500D02*
X12453650Y-7272500D01*
X12485000Y-7935000D02*
X12515000Y-7965000D01*
X12515000Y-7935000D02*
X12485000Y-7965000D01*
X12485000Y-8585000D02*
X12515000Y-8615000D01*
X12515000Y-8585000D02*
X12485000Y-8615000D01*
X12555000Y-8472300D02*
X12585000Y-8502300D01*
X12585000Y-8472300D02*
X12555000Y-8502300D01*
X12605000Y-8665000D02*
X12635000Y-8695000D01*
X12635000Y-8665000D02*
X12605000Y-8695000D01*
X12660000Y-8735000D02*
X12690000Y-8765000D01*
X12690000Y-8735000D02*
X12660000Y-8765000D01*
X12735000Y-8675000D02*
X12765000Y-8705000D01*
X12765000Y-8675000D02*
X12735000Y-8705000D01*
X12785000Y-7960000D02*
X12815000Y-7990000D01*
X12815000Y-7960000D02*
X12785000Y-7990000D01*
X12828650Y-8655000D02*
X12858650Y-8685000D01*
X12858650Y-8655000D02*
X12828650Y-8685000D01*
X12935000Y-8110000D02*
X12965000Y-8140000D01*
X12965000Y-8110000D02*
X12935000Y-8140000D01*
X12955000Y-8525000D02*
X12985000Y-8555000D01*
X12985000Y-8525000D02*
X12955000Y-8555000D01*
X13055000Y-8735000D02*
X13085000Y-8765000D01*
X13085000Y-8735000D02*
X13055000Y-8765000D01*
X14655000Y-8845000D02*
X14685000Y-8875000D01*
X14685000Y-8845000D02*
X14655000Y-8875000D01*
X14689845Y-8349845D02*
X14719845Y-8379845D01*
X14719845Y-8349845D02*
X14689845Y-8379845D01*
X14895000Y-8875000D02*
X14925000Y-8905000D01*
X14925000Y-8875000D02*
X14895000Y-8905000D01*
X14955000Y-8765000D02*
X14985000Y-8795000D01*
X14985000Y-8765000D02*
X14955000Y-8795000D01*
X15185000Y-8675000D02*
X15215000Y-8705000D01*
X15215000Y-8675000D02*
X15185000Y-8705000D01*
X15245000Y-8965000D02*
X15275000Y-8995000D01*
X15275000Y-8965000D02*
X15245000Y-8995000D01*
X15405000Y-8665000D02*
X15435000Y-8695000D01*
X15435000Y-8665000D02*
X15405000Y-8695000D01*
X15425000Y-8375000D02*
X15455000Y-8405000D01*
X15455000Y-8375000D02*
X15425000Y-8405000D01*
X15435000Y-7660000D02*
X15465000Y-7690000D01*
X15465000Y-7660000D02*
X15435000Y-7690000D01*
X15507500Y-8765000D02*
X15537500Y-8795000D01*
X15537500Y-8765000D02*
X15507500Y-8795000D01*
X15515000Y-8575000D02*
X15545000Y-8605000D01*
X15545000Y-8575000D02*
X15515000Y-8605000D01*
X15785000Y-8113250D02*
X15815000Y-8143250D01*
X15815000Y-8113250D02*
X15785000Y-8143250D01*
X15805000Y-8675000D02*
X15835000Y-8705000D01*
X15835000Y-8675000D02*
X15805000Y-8705000D01*
X16415000Y-7685000D02*
X16445000Y-7715000D01*
X16445000Y-7685000D02*
X16415000Y-7715000D01*
X16460000Y-6660000D02*
X16490000Y-6690000D01*
X16490000Y-6660000D02*
X16460000Y-6690000D01*
X16460000Y-7460000D02*
X16490000Y-7490000D01*
X16490000Y-7460000D02*
X16460000Y-7490000D01*
X16460000Y-9685000D02*
X16490000Y-9715000D01*
X16490000Y-9685000D02*
X16460000Y-9715000D01*
X16485000Y-8535000D02*
X16515000Y-8565000D01*
X16515000Y-8535000D02*
X16485000Y-8565000D01*
X16485000Y-8835000D02*
X16515000Y-8865000D01*
X16515000Y-8835000D02*
X16485000Y-8865000D01*
X16665000Y-8085000D02*
X16695000Y-8115000D01*
X16695000Y-8085000D02*
X16665000Y-8115000D01*
X16865000Y-8145000D02*
X16895000Y-8175000D01*
X16895000Y-8145000D02*
X16865000Y-8175000D01*
X16905000Y-8735000D02*
X16935000Y-8765000D01*
X16935000Y-8735000D02*
X16905000Y-8765000D01*
X17005000Y-7895000D02*
X17035000Y-7925000D01*
X17035000Y-7895000D02*
X17005000Y-7925000D01*
X17205000Y-6475000D02*
X17235000Y-6505000D01*
X17235000Y-6475000D02*
X17205000Y-6505000D01*
X17205000Y-8055000D02*
X17235000Y-8085000D01*
X17235000Y-8055000D02*
X17205000Y-8085000D01*
X17535000Y-8560000D02*
X17565000Y-8590000D01*
X17565000Y-8560000D02*
X17535000Y-8590000D01*
X17575000Y-6475000D02*
X17605000Y-6505000D01*
X17605000Y-6475000D02*
X17575000Y-6505000D01*
X17635000Y-7635000D02*
X17665000Y-7665000D01*
X17665000Y-7635000D02*
X17635000Y-7665000D01*
X18035000Y-8405000D02*
X18065000Y-8435000D01*
X18065000Y-8405000D02*
X18035000Y-8435000D01*
X18075000Y-7505000D02*
X18105000Y-7535000D01*
X18105000Y-7505000D02*
X18075000Y-7535000D01*
X18105000Y-7325000D02*
X18135000Y-7355000D01*
X18135000Y-7325000D02*
X18105000Y-7355000D01*
X18125000Y-6795000D02*
X18155000Y-6825000D01*
X18155000Y-6795000D02*
X18125000Y-6825000D01*
X18215000Y-6532500D02*
X18245000Y-6562500D01*
X18245000Y-6532500D02*
X18215000Y-6562500D01*
X18215000Y-6805000D02*
X18245000Y-6835000D01*
X18245000Y-6805000D02*
X18215000Y-6835000D01*
X18365000Y-7585000D02*
X18395000Y-7615000D01*
X18395000Y-7585000D02*
X18365000Y-7615000D01*
X18385000Y-6532500D02*
X18415000Y-6562500D01*
X18415000Y-6532500D02*
X18385000Y-6562500D01*
X18605000Y-8085000D02*
X18635000Y-8115000D01*
X18635000Y-8085000D02*
X18605000Y-8115000D01*
X12575000Y-8102500D02*
G75*
G03*
X12545000Y-8102500I-15000J0D01*
G01*
X12545000Y-8102500D02*
G75*
G03*
X12575000Y-8102500I15000J0D01*
G01*
X12575000Y-8282500D02*
G75*
G03*
X12545000Y-8282500I-15000J0D01*
G01*
X12545000Y-8282500D02*
G75*
G03*
X12575000Y-8282500I15000J0D01*
G01*
X12755000Y-8102500D02*
G75*
G03*
X12725000Y-8102500I-15000J0D01*
G01*
X12725000Y-8102500D02*
G75*
G03*
X12755000Y-8102500I15000J0D01*
G01*
X12755000Y-8282500D02*
G75*
G03*
X12725000Y-8282500I-15000J0D01*
G01*
X12725000Y-8282500D02*
G75*
G03*
X12755000Y-8282500I15000J0D01*
G01*
X9150000Y-8965000D02*
X9150000Y-9015000D01*
X9125000Y-8990000D02*
X9175000Y-8990000D01*
X9115000Y-9015000D02*
X9185000Y-9015000D01*
X9185000Y-9015000D02*
G75*
G03*
X9185000Y-8965000I0J25000D01*
G01*
X9185000Y-8965000D02*
X9115000Y-8965000D01*
X9115000Y-8965000D02*
G75*
G03*
X9115000Y-9015000I0J-25000D01*
G01*
X9150000Y-9625000D02*
X9150000Y-9675000D01*
X9125000Y-9650000D02*
X9175000Y-9650000D01*
X9115000Y-9675000D02*
X9185000Y-9675000D01*
X9185000Y-9675000D02*
G75*
G03*
X9185000Y-9625000I0J25000D01*
G01*
X9185000Y-9625000D02*
X9115000Y-9625000D01*
X9115000Y-9625000D02*
G75*
G03*
X9115000Y-9675000I0J-25000D01*
G01*
X11655356Y-9455356D02*
X11655356Y-9384644D01*
X11584644Y-9384644D01*
X11584644Y-9455356D01*
X11655356Y-9455356D01*
X11845356Y-6825356D02*
X11845356Y-6754644D01*
X11774644Y-6754644D01*
X11774644Y-6825356D01*
X11845356Y-6825356D01*
X11909356Y-9455356D02*
X11909356Y-9384644D01*
X11838644Y-9384644D01*
X11838644Y-9455356D01*
X11909356Y-9455356D01*
X12099356Y-6825356D02*
X12099356Y-6754644D01*
X12028644Y-6754644D01*
X12028644Y-6825356D01*
X12099356Y-6825356D01*
X12163356Y-9455356D02*
X12163356Y-9384644D01*
X12092644Y-9384644D01*
X12092644Y-9455356D01*
X12163356Y-9455356D01*
X12353356Y-6825356D02*
X12353356Y-6754644D01*
X12282644Y-6754644D01*
X12282644Y-6825356D01*
X12353356Y-6825356D01*
X12417356Y-9455356D02*
X12417356Y-9384644D01*
X12346644Y-9384644D01*
X12346644Y-9455356D01*
X12417356Y-9455356D01*
X12607356Y-6825356D02*
X12607356Y-6754644D01*
X12536644Y-6754644D01*
X12536644Y-6825356D01*
X12607356Y-6825356D01*
X12810356Y-6285356D02*
X12810356Y-6214644D01*
X12739644Y-6214644D01*
X12739644Y-6285356D01*
X12810356Y-6285356D01*
X13635356Y-7803356D02*
X13635356Y-7732644D01*
X13564644Y-7732644D01*
X13564644Y-7803356D01*
X13635356Y-7803356D01*
X13635356Y-8057356D02*
X13635356Y-7986644D01*
X13564644Y-7986644D01*
X13564644Y-8057356D01*
X13635356Y-8057356D01*
X13635356Y-8311356D02*
X13635356Y-8240644D01*
X13564644Y-8240644D01*
X13564644Y-8311356D01*
X13635356Y-8311356D01*
X13635356Y-8565356D02*
X13635356Y-8494644D01*
X13564644Y-8494644D01*
X13564644Y-8565356D01*
X13635356Y-8565356D01*
D12*
X10655000Y-7037500D02*
X10817500Y-6875000D01*
X10655000Y-6712500D01*
X10492500Y-6875000D01*
X10655000Y-7037500D01*
X10665000Y-9837500D02*
X10827500Y-9675000D01*
X10665000Y-9512500D01*
X10502500Y-9675000D01*
X10665000Y-9837500D01*
X13730000Y-7037500D02*
X13892500Y-6875000D01*
X13730000Y-6712500D01*
X13567500Y-6875000D01*
X13730000Y-7037500D01*
X13730000Y-9837500D02*
X13892500Y-9675000D01*
X13730000Y-9512500D01*
X13567500Y-9675000D01*
X13730000Y-9837500D01*
D11*
X9255777Y-10516484D02*
X9255777Y-10316484D01*
X9255777Y-10316484D02*
X9303396Y-10316484D01*
X9303396Y-10316484D02*
X9331967Y-10326008D01*
X9331967Y-10326008D02*
X9351015Y-10345055D01*
X9351015Y-10345055D02*
X9360539Y-10364103D01*
X9360539Y-10364103D02*
X9370063Y-10402198D01*
X9370063Y-10402198D02*
X9370063Y-10430770D01*
X9370063Y-10430770D02*
X9360539Y-10468865D01*
X9360539Y-10468865D02*
X9351015Y-10487912D01*
X9351015Y-10487912D02*
X9331967Y-10506960D01*
X9331967Y-10506960D02*
X9303396Y-10516484D01*
X9303396Y-10516484D02*
X9255777Y-10516484D01*
X9455777Y-10516484D02*
X9455777Y-10383150D01*
X9455777Y-10421246D02*
X9465301Y-10402198D01*
X9465301Y-10402198D02*
X9474824Y-10392674D01*
X9474824Y-10392674D02*
X9493872Y-10383150D01*
X9493872Y-10383150D02*
X9512920Y-10383150D01*
X9579586Y-10516484D02*
X9579586Y-10383150D01*
X9579586Y-10316484D02*
X9570063Y-10326008D01*
X9570063Y-10326008D02*
X9579586Y-10335531D01*
X9579586Y-10335531D02*
X9589110Y-10326008D01*
X9589110Y-10326008D02*
X9579586Y-10316484D01*
X9579586Y-10316484D02*
X9579586Y-10335531D01*
X9703396Y-10516484D02*
X9684348Y-10506960D01*
X9684348Y-10506960D02*
X9674824Y-10487912D01*
X9674824Y-10487912D02*
X9674824Y-10316484D01*
X9808158Y-10516484D02*
X9789110Y-10506960D01*
X9789110Y-10506960D02*
X9779586Y-10487912D01*
X9779586Y-10487912D02*
X9779586Y-10316484D01*
X10036729Y-10516484D02*
X10036729Y-10316484D01*
X10036729Y-10316484D02*
X10103396Y-10459341D01*
X10103396Y-10459341D02*
X10170063Y-10316484D01*
X10170063Y-10316484D02*
X10170063Y-10516484D01*
X10351015Y-10516484D02*
X10351015Y-10411722D01*
X10351015Y-10411722D02*
X10341491Y-10392674D01*
X10341491Y-10392674D02*
X10322444Y-10383150D01*
X10322444Y-10383150D02*
X10284348Y-10383150D01*
X10284348Y-10383150D02*
X10265301Y-10392674D01*
X10351015Y-10506960D02*
X10331967Y-10516484D01*
X10331967Y-10516484D02*
X10284348Y-10516484D01*
X10284348Y-10516484D02*
X10265301Y-10506960D01*
X10265301Y-10506960D02*
X10255777Y-10487912D01*
X10255777Y-10487912D02*
X10255777Y-10468865D01*
X10255777Y-10468865D02*
X10265301Y-10449817D01*
X10265301Y-10449817D02*
X10284348Y-10440293D01*
X10284348Y-10440293D02*
X10331967Y-10440293D01*
X10331967Y-10440293D02*
X10351015Y-10430770D01*
X10446253Y-10383150D02*
X10446253Y-10583150D01*
X10446253Y-10392674D02*
X10465301Y-10383150D01*
X10465301Y-10383150D02*
X10503396Y-10383150D01*
X10503396Y-10383150D02*
X10522444Y-10392674D01*
X10522444Y-10392674D02*
X10531967Y-10402198D01*
X10531967Y-10402198D02*
X10541491Y-10421246D01*
X10541491Y-10421246D02*
X10541491Y-10478389D01*
X10541491Y-10478389D02*
X10531967Y-10497436D01*
X10531967Y-10497436D02*
X10522444Y-10506960D01*
X10522444Y-10506960D02*
X10503396Y-10516484D01*
X10503396Y-10516484D02*
X10465301Y-10516484D01*
X10465301Y-10516484D02*
X10446253Y-10506960D01*
X10627205Y-10497436D02*
X10636729Y-10506960D01*
X10636729Y-10506960D02*
X10627205Y-10516484D01*
X10627205Y-10516484D02*
X10617682Y-10506960D01*
X10617682Y-10506960D02*
X10627205Y-10497436D01*
X10627205Y-10497436D02*
X10627205Y-10516484D01*
X10627205Y-10392674D02*
X10636729Y-10402198D01*
X10636729Y-10402198D02*
X10627205Y-10411722D01*
X10627205Y-10411722D02*
X10617682Y-10402198D01*
X10617682Y-10402198D02*
X10627205Y-10392674D01*
X10627205Y-10392674D02*
X10627205Y-10411722D01*
D10*
X8965000Y-10830000D02*
X8995000Y-10860000D01*
X8995000Y-10830000D02*
X8965000Y-10860000D01*
D11*
X9293872Y-10736484D02*
X9312920Y-10736484D01*
X9312920Y-10736484D02*
X9331967Y-10746008D01*
X9331967Y-10746008D02*
X9341491Y-10755531D01*
X9341491Y-10755531D02*
X9351015Y-10774579D01*
X9351015Y-10774579D02*
X9360539Y-10812674D01*
X9360539Y-10812674D02*
X9360539Y-10860293D01*
X9360539Y-10860293D02*
X9351015Y-10898389D01*
X9351015Y-10898389D02*
X9341491Y-10917436D01*
X9341491Y-10917436D02*
X9331967Y-10926960D01*
X9331967Y-10926960D02*
X9312920Y-10936484D01*
X9312920Y-10936484D02*
X9293872Y-10936484D01*
X9293872Y-10936484D02*
X9274824Y-10926960D01*
X9274824Y-10926960D02*
X9265301Y-10917436D01*
X9265301Y-10917436D02*
X9255777Y-10898389D01*
X9255777Y-10898389D02*
X9246253Y-10860293D01*
X9246253Y-10860293D02*
X9246253Y-10812674D01*
X9246253Y-10812674D02*
X9255777Y-10774579D01*
X9255777Y-10774579D02*
X9265301Y-10755531D01*
X9265301Y-10755531D02*
X9274824Y-10746008D01*
X9274824Y-10746008D02*
X9293872Y-10736484D01*
X9446253Y-10917436D02*
X9455777Y-10926960D01*
X9455777Y-10926960D02*
X9446253Y-10936484D01*
X9446253Y-10936484D02*
X9436729Y-10926960D01*
X9436729Y-10926960D02*
X9446253Y-10917436D01*
X9446253Y-10917436D02*
X9446253Y-10936484D01*
X9522444Y-10736484D02*
X9646253Y-10736484D01*
X9646253Y-10736484D02*
X9579586Y-10812674D01*
X9579586Y-10812674D02*
X9608158Y-10812674D01*
X9608158Y-10812674D02*
X9627205Y-10822198D01*
X9627205Y-10822198D02*
X9636729Y-10831722D01*
X9636729Y-10831722D02*
X9646253Y-10850770D01*
X9646253Y-10850770D02*
X9646253Y-10898389D01*
X9646253Y-10898389D02*
X9636729Y-10917436D01*
X9636729Y-10917436D02*
X9627205Y-10926960D01*
X9627205Y-10926960D02*
X9608158Y-10936484D01*
X9608158Y-10936484D02*
X9551015Y-10936484D01*
X9551015Y-10936484D02*
X9531967Y-10926960D01*
X9531967Y-10926960D02*
X9522444Y-10917436D01*
X9770063Y-10736484D02*
X9789110Y-10736484D01*
X9789110Y-10736484D02*
X9808158Y-10746008D01*
X9808158Y-10746008D02*
X9817682Y-10755531D01*
X9817682Y-10755531D02*
X9827205Y-10774579D01*
X9827205Y-10774579D02*
X9836729Y-10812674D01*
X9836729Y-10812674D02*
X9836729Y-10860293D01*
X9836729Y-10860293D02*
X9827205Y-10898389D01*
X9827205Y-10898389D02*
X9817682Y-10917436D01*
X9817682Y-10917436D02*
X9808158Y-10926960D01*
X9808158Y-10926960D02*
X9789110Y-10936484D01*
X9789110Y-10936484D02*
X9770063Y-10936484D01*
X9770063Y-10936484D02*
X9751015Y-10926960D01*
X9751015Y-10926960D02*
X9741491Y-10917436D01*
X9741491Y-10917436D02*
X9731967Y-10898389D01*
X9731967Y-10898389D02*
X9722444Y-10860293D01*
X9722444Y-10860293D02*
X9722444Y-10812674D01*
X9722444Y-10812674D02*
X9731967Y-10774579D01*
X9731967Y-10774579D02*
X9741491Y-10755531D01*
X9741491Y-10755531D02*
X9751015Y-10746008D01*
X9751015Y-10746008D02*
X9770063Y-10736484D01*
X9960539Y-10736484D02*
X9979586Y-10736484D01*
X9979586Y-10736484D02*
X9998634Y-10746008D01*
X9998634Y-10746008D02*
X10008158Y-10755531D01*
X10008158Y-10755531D02*
X10017682Y-10774579D01*
X10017682Y-10774579D02*
X10027205Y-10812674D01*
X10027205Y-10812674D02*
X10027205Y-10860293D01*
X10027205Y-10860293D02*
X10017682Y-10898389D01*
X10017682Y-10898389D02*
X10008158Y-10917436D01*
X10008158Y-10917436D02*
X9998634Y-10926960D01*
X9998634Y-10926960D02*
X9979586Y-10936484D01*
X9979586Y-10936484D02*
X9960539Y-10936484D01*
X9960539Y-10936484D02*
X9941491Y-10926960D01*
X9941491Y-10926960D02*
X9931967Y-10917436D01*
X9931967Y-10917436D02*
X9922444Y-10898389D01*
X9922444Y-10898389D02*
X9912920Y-10860293D01*
X9912920Y-10860293D02*
X9912920Y-10812674D01*
X9912920Y-10812674D02*
X9922444Y-10774579D01*
X9922444Y-10774579D02*
X9931967Y-10755531D01*
X9931967Y-10755531D02*
X9941491Y-10746008D01*
X9941491Y-10746008D02*
X9960539Y-10736484D01*
X10112920Y-10936484D02*
X10112920Y-10803150D01*
X10112920Y-10822198D02*
X10122444Y-10812674D01*
X10122444Y-10812674D02*
X10141491Y-10803150D01*
X10141491Y-10803150D02*
X10170063Y-10803150D01*
X10170063Y-10803150D02*
X10189110Y-10812674D01*
X10189110Y-10812674D02*
X10198634Y-10831722D01*
X10198634Y-10831722D02*
X10198634Y-10936484D01*
X10198634Y-10831722D02*
X10208158Y-10812674D01*
X10208158Y-10812674D02*
X10227205Y-10803150D01*
X10227205Y-10803150D02*
X10255777Y-10803150D01*
X10255777Y-10803150D02*
X10274825Y-10812674D01*
X10274825Y-10812674D02*
X10284348Y-10831722D01*
X10284348Y-10831722D02*
X10284348Y-10936484D01*
X10379586Y-10936484D02*
X10379586Y-10803150D01*
X10379586Y-10822198D02*
X10389110Y-10812674D01*
X10389110Y-10812674D02*
X10408158Y-10803150D01*
X10408158Y-10803150D02*
X10436729Y-10803150D01*
X10436729Y-10803150D02*
X10455777Y-10812674D01*
X10455777Y-10812674D02*
X10465301Y-10831722D01*
X10465301Y-10831722D02*
X10465301Y-10936484D01*
X10465301Y-10831722D02*
X10474825Y-10812674D01*
X10474825Y-10812674D02*
X10493872Y-10803150D01*
X10493872Y-10803150D02*
X10522444Y-10803150D01*
X10522444Y-10803150D02*
X10541491Y-10812674D01*
X10541491Y-10812674D02*
X10551015Y-10831722D01*
X10551015Y-10831722D02*
X10551015Y-10936484D01*
X10941491Y-10726960D02*
X10770063Y-10984103D01*
X11198634Y-10736484D02*
X11217682Y-10736484D01*
X11217682Y-10736484D02*
X11236729Y-10746008D01*
X11236729Y-10746008D02*
X11246253Y-10755531D01*
X11246253Y-10755531D02*
X11255777Y-10774579D01*
X11255777Y-10774579D02*
X11265301Y-10812674D01*
X11265301Y-10812674D02*
X11265301Y-10860293D01*
X11265301Y-10860293D02*
X11255777Y-10898389D01*
X11255777Y-10898389D02*
X11246253Y-10917436D01*
X11246253Y-10917436D02*
X11236729Y-10926960D01*
X11236729Y-10926960D02*
X11217682Y-10936484D01*
X11217682Y-10936484D02*
X11198634Y-10936484D01*
X11198634Y-10936484D02*
X11179587Y-10926960D01*
X11179587Y-10926960D02*
X11170063Y-10917436D01*
X11170063Y-10917436D02*
X11160539Y-10898389D01*
X11160539Y-10898389D02*
X11151015Y-10860293D01*
X11151015Y-10860293D02*
X11151015Y-10812674D01*
X11151015Y-10812674D02*
X11160539Y-10774579D01*
X11160539Y-10774579D02*
X11170063Y-10755531D01*
X11170063Y-10755531D02*
X11179587Y-10746008D01*
X11179587Y-10746008D02*
X11198634Y-10736484D01*
X11351015Y-10917436D02*
X11360539Y-10926960D01*
X11360539Y-10926960D02*
X11351015Y-10936484D01*
X11351015Y-10936484D02*
X11341491Y-10926960D01*
X11341491Y-10926960D02*
X11351015Y-10917436D01*
X11351015Y-10917436D02*
X11351015Y-10936484D01*
X11484348Y-10736484D02*
X11503396Y-10736484D01*
X11503396Y-10736484D02*
X11522444Y-10746008D01*
X11522444Y-10746008D02*
X11531967Y-10755531D01*
X11531967Y-10755531D02*
X11541491Y-10774579D01*
X11541491Y-10774579D02*
X11551015Y-10812674D01*
X11551015Y-10812674D02*
X11551015Y-10860293D01*
X11551015Y-10860293D02*
X11541491Y-10898389D01*
X11541491Y-10898389D02*
X11531967Y-10917436D01*
X11531967Y-10917436D02*
X11522444Y-10926960D01*
X11522444Y-10926960D02*
X11503396Y-10936484D01*
X11503396Y-10936484D02*
X11484348Y-10936484D01*
X11484348Y-10936484D02*
X11465301Y-10926960D01*
X11465301Y-10926960D02*
X11455777Y-10917436D01*
X11455777Y-10917436D02*
X11446253Y-10898389D01*
X11446253Y-10898389D02*
X11436729Y-10860293D01*
X11436729Y-10860293D02*
X11436729Y-10812674D01*
X11436729Y-10812674D02*
X11446253Y-10774579D01*
X11446253Y-10774579D02*
X11455777Y-10755531D01*
X11455777Y-10755531D02*
X11465301Y-10746008D01*
X11465301Y-10746008D02*
X11484348Y-10736484D01*
X11741491Y-10936484D02*
X11627206Y-10936484D01*
X11684348Y-10936484D02*
X11684348Y-10736484D01*
X11684348Y-10736484D02*
X11665301Y-10765055D01*
X11665301Y-10765055D02*
X11646253Y-10784103D01*
X11646253Y-10784103D02*
X11627206Y-10793627D01*
X11931967Y-10936484D02*
X11817682Y-10936484D01*
X11874825Y-10936484D02*
X11874825Y-10736484D01*
X11874825Y-10736484D02*
X11855777Y-10765055D01*
X11855777Y-10765055D02*
X11836729Y-10784103D01*
X11836729Y-10784103D02*
X11817682Y-10793627D01*
X12046253Y-10822198D02*
X12027206Y-10812674D01*
X12027206Y-10812674D02*
X12017682Y-10803150D01*
X12017682Y-10803150D02*
X12008158Y-10784103D01*
X12008158Y-10784103D02*
X12008158Y-10774579D01*
X12008158Y-10774579D02*
X12017682Y-10755531D01*
X12017682Y-10755531D02*
X12027206Y-10746008D01*
X12027206Y-10746008D02*
X12046253Y-10736484D01*
X12046253Y-10736484D02*
X12084348Y-10736484D01*
X12084348Y-10736484D02*
X12103396Y-10746008D01*
X12103396Y-10746008D02*
X12112920Y-10755531D01*
X12112920Y-10755531D02*
X12122444Y-10774579D01*
X12122444Y-10774579D02*
X12122444Y-10784103D01*
X12122444Y-10784103D02*
X12112920Y-10803150D01*
X12112920Y-10803150D02*
X12103396Y-10812674D01*
X12103396Y-10812674D02*
X12084348Y-10822198D01*
X12084348Y-10822198D02*
X12046253Y-10822198D01*
X12046253Y-10822198D02*
X12027206Y-10831722D01*
X12027206Y-10831722D02*
X12017682Y-10841246D01*
X12017682Y-10841246D02*
X12008158Y-10860293D01*
X12008158Y-10860293D02*
X12008158Y-10898389D01*
X12008158Y-10898389D02*
X12017682Y-10917436D01*
X12017682Y-10917436D02*
X12027206Y-10926960D01*
X12027206Y-10926960D02*
X12046253Y-10936484D01*
X12046253Y-10936484D02*
X12084348Y-10936484D01*
X12084348Y-10936484D02*
X12103396Y-10926960D01*
X12103396Y-10926960D02*
X12112920Y-10917436D01*
X12112920Y-10917436D02*
X12122444Y-10898389D01*
X12122444Y-10898389D02*
X12122444Y-10860293D01*
X12122444Y-10860293D02*
X12112920Y-10841246D01*
X12112920Y-10841246D02*
X12103396Y-10831722D01*
X12103396Y-10831722D02*
X12084348Y-10822198D01*
X12198634Y-10736484D02*
X12198634Y-10774579D01*
X12274825Y-10736484D02*
X12274825Y-10774579D01*
X12570063Y-11012674D02*
X12560539Y-11003150D01*
X12560539Y-11003150D02*
X12541491Y-10974579D01*
X12541491Y-10974579D02*
X12531968Y-10955531D01*
X12531968Y-10955531D02*
X12522444Y-10926960D01*
X12522444Y-10926960D02*
X12512920Y-10879341D01*
X12512920Y-10879341D02*
X12512920Y-10841246D01*
X12512920Y-10841246D02*
X12522444Y-10793627D01*
X12522444Y-10793627D02*
X12531968Y-10765055D01*
X12531968Y-10765055D02*
X12541491Y-10746008D01*
X12541491Y-10746008D02*
X12560539Y-10717436D01*
X12560539Y-10717436D02*
X12570063Y-10707912D01*
X12751015Y-10936484D02*
X12636729Y-10936484D01*
X12693872Y-10936484D02*
X12693872Y-10736484D01*
X12693872Y-10736484D02*
X12674825Y-10765055D01*
X12674825Y-10765055D02*
X12655777Y-10784103D01*
X12655777Y-10784103D02*
X12636729Y-10793627D01*
X12941491Y-10936484D02*
X12827206Y-10936484D01*
X12884348Y-10936484D02*
X12884348Y-10736484D01*
X12884348Y-10736484D02*
X12865301Y-10765055D01*
X12865301Y-10765055D02*
X12846253Y-10784103D01*
X12846253Y-10784103D02*
X12827206Y-10793627D01*
X13112920Y-10803150D02*
X13112920Y-10936484D01*
X13065301Y-10726960D02*
X13017682Y-10869817D01*
X13017682Y-10869817D02*
X13141491Y-10869817D01*
X13370063Y-10936484D02*
X13370063Y-10736484D01*
X13455777Y-10936484D02*
X13455777Y-10831722D01*
X13455777Y-10831722D02*
X13446253Y-10812674D01*
X13446253Y-10812674D02*
X13427206Y-10803150D01*
X13427206Y-10803150D02*
X13398634Y-10803150D01*
X13398634Y-10803150D02*
X13379587Y-10812674D01*
X13379587Y-10812674D02*
X13370063Y-10822198D01*
X13579587Y-10936484D02*
X13560539Y-10926960D01*
X13560539Y-10926960D02*
X13551015Y-10917436D01*
X13551015Y-10917436D02*
X13541491Y-10898389D01*
X13541491Y-10898389D02*
X13541491Y-10841246D01*
X13541491Y-10841246D02*
X13551015Y-10822198D01*
X13551015Y-10822198D02*
X13560539Y-10812674D01*
X13560539Y-10812674D02*
X13579587Y-10803150D01*
X13579587Y-10803150D02*
X13608158Y-10803150D01*
X13608158Y-10803150D02*
X13627206Y-10812674D01*
X13627206Y-10812674D02*
X13636730Y-10822198D01*
X13636730Y-10822198D02*
X13646253Y-10841246D01*
X13646253Y-10841246D02*
X13646253Y-10898389D01*
X13646253Y-10898389D02*
X13636730Y-10917436D01*
X13636730Y-10917436D02*
X13627206Y-10926960D01*
X13627206Y-10926960D02*
X13608158Y-10936484D01*
X13608158Y-10936484D02*
X13579587Y-10936484D01*
X13760539Y-10936484D02*
X13741491Y-10926960D01*
X13741491Y-10926960D02*
X13731968Y-10907912D01*
X13731968Y-10907912D02*
X13731968Y-10736484D01*
X13912920Y-10926960D02*
X13893872Y-10936484D01*
X13893872Y-10936484D02*
X13855777Y-10936484D01*
X13855777Y-10936484D02*
X13836730Y-10926960D01*
X13836730Y-10926960D02*
X13827206Y-10907912D01*
X13827206Y-10907912D02*
X13827206Y-10831722D01*
X13827206Y-10831722D02*
X13836730Y-10812674D01*
X13836730Y-10812674D02*
X13855777Y-10803150D01*
X13855777Y-10803150D02*
X13893872Y-10803150D01*
X13893872Y-10803150D02*
X13912920Y-10812674D01*
X13912920Y-10812674D02*
X13922444Y-10831722D01*
X13922444Y-10831722D02*
X13922444Y-10850770D01*
X13922444Y-10850770D02*
X13827206Y-10869817D01*
X13998634Y-10926960D02*
X14017682Y-10936484D01*
X14017682Y-10936484D02*
X14055777Y-10936484D01*
X14055777Y-10936484D02*
X14074825Y-10926960D01*
X14074825Y-10926960D02*
X14084349Y-10907912D01*
X14084349Y-10907912D02*
X14084349Y-10898389D01*
X14084349Y-10898389D02*
X14074825Y-10879341D01*
X14074825Y-10879341D02*
X14055777Y-10869817D01*
X14055777Y-10869817D02*
X14027206Y-10869817D01*
X14027206Y-10869817D02*
X14008158Y-10860293D01*
X14008158Y-10860293D02*
X13998634Y-10841246D01*
X13998634Y-10841246D02*
X13998634Y-10831722D01*
X13998634Y-10831722D02*
X14008158Y-10812674D01*
X14008158Y-10812674D02*
X14027206Y-10803150D01*
X14027206Y-10803150D02*
X14055777Y-10803150D01*
X14055777Y-10803150D02*
X14074825Y-10812674D01*
X14151015Y-11012674D02*
X14160539Y-11003150D01*
X14160539Y-11003150D02*
X14179587Y-10974579D01*
X14179587Y-10974579D02*
X14189111Y-10955531D01*
X14189111Y-10955531D02*
X14198634Y-10926960D01*
X14198634Y-10926960D02*
X14208158Y-10879341D01*
X14208158Y-10879341D02*
X14208158Y-10841246D01*
X14208158Y-10841246D02*
X14198634Y-10793627D01*
X14198634Y-10793627D02*
X14189111Y-10765055D01*
X14189111Y-10765055D02*
X14179587Y-10746008D01*
X14179587Y-10746008D02*
X14160539Y-10717436D01*
X14160539Y-10717436D02*
X14151015Y-10707912D01*
D10*
X8995000Y-11109000D02*
G75*
G03*
X8965000Y-11109000I-15000J0D01*
G01*
X8965000Y-11109000D02*
G75*
G03*
X8995000Y-11109000I15000J0D01*
G01*
D11*
X9293872Y-11000484D02*
X9312920Y-11000484D01*
X9312920Y-11000484D02*
X9331967Y-11010008D01*
X9331967Y-11010008D02*
X9341491Y-11019531D01*
X9341491Y-11019531D02*
X9351015Y-11038579D01*
X9351015Y-11038579D02*
X9360539Y-11076674D01*
X9360539Y-11076674D02*
X9360539Y-11124293D01*
X9360539Y-11124293D02*
X9351015Y-11162389D01*
X9351015Y-11162389D02*
X9341491Y-11181436D01*
X9341491Y-11181436D02*
X9331967Y-11190960D01*
X9331967Y-11190960D02*
X9312920Y-11200484D01*
X9312920Y-11200484D02*
X9293872Y-11200484D01*
X9293872Y-11200484D02*
X9274824Y-11190960D01*
X9274824Y-11190960D02*
X9265301Y-11181436D01*
X9265301Y-11181436D02*
X9255777Y-11162389D01*
X9255777Y-11162389D02*
X9246253Y-11124293D01*
X9246253Y-11124293D02*
X9246253Y-11076674D01*
X9246253Y-11076674D02*
X9255777Y-11038579D01*
X9255777Y-11038579D02*
X9265301Y-11019531D01*
X9265301Y-11019531D02*
X9274824Y-11010008D01*
X9274824Y-11010008D02*
X9293872Y-11000484D01*
X9446253Y-11181436D02*
X9455777Y-11190960D01*
X9455777Y-11190960D02*
X9446253Y-11200484D01*
X9446253Y-11200484D02*
X9436729Y-11190960D01*
X9436729Y-11190960D02*
X9446253Y-11181436D01*
X9446253Y-11181436D02*
X9446253Y-11200484D01*
X9522444Y-11000484D02*
X9646253Y-11000484D01*
X9646253Y-11000484D02*
X9579586Y-11076674D01*
X9579586Y-11076674D02*
X9608158Y-11076674D01*
X9608158Y-11076674D02*
X9627205Y-11086198D01*
X9627205Y-11086198D02*
X9636729Y-11095722D01*
X9636729Y-11095722D02*
X9646253Y-11114770D01*
X9646253Y-11114770D02*
X9646253Y-11162389D01*
X9646253Y-11162389D02*
X9636729Y-11181436D01*
X9636729Y-11181436D02*
X9627205Y-11190960D01*
X9627205Y-11190960D02*
X9608158Y-11200484D01*
X9608158Y-11200484D02*
X9551015Y-11200484D01*
X9551015Y-11200484D02*
X9531967Y-11190960D01*
X9531967Y-11190960D02*
X9522444Y-11181436D01*
X9770063Y-11000484D02*
X9789110Y-11000484D01*
X9789110Y-11000484D02*
X9808158Y-11010008D01*
X9808158Y-11010008D02*
X9817682Y-11019531D01*
X9817682Y-11019531D02*
X9827205Y-11038579D01*
X9827205Y-11038579D02*
X9836729Y-11076674D01*
X9836729Y-11076674D02*
X9836729Y-11124293D01*
X9836729Y-11124293D02*
X9827205Y-11162389D01*
X9827205Y-11162389D02*
X9817682Y-11181436D01*
X9817682Y-11181436D02*
X9808158Y-11190960D01*
X9808158Y-11190960D02*
X9789110Y-11200484D01*
X9789110Y-11200484D02*
X9770063Y-11200484D01*
X9770063Y-11200484D02*
X9751015Y-11190960D01*
X9751015Y-11190960D02*
X9741491Y-11181436D01*
X9741491Y-11181436D02*
X9731967Y-11162389D01*
X9731967Y-11162389D02*
X9722444Y-11124293D01*
X9722444Y-11124293D02*
X9722444Y-11076674D01*
X9722444Y-11076674D02*
X9731967Y-11038579D01*
X9731967Y-11038579D02*
X9741491Y-11019531D01*
X9741491Y-11019531D02*
X9751015Y-11010008D01*
X9751015Y-11010008D02*
X9770063Y-11000484D01*
X9960539Y-11000484D02*
X9979586Y-11000484D01*
X9979586Y-11000484D02*
X9998634Y-11010008D01*
X9998634Y-11010008D02*
X10008158Y-11019531D01*
X10008158Y-11019531D02*
X10017682Y-11038579D01*
X10017682Y-11038579D02*
X10027205Y-11076674D01*
X10027205Y-11076674D02*
X10027205Y-11124293D01*
X10027205Y-11124293D02*
X10017682Y-11162389D01*
X10017682Y-11162389D02*
X10008158Y-11181436D01*
X10008158Y-11181436D02*
X9998634Y-11190960D01*
X9998634Y-11190960D02*
X9979586Y-11200484D01*
X9979586Y-11200484D02*
X9960539Y-11200484D01*
X9960539Y-11200484D02*
X9941491Y-11190960D01*
X9941491Y-11190960D02*
X9931967Y-11181436D01*
X9931967Y-11181436D02*
X9922444Y-11162389D01*
X9922444Y-11162389D02*
X9912920Y-11124293D01*
X9912920Y-11124293D02*
X9912920Y-11076674D01*
X9912920Y-11076674D02*
X9922444Y-11038579D01*
X9922444Y-11038579D02*
X9931967Y-11019531D01*
X9931967Y-11019531D02*
X9941491Y-11010008D01*
X9941491Y-11010008D02*
X9960539Y-11000484D01*
X10112920Y-11200484D02*
X10112920Y-11067150D01*
X10112920Y-11086198D02*
X10122444Y-11076674D01*
X10122444Y-11076674D02*
X10141491Y-11067150D01*
X10141491Y-11067150D02*
X10170063Y-11067150D01*
X10170063Y-11067150D02*
X10189110Y-11076674D01*
X10189110Y-11076674D02*
X10198634Y-11095722D01*
X10198634Y-11095722D02*
X10198634Y-11200484D01*
X10198634Y-11095722D02*
X10208158Y-11076674D01*
X10208158Y-11076674D02*
X10227205Y-11067150D01*
X10227205Y-11067150D02*
X10255777Y-11067150D01*
X10255777Y-11067150D02*
X10274825Y-11076674D01*
X10274825Y-11076674D02*
X10284348Y-11095722D01*
X10284348Y-11095722D02*
X10284348Y-11200484D01*
X10379586Y-11200484D02*
X10379586Y-11067150D01*
X10379586Y-11086198D02*
X10389110Y-11076674D01*
X10389110Y-11076674D02*
X10408158Y-11067150D01*
X10408158Y-11067150D02*
X10436729Y-11067150D01*
X10436729Y-11067150D02*
X10455777Y-11076674D01*
X10455777Y-11076674D02*
X10465301Y-11095722D01*
X10465301Y-11095722D02*
X10465301Y-11200484D01*
X10465301Y-11095722D02*
X10474825Y-11076674D01*
X10474825Y-11076674D02*
X10493872Y-11067150D01*
X10493872Y-11067150D02*
X10522444Y-11067150D01*
X10522444Y-11067150D02*
X10541491Y-11076674D01*
X10541491Y-11076674D02*
X10551015Y-11095722D01*
X10551015Y-11095722D02*
X10551015Y-11200484D01*
X10941491Y-10990960D02*
X10770063Y-11248103D01*
X11198634Y-11000484D02*
X11217682Y-11000484D01*
X11217682Y-11000484D02*
X11236729Y-11010008D01*
X11236729Y-11010008D02*
X11246253Y-11019531D01*
X11246253Y-11019531D02*
X11255777Y-11038579D01*
X11255777Y-11038579D02*
X11265301Y-11076674D01*
X11265301Y-11076674D02*
X11265301Y-11124293D01*
X11265301Y-11124293D02*
X11255777Y-11162389D01*
X11255777Y-11162389D02*
X11246253Y-11181436D01*
X11246253Y-11181436D02*
X11236729Y-11190960D01*
X11236729Y-11190960D02*
X11217682Y-11200484D01*
X11217682Y-11200484D02*
X11198634Y-11200484D01*
X11198634Y-11200484D02*
X11179587Y-11190960D01*
X11179587Y-11190960D02*
X11170063Y-11181436D01*
X11170063Y-11181436D02*
X11160539Y-11162389D01*
X11160539Y-11162389D02*
X11151015Y-11124293D01*
X11151015Y-11124293D02*
X11151015Y-11076674D01*
X11151015Y-11076674D02*
X11160539Y-11038579D01*
X11160539Y-11038579D02*
X11170063Y-11019531D01*
X11170063Y-11019531D02*
X11179587Y-11010008D01*
X11179587Y-11010008D02*
X11198634Y-11000484D01*
X11351015Y-11181436D02*
X11360539Y-11190960D01*
X11360539Y-11190960D02*
X11351015Y-11200484D01*
X11351015Y-11200484D02*
X11341491Y-11190960D01*
X11341491Y-11190960D02*
X11351015Y-11181436D01*
X11351015Y-11181436D02*
X11351015Y-11200484D01*
X11484348Y-11000484D02*
X11503396Y-11000484D01*
X11503396Y-11000484D02*
X11522444Y-11010008D01*
X11522444Y-11010008D02*
X11531967Y-11019531D01*
X11531967Y-11019531D02*
X11541491Y-11038579D01*
X11541491Y-11038579D02*
X11551015Y-11076674D01*
X11551015Y-11076674D02*
X11551015Y-11124293D01*
X11551015Y-11124293D02*
X11541491Y-11162389D01*
X11541491Y-11162389D02*
X11531967Y-11181436D01*
X11531967Y-11181436D02*
X11522444Y-11190960D01*
X11522444Y-11190960D02*
X11503396Y-11200484D01*
X11503396Y-11200484D02*
X11484348Y-11200484D01*
X11484348Y-11200484D02*
X11465301Y-11190960D01*
X11465301Y-11190960D02*
X11455777Y-11181436D01*
X11455777Y-11181436D02*
X11446253Y-11162389D01*
X11446253Y-11162389D02*
X11436729Y-11124293D01*
X11436729Y-11124293D02*
X11436729Y-11076674D01*
X11436729Y-11076674D02*
X11446253Y-11038579D01*
X11446253Y-11038579D02*
X11455777Y-11019531D01*
X11455777Y-11019531D02*
X11465301Y-11010008D01*
X11465301Y-11010008D02*
X11484348Y-11000484D01*
X11741491Y-11200484D02*
X11627206Y-11200484D01*
X11684348Y-11200484D02*
X11684348Y-11000484D01*
X11684348Y-11000484D02*
X11665301Y-11029055D01*
X11665301Y-11029055D02*
X11646253Y-11048103D01*
X11646253Y-11048103D02*
X11627206Y-11057627D01*
X11931967Y-11200484D02*
X11817682Y-11200484D01*
X11874825Y-11200484D02*
X11874825Y-11000484D01*
X11874825Y-11000484D02*
X11855777Y-11029055D01*
X11855777Y-11029055D02*
X11836729Y-11048103D01*
X11836729Y-11048103D02*
X11817682Y-11057627D01*
X12046253Y-11086198D02*
X12027206Y-11076674D01*
X12027206Y-11076674D02*
X12017682Y-11067150D01*
X12017682Y-11067150D02*
X12008158Y-11048103D01*
X12008158Y-11048103D02*
X12008158Y-11038579D01*
X12008158Y-11038579D02*
X12017682Y-11019531D01*
X12017682Y-11019531D02*
X12027206Y-11010008D01*
X12027206Y-11010008D02*
X12046253Y-11000484D01*
X12046253Y-11000484D02*
X12084348Y-11000484D01*
X12084348Y-11000484D02*
X12103396Y-11010008D01*
X12103396Y-11010008D02*
X12112920Y-11019531D01*
X12112920Y-11019531D02*
X12122444Y-11038579D01*
X12122444Y-11038579D02*
X12122444Y-11048103D01*
X12122444Y-11048103D02*
X12112920Y-11067150D01*
X12112920Y-11067150D02*
X12103396Y-11076674D01*
X12103396Y-11076674D02*
X12084348Y-11086198D01*
X12084348Y-11086198D02*
X12046253Y-11086198D01*
X12046253Y-11086198D02*
X12027206Y-11095722D01*
X12027206Y-11095722D02*
X12017682Y-11105246D01*
X12017682Y-11105246D02*
X12008158Y-11124293D01*
X12008158Y-11124293D02*
X12008158Y-11162389D01*
X12008158Y-11162389D02*
X12017682Y-11181436D01*
X12017682Y-11181436D02*
X12027206Y-11190960D01*
X12027206Y-11190960D02*
X12046253Y-11200484D01*
X12046253Y-11200484D02*
X12084348Y-11200484D01*
X12084348Y-11200484D02*
X12103396Y-11190960D01*
X12103396Y-11190960D02*
X12112920Y-11181436D01*
X12112920Y-11181436D02*
X12122444Y-11162389D01*
X12122444Y-11162389D02*
X12122444Y-11124293D01*
X12122444Y-11124293D02*
X12112920Y-11105246D01*
X12112920Y-11105246D02*
X12103396Y-11095722D01*
X12103396Y-11095722D02*
X12084348Y-11086198D01*
X12198634Y-11000484D02*
X12198634Y-11038579D01*
X12274825Y-11000484D02*
X12274825Y-11038579D01*
X12570063Y-11276674D02*
X12560539Y-11267150D01*
X12560539Y-11267150D02*
X12541491Y-11238579D01*
X12541491Y-11238579D02*
X12531968Y-11219531D01*
X12531968Y-11219531D02*
X12522444Y-11190960D01*
X12522444Y-11190960D02*
X12512920Y-11143341D01*
X12512920Y-11143341D02*
X12512920Y-11105246D01*
X12512920Y-11105246D02*
X12522444Y-11057627D01*
X12522444Y-11057627D02*
X12531968Y-11029055D01*
X12531968Y-11029055D02*
X12541491Y-11010008D01*
X12541491Y-11010008D02*
X12560539Y-10981436D01*
X12560539Y-10981436D02*
X12570063Y-10971912D01*
X12731968Y-11067150D02*
X12731968Y-11200484D01*
X12684348Y-10990960D02*
X12636729Y-11133817D01*
X12636729Y-11133817D02*
X12760539Y-11133817D01*
X12989110Y-11200484D02*
X12989110Y-11000484D01*
X13074825Y-11200484D02*
X13074825Y-11095722D01*
X13074825Y-11095722D02*
X13065301Y-11076674D01*
X13065301Y-11076674D02*
X13046253Y-11067150D01*
X13046253Y-11067150D02*
X13017682Y-11067150D01*
X13017682Y-11067150D02*
X12998634Y-11076674D01*
X12998634Y-11076674D02*
X12989110Y-11086198D01*
X13198634Y-11200484D02*
X13179587Y-11190960D01*
X13179587Y-11190960D02*
X13170063Y-11181436D01*
X13170063Y-11181436D02*
X13160539Y-11162389D01*
X13160539Y-11162389D02*
X13160539Y-11105246D01*
X13160539Y-11105246D02*
X13170063Y-11086198D01*
X13170063Y-11086198D02*
X13179587Y-11076674D01*
X13179587Y-11076674D02*
X13198634Y-11067150D01*
X13198634Y-11067150D02*
X13227206Y-11067150D01*
X13227206Y-11067150D02*
X13246253Y-11076674D01*
X13246253Y-11076674D02*
X13255777Y-11086198D01*
X13255777Y-11086198D02*
X13265301Y-11105246D01*
X13265301Y-11105246D02*
X13265301Y-11162389D01*
X13265301Y-11162389D02*
X13255777Y-11181436D01*
X13255777Y-11181436D02*
X13246253Y-11190960D01*
X13246253Y-11190960D02*
X13227206Y-11200484D01*
X13227206Y-11200484D02*
X13198634Y-11200484D01*
X13379587Y-11200484D02*
X13360539Y-11190960D01*
X13360539Y-11190960D02*
X13351015Y-11171912D01*
X13351015Y-11171912D02*
X13351015Y-11000484D01*
X13531968Y-11190960D02*
X13512920Y-11200484D01*
X13512920Y-11200484D02*
X13474825Y-11200484D01*
X13474825Y-11200484D02*
X13455777Y-11190960D01*
X13455777Y-11190960D02*
X13446253Y-11171912D01*
X13446253Y-11171912D02*
X13446253Y-11095722D01*
X13446253Y-11095722D02*
X13455777Y-11076674D01*
X13455777Y-11076674D02*
X13474825Y-11067150D01*
X13474825Y-11067150D02*
X13512920Y-11067150D01*
X13512920Y-11067150D02*
X13531968Y-11076674D01*
X13531968Y-11076674D02*
X13541491Y-11095722D01*
X13541491Y-11095722D02*
X13541491Y-11114770D01*
X13541491Y-11114770D02*
X13446253Y-11133817D01*
X13617682Y-11190960D02*
X13636730Y-11200484D01*
X13636730Y-11200484D02*
X13674825Y-11200484D01*
X13674825Y-11200484D02*
X13693872Y-11190960D01*
X13693872Y-11190960D02*
X13703396Y-11171912D01*
X13703396Y-11171912D02*
X13703396Y-11162389D01*
X13703396Y-11162389D02*
X13693872Y-11143341D01*
X13693872Y-11143341D02*
X13674825Y-11133817D01*
X13674825Y-11133817D02*
X13646253Y-11133817D01*
X13646253Y-11133817D02*
X13627206Y-11124293D01*
X13627206Y-11124293D02*
X13617682Y-11105246D01*
X13617682Y-11105246D02*
X13617682Y-11095722D01*
X13617682Y-11095722D02*
X13627206Y-11076674D01*
X13627206Y-11076674D02*
X13646253Y-11067150D01*
X13646253Y-11067150D02*
X13674825Y-11067150D01*
X13674825Y-11067150D02*
X13693872Y-11076674D01*
X13770063Y-11276674D02*
X13779587Y-11267150D01*
X13779587Y-11267150D02*
X13798634Y-11238579D01*
X13798634Y-11238579D02*
X13808158Y-11219531D01*
X13808158Y-11219531D02*
X13817682Y-11190960D01*
X13817682Y-11190960D02*
X13827206Y-11143341D01*
X13827206Y-11143341D02*
X13827206Y-11105246D01*
X13827206Y-11105246D02*
X13817682Y-11057627D01*
X13817682Y-11057627D02*
X13808158Y-11029055D01*
X13808158Y-11029055D02*
X13798634Y-11010008D01*
X13798634Y-11010008D02*
X13779587Y-10981436D01*
X13779587Y-10981436D02*
X13770063Y-10971912D01*
D10*
X8970000Y-11348000D02*
X8970000Y-11398000D01*
X8945000Y-11373000D02*
X8995000Y-11373000D01*
D11*
X9293872Y-11264484D02*
X9312920Y-11264484D01*
X9312920Y-11264484D02*
X9331967Y-11274008D01*
X9331967Y-11274008D02*
X9341491Y-11283531D01*
X9341491Y-11283531D02*
X9351015Y-11302579D01*
X9351015Y-11302579D02*
X9360539Y-11340674D01*
X9360539Y-11340674D02*
X9360539Y-11388293D01*
X9360539Y-11388293D02*
X9351015Y-11426388D01*
X9351015Y-11426388D02*
X9341491Y-11445436D01*
X9341491Y-11445436D02*
X9331967Y-11454960D01*
X9331967Y-11454960D02*
X9312920Y-11464484D01*
X9312920Y-11464484D02*
X9293872Y-11464484D01*
X9293872Y-11464484D02*
X9274824Y-11454960D01*
X9274824Y-11454960D02*
X9265301Y-11445436D01*
X9265301Y-11445436D02*
X9255777Y-11426388D01*
X9255777Y-11426388D02*
X9246253Y-11388293D01*
X9246253Y-11388293D02*
X9246253Y-11340674D01*
X9246253Y-11340674D02*
X9255777Y-11302579D01*
X9255777Y-11302579D02*
X9265301Y-11283531D01*
X9265301Y-11283531D02*
X9274824Y-11274008D01*
X9274824Y-11274008D02*
X9293872Y-11264484D01*
X9446253Y-11445436D02*
X9455777Y-11454960D01*
X9455777Y-11454960D02*
X9446253Y-11464484D01*
X9446253Y-11464484D02*
X9436729Y-11454960D01*
X9436729Y-11454960D02*
X9446253Y-11445436D01*
X9446253Y-11445436D02*
X9446253Y-11464484D01*
X9636729Y-11264484D02*
X9541491Y-11264484D01*
X9541491Y-11264484D02*
X9531967Y-11359722D01*
X9531967Y-11359722D02*
X9541491Y-11350198D01*
X9541491Y-11350198D02*
X9560539Y-11340674D01*
X9560539Y-11340674D02*
X9608158Y-11340674D01*
X9608158Y-11340674D02*
X9627205Y-11350198D01*
X9627205Y-11350198D02*
X9636729Y-11359722D01*
X9636729Y-11359722D02*
X9646253Y-11378769D01*
X9646253Y-11378769D02*
X9646253Y-11426388D01*
X9646253Y-11426388D02*
X9636729Y-11445436D01*
X9636729Y-11445436D02*
X9627205Y-11454960D01*
X9627205Y-11454960D02*
X9608158Y-11464484D01*
X9608158Y-11464484D02*
X9560539Y-11464484D01*
X9560539Y-11464484D02*
X9541491Y-11454960D01*
X9541491Y-11454960D02*
X9531967Y-11445436D01*
X9770063Y-11264484D02*
X9789110Y-11264484D01*
X9789110Y-11264484D02*
X9808158Y-11274008D01*
X9808158Y-11274008D02*
X9817682Y-11283531D01*
X9817682Y-11283531D02*
X9827205Y-11302579D01*
X9827205Y-11302579D02*
X9836729Y-11340674D01*
X9836729Y-11340674D02*
X9836729Y-11388293D01*
X9836729Y-11388293D02*
X9827205Y-11426388D01*
X9827205Y-11426388D02*
X9817682Y-11445436D01*
X9817682Y-11445436D02*
X9808158Y-11454960D01*
X9808158Y-11454960D02*
X9789110Y-11464484D01*
X9789110Y-11464484D02*
X9770063Y-11464484D01*
X9770063Y-11464484D02*
X9751015Y-11454960D01*
X9751015Y-11454960D02*
X9741491Y-11445436D01*
X9741491Y-11445436D02*
X9731967Y-11426388D01*
X9731967Y-11426388D02*
X9722444Y-11388293D01*
X9722444Y-11388293D02*
X9722444Y-11340674D01*
X9722444Y-11340674D02*
X9731967Y-11302579D01*
X9731967Y-11302579D02*
X9741491Y-11283531D01*
X9741491Y-11283531D02*
X9751015Y-11274008D01*
X9751015Y-11274008D02*
X9770063Y-11264484D01*
X9960539Y-11264484D02*
X9979586Y-11264484D01*
X9979586Y-11264484D02*
X9998634Y-11274008D01*
X9998634Y-11274008D02*
X10008158Y-11283531D01*
X10008158Y-11283531D02*
X10017682Y-11302579D01*
X10017682Y-11302579D02*
X10027205Y-11340674D01*
X10027205Y-11340674D02*
X10027205Y-11388293D01*
X10027205Y-11388293D02*
X10017682Y-11426388D01*
X10017682Y-11426388D02*
X10008158Y-11445436D01*
X10008158Y-11445436D02*
X9998634Y-11454960D01*
X9998634Y-11454960D02*
X9979586Y-11464484D01*
X9979586Y-11464484D02*
X9960539Y-11464484D01*
X9960539Y-11464484D02*
X9941491Y-11454960D01*
X9941491Y-11454960D02*
X9931967Y-11445436D01*
X9931967Y-11445436D02*
X9922444Y-11426388D01*
X9922444Y-11426388D02*
X9912920Y-11388293D01*
X9912920Y-11388293D02*
X9912920Y-11340674D01*
X9912920Y-11340674D02*
X9922444Y-11302579D01*
X9922444Y-11302579D02*
X9931967Y-11283531D01*
X9931967Y-11283531D02*
X9941491Y-11274008D01*
X9941491Y-11274008D02*
X9960539Y-11264484D01*
X10112920Y-11464484D02*
X10112920Y-11331150D01*
X10112920Y-11350198D02*
X10122444Y-11340674D01*
X10122444Y-11340674D02*
X10141491Y-11331150D01*
X10141491Y-11331150D02*
X10170063Y-11331150D01*
X10170063Y-11331150D02*
X10189110Y-11340674D01*
X10189110Y-11340674D02*
X10198634Y-11359722D01*
X10198634Y-11359722D02*
X10198634Y-11464484D01*
X10198634Y-11359722D02*
X10208158Y-11340674D01*
X10208158Y-11340674D02*
X10227205Y-11331150D01*
X10227205Y-11331150D02*
X10255777Y-11331150D01*
X10255777Y-11331150D02*
X10274825Y-11340674D01*
X10274825Y-11340674D02*
X10284348Y-11359722D01*
X10284348Y-11359722D02*
X10284348Y-11464484D01*
X10379586Y-11464484D02*
X10379586Y-11331150D01*
X10379586Y-11350198D02*
X10389110Y-11340674D01*
X10389110Y-11340674D02*
X10408158Y-11331150D01*
X10408158Y-11331150D02*
X10436729Y-11331150D01*
X10436729Y-11331150D02*
X10455777Y-11340674D01*
X10455777Y-11340674D02*
X10465301Y-11359722D01*
X10465301Y-11359722D02*
X10465301Y-11464484D01*
X10465301Y-11359722D02*
X10474825Y-11340674D01*
X10474825Y-11340674D02*
X10493872Y-11331150D01*
X10493872Y-11331150D02*
X10522444Y-11331150D01*
X10522444Y-11331150D02*
X10541491Y-11340674D01*
X10541491Y-11340674D02*
X10551015Y-11359722D01*
X10551015Y-11359722D02*
X10551015Y-11464484D01*
X10941491Y-11254960D02*
X10770063Y-11512103D01*
X11198634Y-11264484D02*
X11217682Y-11264484D01*
X11217682Y-11264484D02*
X11236729Y-11274008D01*
X11236729Y-11274008D02*
X11246253Y-11283531D01*
X11246253Y-11283531D02*
X11255777Y-11302579D01*
X11255777Y-11302579D02*
X11265301Y-11340674D01*
X11265301Y-11340674D02*
X11265301Y-11388293D01*
X11265301Y-11388293D02*
X11255777Y-11426388D01*
X11255777Y-11426388D02*
X11246253Y-11445436D01*
X11246253Y-11445436D02*
X11236729Y-11454960D01*
X11236729Y-11454960D02*
X11217682Y-11464484D01*
X11217682Y-11464484D02*
X11198634Y-11464484D01*
X11198634Y-11464484D02*
X11179587Y-11454960D01*
X11179587Y-11454960D02*
X11170063Y-11445436D01*
X11170063Y-11445436D02*
X11160539Y-11426388D01*
X11160539Y-11426388D02*
X11151015Y-11388293D01*
X11151015Y-11388293D02*
X11151015Y-11340674D01*
X11151015Y-11340674D02*
X11160539Y-11302579D01*
X11160539Y-11302579D02*
X11170063Y-11283531D01*
X11170063Y-11283531D02*
X11179587Y-11274008D01*
X11179587Y-11274008D02*
X11198634Y-11264484D01*
X11351015Y-11445436D02*
X11360539Y-11454960D01*
X11360539Y-11454960D02*
X11351015Y-11464484D01*
X11351015Y-11464484D02*
X11341491Y-11454960D01*
X11341491Y-11454960D02*
X11351015Y-11445436D01*
X11351015Y-11445436D02*
X11351015Y-11464484D01*
X11484348Y-11264484D02*
X11503396Y-11264484D01*
X11503396Y-11264484D02*
X11522444Y-11274008D01*
X11522444Y-11274008D02*
X11531967Y-11283531D01*
X11531967Y-11283531D02*
X11541491Y-11302579D01*
X11541491Y-11302579D02*
X11551015Y-11340674D01*
X11551015Y-11340674D02*
X11551015Y-11388293D01*
X11551015Y-11388293D02*
X11541491Y-11426388D01*
X11541491Y-11426388D02*
X11531967Y-11445436D01*
X11531967Y-11445436D02*
X11522444Y-11454960D01*
X11522444Y-11454960D02*
X11503396Y-11464484D01*
X11503396Y-11464484D02*
X11484348Y-11464484D01*
X11484348Y-11464484D02*
X11465301Y-11454960D01*
X11465301Y-11454960D02*
X11455777Y-11445436D01*
X11455777Y-11445436D02*
X11446253Y-11426388D01*
X11446253Y-11426388D02*
X11436729Y-11388293D01*
X11436729Y-11388293D02*
X11436729Y-11340674D01*
X11436729Y-11340674D02*
X11446253Y-11302579D01*
X11446253Y-11302579D02*
X11455777Y-11283531D01*
X11455777Y-11283531D02*
X11465301Y-11274008D01*
X11465301Y-11274008D02*
X11484348Y-11264484D01*
X11741491Y-11464484D02*
X11627206Y-11464484D01*
X11684348Y-11464484D02*
X11684348Y-11264484D01*
X11684348Y-11264484D02*
X11665301Y-11293055D01*
X11665301Y-11293055D02*
X11646253Y-11312103D01*
X11646253Y-11312103D02*
X11627206Y-11321627D01*
X11836729Y-11464484D02*
X11874825Y-11464484D01*
X11874825Y-11464484D02*
X11893872Y-11454960D01*
X11893872Y-11454960D02*
X11903396Y-11445436D01*
X11903396Y-11445436D02*
X11922444Y-11416865D01*
X11922444Y-11416865D02*
X11931967Y-11378769D01*
X11931967Y-11378769D02*
X11931967Y-11302579D01*
X11931967Y-11302579D02*
X11922444Y-11283531D01*
X11922444Y-11283531D02*
X11912920Y-11274008D01*
X11912920Y-11274008D02*
X11893872Y-11264484D01*
X11893872Y-11264484D02*
X11855777Y-11264484D01*
X11855777Y-11264484D02*
X11836729Y-11274008D01*
X11836729Y-11274008D02*
X11827206Y-11283531D01*
X11827206Y-11283531D02*
X11817682Y-11302579D01*
X11817682Y-11302579D02*
X11817682Y-11350198D01*
X11817682Y-11350198D02*
X11827206Y-11369246D01*
X11827206Y-11369246D02*
X11836729Y-11378769D01*
X11836729Y-11378769D02*
X11855777Y-11388293D01*
X11855777Y-11388293D02*
X11893872Y-11388293D01*
X11893872Y-11388293D02*
X11912920Y-11378769D01*
X11912920Y-11378769D02*
X11922444Y-11369246D01*
X11922444Y-11369246D02*
X11931967Y-11350198D01*
X11998634Y-11264484D02*
X12131967Y-11264484D01*
X12131967Y-11264484D02*
X12046253Y-11464484D01*
X12198634Y-11264484D02*
X12198634Y-11302579D01*
X12274825Y-11264484D02*
X12274825Y-11302579D01*
X12570063Y-11540674D02*
X12560539Y-11531150D01*
X12560539Y-11531150D02*
X12541491Y-11502579D01*
X12541491Y-11502579D02*
X12531968Y-11483531D01*
X12531968Y-11483531D02*
X12522444Y-11454960D01*
X12522444Y-11454960D02*
X12512920Y-11407341D01*
X12512920Y-11407341D02*
X12512920Y-11369246D01*
X12512920Y-11369246D02*
X12522444Y-11321627D01*
X12522444Y-11321627D02*
X12531968Y-11293055D01*
X12531968Y-11293055D02*
X12541491Y-11274008D01*
X12541491Y-11274008D02*
X12560539Y-11245436D01*
X12560539Y-11245436D02*
X12570063Y-11235912D01*
X12684348Y-11264484D02*
X12703396Y-11264484D01*
X12703396Y-11264484D02*
X12722444Y-11274008D01*
X12722444Y-11274008D02*
X12731968Y-11283531D01*
X12731968Y-11283531D02*
X12741491Y-11302579D01*
X12741491Y-11302579D02*
X12751015Y-11340674D01*
X12751015Y-11340674D02*
X12751015Y-11388293D01*
X12751015Y-11388293D02*
X12741491Y-11426388D01*
X12741491Y-11426388D02*
X12731968Y-11445436D01*
X12731968Y-11445436D02*
X12722444Y-11454960D01*
X12722444Y-11454960D02*
X12703396Y-11464484D01*
X12703396Y-11464484D02*
X12684348Y-11464484D01*
X12684348Y-11464484D02*
X12665301Y-11454960D01*
X12665301Y-11454960D02*
X12655777Y-11445436D01*
X12655777Y-11445436D02*
X12646253Y-11426388D01*
X12646253Y-11426388D02*
X12636729Y-11388293D01*
X12636729Y-11388293D02*
X12636729Y-11340674D01*
X12636729Y-11340674D02*
X12646253Y-11302579D01*
X12646253Y-11302579D02*
X12655777Y-11283531D01*
X12655777Y-11283531D02*
X12665301Y-11274008D01*
X12665301Y-11274008D02*
X12684348Y-11264484D01*
X12989110Y-11464484D02*
X12989110Y-11264484D01*
X13074825Y-11464484D02*
X13074825Y-11359722D01*
X13074825Y-11359722D02*
X13065301Y-11340674D01*
X13065301Y-11340674D02*
X13046253Y-11331150D01*
X13046253Y-11331150D02*
X13017682Y-11331150D01*
X13017682Y-11331150D02*
X12998634Y-11340674D01*
X12998634Y-11340674D02*
X12989110Y-11350198D01*
X13198634Y-11464484D02*
X13179587Y-11454960D01*
X13179587Y-11454960D02*
X13170063Y-11445436D01*
X13170063Y-11445436D02*
X13160539Y-11426388D01*
X13160539Y-11426388D02*
X13160539Y-11369246D01*
X13160539Y-11369246D02*
X13170063Y-11350198D01*
X13170063Y-11350198D02*
X13179587Y-11340674D01*
X13179587Y-11340674D02*
X13198634Y-11331150D01*
X13198634Y-11331150D02*
X13227206Y-11331150D01*
X13227206Y-11331150D02*
X13246253Y-11340674D01*
X13246253Y-11340674D02*
X13255777Y-11350198D01*
X13255777Y-11350198D02*
X13265301Y-11369246D01*
X13265301Y-11369246D02*
X13265301Y-11426388D01*
X13265301Y-11426388D02*
X13255777Y-11445436D01*
X13255777Y-11445436D02*
X13246253Y-11454960D01*
X13246253Y-11454960D02*
X13227206Y-11464484D01*
X13227206Y-11464484D02*
X13198634Y-11464484D01*
X13379587Y-11464484D02*
X13360539Y-11454960D01*
X13360539Y-11454960D02*
X13351015Y-11435912D01*
X13351015Y-11435912D02*
X13351015Y-11264484D01*
X13531968Y-11454960D02*
X13512920Y-11464484D01*
X13512920Y-11464484D02*
X13474825Y-11464484D01*
X13474825Y-11464484D02*
X13455777Y-11454960D01*
X13455777Y-11454960D02*
X13446253Y-11435912D01*
X13446253Y-11435912D02*
X13446253Y-11359722D01*
X13446253Y-11359722D02*
X13455777Y-11340674D01*
X13455777Y-11340674D02*
X13474825Y-11331150D01*
X13474825Y-11331150D02*
X13512920Y-11331150D01*
X13512920Y-11331150D02*
X13531968Y-11340674D01*
X13531968Y-11340674D02*
X13541491Y-11359722D01*
X13541491Y-11359722D02*
X13541491Y-11378769D01*
X13541491Y-11378769D02*
X13446253Y-11397817D01*
X13617682Y-11454960D02*
X13636730Y-11464484D01*
X13636730Y-11464484D02*
X13674825Y-11464484D01*
X13674825Y-11464484D02*
X13693872Y-11454960D01*
X13693872Y-11454960D02*
X13703396Y-11435912D01*
X13703396Y-11435912D02*
X13703396Y-11426388D01*
X13703396Y-11426388D02*
X13693872Y-11407341D01*
X13693872Y-11407341D02*
X13674825Y-11397817D01*
X13674825Y-11397817D02*
X13646253Y-11397817D01*
X13646253Y-11397817D02*
X13627206Y-11388293D01*
X13627206Y-11388293D02*
X13617682Y-11369246D01*
X13617682Y-11369246D02*
X13617682Y-11359722D01*
X13617682Y-11359722D02*
X13627206Y-11340674D01*
X13627206Y-11340674D02*
X13646253Y-11331150D01*
X13646253Y-11331150D02*
X13674825Y-11331150D01*
X13674825Y-11331150D02*
X13693872Y-11340674D01*
X13941492Y-11388293D02*
X14093873Y-11388293D01*
X14017682Y-11464484D02*
X14017682Y-11312103D01*
X14331968Y-11283531D02*
X14341492Y-11274008D01*
X14341492Y-11274008D02*
X14360539Y-11264484D01*
X14360539Y-11264484D02*
X14408158Y-11264484D01*
X14408158Y-11264484D02*
X14427206Y-11274008D01*
X14427206Y-11274008D02*
X14436730Y-11283531D01*
X14436730Y-11283531D02*
X14446253Y-11302579D01*
X14446253Y-11302579D02*
X14446253Y-11321627D01*
X14446253Y-11321627D02*
X14436730Y-11350198D01*
X14436730Y-11350198D02*
X14322444Y-11464484D01*
X14322444Y-11464484D02*
X14446253Y-11464484D01*
X14674825Y-11454960D02*
X14693873Y-11464484D01*
X14693873Y-11464484D02*
X14731968Y-11464484D01*
X14731968Y-11464484D02*
X14751015Y-11454960D01*
X14751015Y-11454960D02*
X14760539Y-11435912D01*
X14760539Y-11435912D02*
X14760539Y-11426388D01*
X14760539Y-11426388D02*
X14751015Y-11407341D01*
X14751015Y-11407341D02*
X14731968Y-11397817D01*
X14731968Y-11397817D02*
X14703396Y-11397817D01*
X14703396Y-11397817D02*
X14684349Y-11388293D01*
X14684349Y-11388293D02*
X14674825Y-11369246D01*
X14674825Y-11369246D02*
X14674825Y-11359722D01*
X14674825Y-11359722D02*
X14684349Y-11340674D01*
X14684349Y-11340674D02*
X14703396Y-11331150D01*
X14703396Y-11331150D02*
X14731968Y-11331150D01*
X14731968Y-11331150D02*
X14751015Y-11340674D01*
X14874825Y-11464484D02*
X14855777Y-11454960D01*
X14855777Y-11454960D02*
X14846254Y-11435912D01*
X14846254Y-11435912D02*
X14846254Y-11264484D01*
X14979587Y-11464484D02*
X14960539Y-11454960D01*
X14960539Y-11454960D02*
X14951015Y-11445436D01*
X14951015Y-11445436D02*
X14941492Y-11426388D01*
X14941492Y-11426388D02*
X14941492Y-11369246D01*
X14941492Y-11369246D02*
X14951015Y-11350198D01*
X14951015Y-11350198D02*
X14960539Y-11340674D01*
X14960539Y-11340674D02*
X14979587Y-11331150D01*
X14979587Y-11331150D02*
X15008158Y-11331150D01*
X15008158Y-11331150D02*
X15027206Y-11340674D01*
X15027206Y-11340674D02*
X15036730Y-11350198D01*
X15036730Y-11350198D02*
X15046254Y-11369246D01*
X15046254Y-11369246D02*
X15046254Y-11426388D01*
X15046254Y-11426388D02*
X15036730Y-11445436D01*
X15036730Y-11445436D02*
X15027206Y-11454960D01*
X15027206Y-11454960D02*
X15008158Y-11464484D01*
X15008158Y-11464484D02*
X14979587Y-11464484D01*
X15103396Y-11331150D02*
X15179587Y-11331150D01*
X15131968Y-11264484D02*
X15131968Y-11435912D01*
X15131968Y-11435912D02*
X15141492Y-11454960D01*
X15141492Y-11454960D02*
X15160539Y-11464484D01*
X15160539Y-11464484D02*
X15179587Y-11464484D01*
X15236730Y-11454960D02*
X15255777Y-11464484D01*
X15255777Y-11464484D02*
X15293873Y-11464484D01*
X15293873Y-11464484D02*
X15312920Y-11454960D01*
X15312920Y-11454960D02*
X15322444Y-11435912D01*
X15322444Y-11435912D02*
X15322444Y-11426388D01*
X15322444Y-11426388D02*
X15312920Y-11407341D01*
X15312920Y-11407341D02*
X15293873Y-11397817D01*
X15293873Y-11397817D02*
X15265301Y-11397817D01*
X15265301Y-11397817D02*
X15246254Y-11388293D01*
X15246254Y-11388293D02*
X15236730Y-11369246D01*
X15236730Y-11369246D02*
X15236730Y-11359722D01*
X15236730Y-11359722D02*
X15246254Y-11340674D01*
X15246254Y-11340674D02*
X15265301Y-11331150D01*
X15265301Y-11331150D02*
X15293873Y-11331150D01*
X15293873Y-11331150D02*
X15312920Y-11340674D01*
X15389111Y-11540674D02*
X15398635Y-11531150D01*
X15398635Y-11531150D02*
X15417682Y-11502579D01*
X15417682Y-11502579D02*
X15427206Y-11483531D01*
X15427206Y-11483531D02*
X15436730Y-11454960D01*
X15436730Y-11454960D02*
X15446254Y-11407341D01*
X15446254Y-11407341D02*
X15446254Y-11369246D01*
X15446254Y-11369246D02*
X15436730Y-11321627D01*
X15436730Y-11321627D02*
X15427206Y-11293055D01*
X15427206Y-11293055D02*
X15417682Y-11274008D01*
X15417682Y-11274008D02*
X15398635Y-11245436D01*
X15398635Y-11245436D02*
X15389111Y-11235912D01*
D10*
X8980356Y-11672356D02*
X8980356Y-11601644D01*
X8909644Y-11601644D01*
X8909644Y-11672356D01*
X8980356Y-11672356D01*
D11*
X9360539Y-11728484D02*
X9246253Y-11728484D01*
X9303396Y-11728484D02*
X9303396Y-11528484D01*
X9303396Y-11528484D02*
X9284348Y-11557055D01*
X9284348Y-11557055D02*
X9265301Y-11576103D01*
X9265301Y-11576103D02*
X9246253Y-11585627D01*
X9446253Y-11709436D02*
X9455777Y-11718960D01*
X9455777Y-11718960D02*
X9446253Y-11728484D01*
X9446253Y-11728484D02*
X9436729Y-11718960D01*
X9436729Y-11718960D02*
X9446253Y-11709436D01*
X9446253Y-11709436D02*
X9446253Y-11728484D01*
X9579586Y-11528484D02*
X9598634Y-11528484D01*
X9598634Y-11528484D02*
X9617682Y-11538008D01*
X9617682Y-11538008D02*
X9627205Y-11547531D01*
X9627205Y-11547531D02*
X9636729Y-11566579D01*
X9636729Y-11566579D02*
X9646253Y-11604674D01*
X9646253Y-11604674D02*
X9646253Y-11652293D01*
X9646253Y-11652293D02*
X9636729Y-11690388D01*
X9636729Y-11690388D02*
X9627205Y-11709436D01*
X9627205Y-11709436D02*
X9617682Y-11718960D01*
X9617682Y-11718960D02*
X9598634Y-11728484D01*
X9598634Y-11728484D02*
X9579586Y-11728484D01*
X9579586Y-11728484D02*
X9560539Y-11718960D01*
X9560539Y-11718960D02*
X9551015Y-11709436D01*
X9551015Y-11709436D02*
X9541491Y-11690388D01*
X9541491Y-11690388D02*
X9531967Y-11652293D01*
X9531967Y-11652293D02*
X9531967Y-11604674D01*
X9531967Y-11604674D02*
X9541491Y-11566579D01*
X9541491Y-11566579D02*
X9551015Y-11547531D01*
X9551015Y-11547531D02*
X9560539Y-11538008D01*
X9560539Y-11538008D02*
X9579586Y-11528484D01*
X9770063Y-11528484D02*
X9789110Y-11528484D01*
X9789110Y-11528484D02*
X9808158Y-11538008D01*
X9808158Y-11538008D02*
X9817682Y-11547531D01*
X9817682Y-11547531D02*
X9827205Y-11566579D01*
X9827205Y-11566579D02*
X9836729Y-11604674D01*
X9836729Y-11604674D02*
X9836729Y-11652293D01*
X9836729Y-11652293D02*
X9827205Y-11690388D01*
X9827205Y-11690388D02*
X9817682Y-11709436D01*
X9817682Y-11709436D02*
X9808158Y-11718960D01*
X9808158Y-11718960D02*
X9789110Y-11728484D01*
X9789110Y-11728484D02*
X9770063Y-11728484D01*
X9770063Y-11728484D02*
X9751015Y-11718960D01*
X9751015Y-11718960D02*
X9741491Y-11709436D01*
X9741491Y-11709436D02*
X9731967Y-11690388D01*
X9731967Y-11690388D02*
X9722444Y-11652293D01*
X9722444Y-11652293D02*
X9722444Y-11604674D01*
X9722444Y-11604674D02*
X9731967Y-11566579D01*
X9731967Y-11566579D02*
X9741491Y-11547531D01*
X9741491Y-11547531D02*
X9751015Y-11538008D01*
X9751015Y-11538008D02*
X9770063Y-11528484D01*
X9960539Y-11528484D02*
X9979586Y-11528484D01*
X9979586Y-11528484D02*
X9998634Y-11538008D01*
X9998634Y-11538008D02*
X10008158Y-11547531D01*
X10008158Y-11547531D02*
X10017682Y-11566579D01*
X10017682Y-11566579D02*
X10027205Y-11604674D01*
X10027205Y-11604674D02*
X10027205Y-11652293D01*
X10027205Y-11652293D02*
X10017682Y-11690388D01*
X10017682Y-11690388D02*
X10008158Y-11709436D01*
X10008158Y-11709436D02*
X9998634Y-11718960D01*
X9998634Y-11718960D02*
X9979586Y-11728484D01*
X9979586Y-11728484D02*
X9960539Y-11728484D01*
X9960539Y-11728484D02*
X9941491Y-11718960D01*
X9941491Y-11718960D02*
X9931967Y-11709436D01*
X9931967Y-11709436D02*
X9922444Y-11690388D01*
X9922444Y-11690388D02*
X9912920Y-11652293D01*
X9912920Y-11652293D02*
X9912920Y-11604674D01*
X9912920Y-11604674D02*
X9922444Y-11566579D01*
X9922444Y-11566579D02*
X9931967Y-11547531D01*
X9931967Y-11547531D02*
X9941491Y-11538008D01*
X9941491Y-11538008D02*
X9960539Y-11528484D01*
X10112920Y-11728484D02*
X10112920Y-11595150D01*
X10112920Y-11614198D02*
X10122444Y-11604674D01*
X10122444Y-11604674D02*
X10141491Y-11595150D01*
X10141491Y-11595150D02*
X10170063Y-11595150D01*
X10170063Y-11595150D02*
X10189110Y-11604674D01*
X10189110Y-11604674D02*
X10198634Y-11623722D01*
X10198634Y-11623722D02*
X10198634Y-11728484D01*
X10198634Y-11623722D02*
X10208158Y-11604674D01*
X10208158Y-11604674D02*
X10227205Y-11595150D01*
X10227205Y-11595150D02*
X10255777Y-11595150D01*
X10255777Y-11595150D02*
X10274825Y-11604674D01*
X10274825Y-11604674D02*
X10284348Y-11623722D01*
X10284348Y-11623722D02*
X10284348Y-11728484D01*
X10379586Y-11728484D02*
X10379586Y-11595150D01*
X10379586Y-11614198D02*
X10389110Y-11604674D01*
X10389110Y-11604674D02*
X10408158Y-11595150D01*
X10408158Y-11595150D02*
X10436729Y-11595150D01*
X10436729Y-11595150D02*
X10455777Y-11604674D01*
X10455777Y-11604674D02*
X10465301Y-11623722D01*
X10465301Y-11623722D02*
X10465301Y-11728484D01*
X10465301Y-11623722D02*
X10474825Y-11604674D01*
X10474825Y-11604674D02*
X10493872Y-11595150D01*
X10493872Y-11595150D02*
X10522444Y-11595150D01*
X10522444Y-11595150D02*
X10541491Y-11604674D01*
X10541491Y-11604674D02*
X10551015Y-11623722D01*
X10551015Y-11623722D02*
X10551015Y-11728484D01*
X10941491Y-11518960D02*
X10770063Y-11776103D01*
X11198634Y-11528484D02*
X11217682Y-11528484D01*
X11217682Y-11528484D02*
X11236729Y-11538008D01*
X11236729Y-11538008D02*
X11246253Y-11547531D01*
X11246253Y-11547531D02*
X11255777Y-11566579D01*
X11255777Y-11566579D02*
X11265301Y-11604674D01*
X11265301Y-11604674D02*
X11265301Y-11652293D01*
X11265301Y-11652293D02*
X11255777Y-11690388D01*
X11255777Y-11690388D02*
X11246253Y-11709436D01*
X11246253Y-11709436D02*
X11236729Y-11718960D01*
X11236729Y-11718960D02*
X11217682Y-11728484D01*
X11217682Y-11728484D02*
X11198634Y-11728484D01*
X11198634Y-11728484D02*
X11179587Y-11718960D01*
X11179587Y-11718960D02*
X11170063Y-11709436D01*
X11170063Y-11709436D02*
X11160539Y-11690388D01*
X11160539Y-11690388D02*
X11151015Y-11652293D01*
X11151015Y-11652293D02*
X11151015Y-11604674D01*
X11151015Y-11604674D02*
X11160539Y-11566579D01*
X11160539Y-11566579D02*
X11170063Y-11547531D01*
X11170063Y-11547531D02*
X11179587Y-11538008D01*
X11179587Y-11538008D02*
X11198634Y-11528484D01*
X11351015Y-11709436D02*
X11360539Y-11718960D01*
X11360539Y-11718960D02*
X11351015Y-11728484D01*
X11351015Y-11728484D02*
X11341491Y-11718960D01*
X11341491Y-11718960D02*
X11351015Y-11709436D01*
X11351015Y-11709436D02*
X11351015Y-11728484D01*
X11484348Y-11528484D02*
X11503396Y-11528484D01*
X11503396Y-11528484D02*
X11522444Y-11538008D01*
X11522444Y-11538008D02*
X11531967Y-11547531D01*
X11531967Y-11547531D02*
X11541491Y-11566579D01*
X11541491Y-11566579D02*
X11551015Y-11604674D01*
X11551015Y-11604674D02*
X11551015Y-11652293D01*
X11551015Y-11652293D02*
X11541491Y-11690388D01*
X11541491Y-11690388D02*
X11531967Y-11709436D01*
X11531967Y-11709436D02*
X11522444Y-11718960D01*
X11522444Y-11718960D02*
X11503396Y-11728484D01*
X11503396Y-11728484D02*
X11484348Y-11728484D01*
X11484348Y-11728484D02*
X11465301Y-11718960D01*
X11465301Y-11718960D02*
X11455777Y-11709436D01*
X11455777Y-11709436D02*
X11446253Y-11690388D01*
X11446253Y-11690388D02*
X11436729Y-11652293D01*
X11436729Y-11652293D02*
X11436729Y-11604674D01*
X11436729Y-11604674D02*
X11446253Y-11566579D01*
X11446253Y-11566579D02*
X11455777Y-11547531D01*
X11455777Y-11547531D02*
X11465301Y-11538008D01*
X11465301Y-11538008D02*
X11484348Y-11528484D01*
X11617682Y-11528484D02*
X11741491Y-11528484D01*
X11741491Y-11528484D02*
X11674825Y-11604674D01*
X11674825Y-11604674D02*
X11703396Y-11604674D01*
X11703396Y-11604674D02*
X11722444Y-11614198D01*
X11722444Y-11614198D02*
X11731967Y-11623722D01*
X11731967Y-11623722D02*
X11741491Y-11642769D01*
X11741491Y-11642769D02*
X11741491Y-11690388D01*
X11741491Y-11690388D02*
X11731967Y-11709436D01*
X11731967Y-11709436D02*
X11722444Y-11718960D01*
X11722444Y-11718960D02*
X11703396Y-11728484D01*
X11703396Y-11728484D02*
X11646253Y-11728484D01*
X11646253Y-11728484D02*
X11627206Y-11718960D01*
X11627206Y-11718960D02*
X11617682Y-11709436D01*
X11836729Y-11728484D02*
X11874825Y-11728484D01*
X11874825Y-11728484D02*
X11893872Y-11718960D01*
X11893872Y-11718960D02*
X11903396Y-11709436D01*
X11903396Y-11709436D02*
X11922444Y-11680865D01*
X11922444Y-11680865D02*
X11931967Y-11642769D01*
X11931967Y-11642769D02*
X11931967Y-11566579D01*
X11931967Y-11566579D02*
X11922444Y-11547531D01*
X11922444Y-11547531D02*
X11912920Y-11538008D01*
X11912920Y-11538008D02*
X11893872Y-11528484D01*
X11893872Y-11528484D02*
X11855777Y-11528484D01*
X11855777Y-11528484D02*
X11836729Y-11538008D01*
X11836729Y-11538008D02*
X11827206Y-11547531D01*
X11827206Y-11547531D02*
X11817682Y-11566579D01*
X11817682Y-11566579D02*
X11817682Y-11614198D01*
X11817682Y-11614198D02*
X11827206Y-11633246D01*
X11827206Y-11633246D02*
X11836729Y-11642769D01*
X11836729Y-11642769D02*
X11855777Y-11652293D01*
X11855777Y-11652293D02*
X11893872Y-11652293D01*
X11893872Y-11652293D02*
X11912920Y-11642769D01*
X11912920Y-11642769D02*
X11922444Y-11633246D01*
X11922444Y-11633246D02*
X11931967Y-11614198D01*
X12103396Y-11595150D02*
X12103396Y-11728484D01*
X12055777Y-11518960D02*
X12008158Y-11661817D01*
X12008158Y-11661817D02*
X12131967Y-11661817D01*
X12198634Y-11528484D02*
X12198634Y-11566579D01*
X12274825Y-11528484D02*
X12274825Y-11566579D01*
X12570063Y-11804674D02*
X12560539Y-11795150D01*
X12560539Y-11795150D02*
X12541491Y-11766579D01*
X12541491Y-11766579D02*
X12531968Y-11747531D01*
X12531968Y-11747531D02*
X12522444Y-11718960D01*
X12522444Y-11718960D02*
X12512920Y-11671341D01*
X12512920Y-11671341D02*
X12512920Y-11633246D01*
X12512920Y-11633246D02*
X12522444Y-11585627D01*
X12522444Y-11585627D02*
X12531968Y-11557055D01*
X12531968Y-11557055D02*
X12541491Y-11538008D01*
X12541491Y-11538008D02*
X12560539Y-11509436D01*
X12560539Y-11509436D02*
X12570063Y-11499912D01*
X12751015Y-11728484D02*
X12636729Y-11728484D01*
X12693872Y-11728484D02*
X12693872Y-11528484D01*
X12693872Y-11528484D02*
X12674825Y-11557055D01*
X12674825Y-11557055D02*
X12655777Y-11576103D01*
X12655777Y-11576103D02*
X12636729Y-11585627D01*
X12817682Y-11528484D02*
X12941491Y-11528484D01*
X12941491Y-11528484D02*
X12874825Y-11604674D01*
X12874825Y-11604674D02*
X12903396Y-11604674D01*
X12903396Y-11604674D02*
X12922444Y-11614198D01*
X12922444Y-11614198D02*
X12931968Y-11623722D01*
X12931968Y-11623722D02*
X12941491Y-11642769D01*
X12941491Y-11642769D02*
X12941491Y-11690388D01*
X12941491Y-11690388D02*
X12931968Y-11709436D01*
X12931968Y-11709436D02*
X12922444Y-11718960D01*
X12922444Y-11718960D02*
X12903396Y-11728484D01*
X12903396Y-11728484D02*
X12846253Y-11728484D01*
X12846253Y-11728484D02*
X12827206Y-11718960D01*
X12827206Y-11718960D02*
X12817682Y-11709436D01*
X13179587Y-11728484D02*
X13179587Y-11528484D01*
X13265301Y-11728484D02*
X13265301Y-11623722D01*
X13265301Y-11623722D02*
X13255777Y-11604674D01*
X13255777Y-11604674D02*
X13236730Y-11595150D01*
X13236730Y-11595150D02*
X13208158Y-11595150D01*
X13208158Y-11595150D02*
X13189110Y-11604674D01*
X13189110Y-11604674D02*
X13179587Y-11614198D01*
X13389110Y-11728484D02*
X13370063Y-11718960D01*
X13370063Y-11718960D02*
X13360539Y-11709436D01*
X13360539Y-11709436D02*
X13351015Y-11690388D01*
X13351015Y-11690388D02*
X13351015Y-11633246D01*
X13351015Y-11633246D02*
X13360539Y-11614198D01*
X13360539Y-11614198D02*
X13370063Y-11604674D01*
X13370063Y-11604674D02*
X13389110Y-11595150D01*
X13389110Y-11595150D02*
X13417682Y-11595150D01*
X13417682Y-11595150D02*
X13436730Y-11604674D01*
X13436730Y-11604674D02*
X13446253Y-11614198D01*
X13446253Y-11614198D02*
X13455777Y-11633246D01*
X13455777Y-11633246D02*
X13455777Y-11690388D01*
X13455777Y-11690388D02*
X13446253Y-11709436D01*
X13446253Y-11709436D02*
X13436730Y-11718960D01*
X13436730Y-11718960D02*
X13417682Y-11728484D01*
X13417682Y-11728484D02*
X13389110Y-11728484D01*
X13570063Y-11728484D02*
X13551015Y-11718960D01*
X13551015Y-11718960D02*
X13541491Y-11699912D01*
X13541491Y-11699912D02*
X13541491Y-11528484D01*
X13722444Y-11718960D02*
X13703396Y-11728484D01*
X13703396Y-11728484D02*
X13665301Y-11728484D01*
X13665301Y-11728484D02*
X13646253Y-11718960D01*
X13646253Y-11718960D02*
X13636730Y-11699912D01*
X13636730Y-11699912D02*
X13636730Y-11623722D01*
X13636730Y-11623722D02*
X13646253Y-11604674D01*
X13646253Y-11604674D02*
X13665301Y-11595150D01*
X13665301Y-11595150D02*
X13703396Y-11595150D01*
X13703396Y-11595150D02*
X13722444Y-11604674D01*
X13722444Y-11604674D02*
X13731968Y-11623722D01*
X13731968Y-11623722D02*
X13731968Y-11642769D01*
X13731968Y-11642769D02*
X13636730Y-11661817D01*
X13808158Y-11718960D02*
X13827206Y-11728484D01*
X13827206Y-11728484D02*
X13865301Y-11728484D01*
X13865301Y-11728484D02*
X13884349Y-11718960D01*
X13884349Y-11718960D02*
X13893872Y-11699912D01*
X13893872Y-11699912D02*
X13893872Y-11690388D01*
X13893872Y-11690388D02*
X13884349Y-11671341D01*
X13884349Y-11671341D02*
X13865301Y-11661817D01*
X13865301Y-11661817D02*
X13836730Y-11661817D01*
X13836730Y-11661817D02*
X13817682Y-11652293D01*
X13817682Y-11652293D02*
X13808158Y-11633246D01*
X13808158Y-11633246D02*
X13808158Y-11623722D01*
X13808158Y-11623722D02*
X13817682Y-11604674D01*
X13817682Y-11604674D02*
X13836730Y-11595150D01*
X13836730Y-11595150D02*
X13865301Y-11595150D01*
X13865301Y-11595150D02*
X13884349Y-11604674D01*
X13960539Y-11804674D02*
X13970063Y-11795150D01*
X13970063Y-11795150D02*
X13989111Y-11766579D01*
X13989111Y-11766579D02*
X13998634Y-11747531D01*
X13998634Y-11747531D02*
X14008158Y-11718960D01*
X14008158Y-11718960D02*
X14017682Y-11671341D01*
X14017682Y-11671341D02*
X14017682Y-11633246D01*
X14017682Y-11633246D02*
X14008158Y-11585627D01*
X14008158Y-11585627D02*
X13998634Y-11557055D01*
X13998634Y-11557055D02*
X13989111Y-11538008D01*
X13989111Y-11538008D02*
X13970063Y-11509436D01*
X13970063Y-11509436D02*
X13960539Y-11499912D01*
X8895000Y-12001000D02*
X8995000Y-11901000D01*
X8895000Y-11801000D01*
X8795000Y-11901000D01*
X8895000Y-12001000D01*
X9236729Y-11792484D02*
X9360539Y-11792484D01*
X9360539Y-11792484D02*
X9293872Y-11868674D01*
X9293872Y-11868674D02*
X9322444Y-11868674D01*
X9322444Y-11868674D02*
X9341491Y-11878198D01*
X9341491Y-11878198D02*
X9351015Y-11887722D01*
X9351015Y-11887722D02*
X9360539Y-11906769D01*
X9360539Y-11906769D02*
X9360539Y-11954388D01*
X9360539Y-11954388D02*
X9351015Y-11973436D01*
X9351015Y-11973436D02*
X9341491Y-11982960D01*
X9341491Y-11982960D02*
X9322444Y-11992484D01*
X9322444Y-11992484D02*
X9265301Y-11992484D01*
X9265301Y-11992484D02*
X9246253Y-11982960D01*
X9246253Y-11982960D02*
X9236729Y-11973436D01*
X9446253Y-11973436D02*
X9455777Y-11982960D01*
X9455777Y-11982960D02*
X9446253Y-11992484D01*
X9446253Y-11992484D02*
X9436729Y-11982960D01*
X9436729Y-11982960D02*
X9446253Y-11973436D01*
X9446253Y-11973436D02*
X9446253Y-11992484D01*
X9531967Y-11811531D02*
X9541491Y-11802008D01*
X9541491Y-11802008D02*
X9560539Y-11792484D01*
X9560539Y-11792484D02*
X9608158Y-11792484D01*
X9608158Y-11792484D02*
X9627205Y-11802008D01*
X9627205Y-11802008D02*
X9636729Y-11811531D01*
X9636729Y-11811531D02*
X9646253Y-11830579D01*
X9646253Y-11830579D02*
X9646253Y-11849627D01*
X9646253Y-11849627D02*
X9636729Y-11878198D01*
X9636729Y-11878198D02*
X9522444Y-11992484D01*
X9522444Y-11992484D02*
X9646253Y-11992484D01*
X9827205Y-11792484D02*
X9731967Y-11792484D01*
X9731967Y-11792484D02*
X9722444Y-11887722D01*
X9722444Y-11887722D02*
X9731967Y-11878198D01*
X9731967Y-11878198D02*
X9751015Y-11868674D01*
X9751015Y-11868674D02*
X9798634Y-11868674D01*
X9798634Y-11868674D02*
X9817682Y-11878198D01*
X9817682Y-11878198D02*
X9827205Y-11887722D01*
X9827205Y-11887722D02*
X9836729Y-11906769D01*
X9836729Y-11906769D02*
X9836729Y-11954388D01*
X9836729Y-11954388D02*
X9827205Y-11973436D01*
X9827205Y-11973436D02*
X9817682Y-11982960D01*
X9817682Y-11982960D02*
X9798634Y-11992484D01*
X9798634Y-11992484D02*
X9751015Y-11992484D01*
X9751015Y-11992484D02*
X9731967Y-11982960D01*
X9731967Y-11982960D02*
X9722444Y-11973436D01*
X9960539Y-11792484D02*
X9979586Y-11792484D01*
X9979586Y-11792484D02*
X9998634Y-11802008D01*
X9998634Y-11802008D02*
X10008158Y-11811531D01*
X10008158Y-11811531D02*
X10017682Y-11830579D01*
X10017682Y-11830579D02*
X10027205Y-11868674D01*
X10027205Y-11868674D02*
X10027205Y-11916293D01*
X10027205Y-11916293D02*
X10017682Y-11954388D01*
X10017682Y-11954388D02*
X10008158Y-11973436D01*
X10008158Y-11973436D02*
X9998634Y-11982960D01*
X9998634Y-11982960D02*
X9979586Y-11992484D01*
X9979586Y-11992484D02*
X9960539Y-11992484D01*
X9960539Y-11992484D02*
X9941491Y-11982960D01*
X9941491Y-11982960D02*
X9931967Y-11973436D01*
X9931967Y-11973436D02*
X9922444Y-11954388D01*
X9922444Y-11954388D02*
X9912920Y-11916293D01*
X9912920Y-11916293D02*
X9912920Y-11868674D01*
X9912920Y-11868674D02*
X9922444Y-11830579D01*
X9922444Y-11830579D02*
X9931967Y-11811531D01*
X9931967Y-11811531D02*
X9941491Y-11802008D01*
X9941491Y-11802008D02*
X9960539Y-11792484D01*
X10112920Y-11992484D02*
X10112920Y-11859150D01*
X10112920Y-11878198D02*
X10122444Y-11868674D01*
X10122444Y-11868674D02*
X10141491Y-11859150D01*
X10141491Y-11859150D02*
X10170063Y-11859150D01*
X10170063Y-11859150D02*
X10189110Y-11868674D01*
X10189110Y-11868674D02*
X10198634Y-11887722D01*
X10198634Y-11887722D02*
X10198634Y-11992484D01*
X10198634Y-11887722D02*
X10208158Y-11868674D01*
X10208158Y-11868674D02*
X10227205Y-11859150D01*
X10227205Y-11859150D02*
X10255777Y-11859150D01*
X10255777Y-11859150D02*
X10274825Y-11868674D01*
X10274825Y-11868674D02*
X10284348Y-11887722D01*
X10284348Y-11887722D02*
X10284348Y-11992484D01*
X10379586Y-11992484D02*
X10379586Y-11859150D01*
X10379586Y-11878198D02*
X10389110Y-11868674D01*
X10389110Y-11868674D02*
X10408158Y-11859150D01*
X10408158Y-11859150D02*
X10436729Y-11859150D01*
X10436729Y-11859150D02*
X10455777Y-11868674D01*
X10455777Y-11868674D02*
X10465301Y-11887722D01*
X10465301Y-11887722D02*
X10465301Y-11992484D01*
X10465301Y-11887722D02*
X10474825Y-11868674D01*
X10474825Y-11868674D02*
X10493872Y-11859150D01*
X10493872Y-11859150D02*
X10522444Y-11859150D01*
X10522444Y-11859150D02*
X10541491Y-11868674D01*
X10541491Y-11868674D02*
X10551015Y-11887722D01*
X10551015Y-11887722D02*
X10551015Y-11992484D01*
X10941491Y-11782960D02*
X10770063Y-12040103D01*
X11198634Y-11792484D02*
X11217682Y-11792484D01*
X11217682Y-11792484D02*
X11236729Y-11802008D01*
X11236729Y-11802008D02*
X11246253Y-11811531D01*
X11246253Y-11811531D02*
X11255777Y-11830579D01*
X11255777Y-11830579D02*
X11265301Y-11868674D01*
X11265301Y-11868674D02*
X11265301Y-11916293D01*
X11265301Y-11916293D02*
X11255777Y-11954388D01*
X11255777Y-11954388D02*
X11246253Y-11973436D01*
X11246253Y-11973436D02*
X11236729Y-11982960D01*
X11236729Y-11982960D02*
X11217682Y-11992484D01*
X11217682Y-11992484D02*
X11198634Y-11992484D01*
X11198634Y-11992484D02*
X11179587Y-11982960D01*
X11179587Y-11982960D02*
X11170063Y-11973436D01*
X11170063Y-11973436D02*
X11160539Y-11954388D01*
X11160539Y-11954388D02*
X11151015Y-11916293D01*
X11151015Y-11916293D02*
X11151015Y-11868674D01*
X11151015Y-11868674D02*
X11160539Y-11830579D01*
X11160539Y-11830579D02*
X11170063Y-11811531D01*
X11170063Y-11811531D02*
X11179587Y-11802008D01*
X11179587Y-11802008D02*
X11198634Y-11792484D01*
X11351015Y-11973436D02*
X11360539Y-11982960D01*
X11360539Y-11982960D02*
X11351015Y-11992484D01*
X11351015Y-11992484D02*
X11341491Y-11982960D01*
X11341491Y-11982960D02*
X11351015Y-11973436D01*
X11351015Y-11973436D02*
X11351015Y-11992484D01*
X11551015Y-11992484D02*
X11436729Y-11992484D01*
X11493872Y-11992484D02*
X11493872Y-11792484D01*
X11493872Y-11792484D02*
X11474825Y-11821055D01*
X11474825Y-11821055D02*
X11455777Y-11840103D01*
X11455777Y-11840103D02*
X11436729Y-11849627D01*
X11627206Y-11811531D02*
X11636729Y-11802008D01*
X11636729Y-11802008D02*
X11655777Y-11792484D01*
X11655777Y-11792484D02*
X11703396Y-11792484D01*
X11703396Y-11792484D02*
X11722444Y-11802008D01*
X11722444Y-11802008D02*
X11731967Y-11811531D01*
X11731967Y-11811531D02*
X11741491Y-11830579D01*
X11741491Y-11830579D02*
X11741491Y-11849627D01*
X11741491Y-11849627D02*
X11731967Y-11878198D01*
X11731967Y-11878198D02*
X11617682Y-11992484D01*
X11617682Y-11992484D02*
X11741491Y-11992484D01*
X11855777Y-11878198D02*
X11836729Y-11868674D01*
X11836729Y-11868674D02*
X11827206Y-11859150D01*
X11827206Y-11859150D02*
X11817682Y-11840103D01*
X11817682Y-11840103D02*
X11817682Y-11830579D01*
X11817682Y-11830579D02*
X11827206Y-11811531D01*
X11827206Y-11811531D02*
X11836729Y-11802008D01*
X11836729Y-11802008D02*
X11855777Y-11792484D01*
X11855777Y-11792484D02*
X11893872Y-11792484D01*
X11893872Y-11792484D02*
X11912920Y-11802008D01*
X11912920Y-11802008D02*
X11922444Y-11811531D01*
X11922444Y-11811531D02*
X11931967Y-11830579D01*
X11931967Y-11830579D02*
X11931967Y-11840103D01*
X11931967Y-11840103D02*
X11922444Y-11859150D01*
X11922444Y-11859150D02*
X11912920Y-11868674D01*
X11912920Y-11868674D02*
X11893872Y-11878198D01*
X11893872Y-11878198D02*
X11855777Y-11878198D01*
X11855777Y-11878198D02*
X11836729Y-11887722D01*
X11836729Y-11887722D02*
X11827206Y-11897246D01*
X11827206Y-11897246D02*
X11817682Y-11916293D01*
X11817682Y-11916293D02*
X11817682Y-11954388D01*
X11817682Y-11954388D02*
X11827206Y-11973436D01*
X11827206Y-11973436D02*
X11836729Y-11982960D01*
X11836729Y-11982960D02*
X11855777Y-11992484D01*
X11855777Y-11992484D02*
X11893872Y-11992484D01*
X11893872Y-11992484D02*
X11912920Y-11982960D01*
X11912920Y-11982960D02*
X11922444Y-11973436D01*
X11922444Y-11973436D02*
X11931967Y-11954388D01*
X11931967Y-11954388D02*
X11931967Y-11916293D01*
X11931967Y-11916293D02*
X11922444Y-11897246D01*
X11922444Y-11897246D02*
X11912920Y-11887722D01*
X11912920Y-11887722D02*
X11893872Y-11878198D01*
X12055777Y-11792484D02*
X12074825Y-11792484D01*
X12074825Y-11792484D02*
X12093872Y-11802008D01*
X12093872Y-11802008D02*
X12103396Y-11811531D01*
X12103396Y-11811531D02*
X12112920Y-11830579D01*
X12112920Y-11830579D02*
X12122444Y-11868674D01*
X12122444Y-11868674D02*
X12122444Y-11916293D01*
X12122444Y-11916293D02*
X12112920Y-11954388D01*
X12112920Y-11954388D02*
X12103396Y-11973436D01*
X12103396Y-11973436D02*
X12093872Y-11982960D01*
X12093872Y-11982960D02*
X12074825Y-11992484D01*
X12074825Y-11992484D02*
X12055777Y-11992484D01*
X12055777Y-11992484D02*
X12036729Y-11982960D01*
X12036729Y-11982960D02*
X12027206Y-11973436D01*
X12027206Y-11973436D02*
X12017682Y-11954388D01*
X12017682Y-11954388D02*
X12008158Y-11916293D01*
X12008158Y-11916293D02*
X12008158Y-11868674D01*
X12008158Y-11868674D02*
X12017682Y-11830579D01*
X12017682Y-11830579D02*
X12027206Y-11811531D01*
X12027206Y-11811531D02*
X12036729Y-11802008D01*
X12036729Y-11802008D02*
X12055777Y-11792484D01*
X12198634Y-11792484D02*
X12198634Y-11830579D01*
X12274825Y-11792484D02*
X12274825Y-11830579D01*
X12570063Y-12068674D02*
X12560539Y-12059150D01*
X12560539Y-12059150D02*
X12541491Y-12030579D01*
X12541491Y-12030579D02*
X12531968Y-12011531D01*
X12531968Y-12011531D02*
X12522444Y-11982960D01*
X12522444Y-11982960D02*
X12512920Y-11935341D01*
X12512920Y-11935341D02*
X12512920Y-11897246D01*
X12512920Y-11897246D02*
X12522444Y-11849627D01*
X12522444Y-11849627D02*
X12531968Y-11821055D01*
X12531968Y-11821055D02*
X12541491Y-11802008D01*
X12541491Y-11802008D02*
X12560539Y-11773436D01*
X12560539Y-11773436D02*
X12570063Y-11763912D01*
X12731968Y-11859150D02*
X12731968Y-11992484D01*
X12684348Y-11782960D02*
X12636729Y-11925817D01*
X12636729Y-11925817D02*
X12760539Y-11925817D01*
X12989110Y-11992484D02*
X12989110Y-11792484D01*
X13074825Y-11992484D02*
X13074825Y-11887722D01*
X13074825Y-11887722D02*
X13065301Y-11868674D01*
X13065301Y-11868674D02*
X13046253Y-11859150D01*
X13046253Y-11859150D02*
X13017682Y-11859150D01*
X13017682Y-11859150D02*
X12998634Y-11868674D01*
X12998634Y-11868674D02*
X12989110Y-11878198D01*
X13198634Y-11992484D02*
X13179587Y-11982960D01*
X13179587Y-11982960D02*
X13170063Y-11973436D01*
X13170063Y-11973436D02*
X13160539Y-11954388D01*
X13160539Y-11954388D02*
X13160539Y-11897246D01*
X13160539Y-11897246D02*
X13170063Y-11878198D01*
X13170063Y-11878198D02*
X13179587Y-11868674D01*
X13179587Y-11868674D02*
X13198634Y-11859150D01*
X13198634Y-11859150D02*
X13227206Y-11859150D01*
X13227206Y-11859150D02*
X13246253Y-11868674D01*
X13246253Y-11868674D02*
X13255777Y-11878198D01*
X13255777Y-11878198D02*
X13265301Y-11897246D01*
X13265301Y-11897246D02*
X13265301Y-11954388D01*
X13265301Y-11954388D02*
X13255777Y-11973436D01*
X13255777Y-11973436D02*
X13246253Y-11982960D01*
X13246253Y-11982960D02*
X13227206Y-11992484D01*
X13227206Y-11992484D02*
X13198634Y-11992484D01*
X13379587Y-11992484D02*
X13360539Y-11982960D01*
X13360539Y-11982960D02*
X13351015Y-11963912D01*
X13351015Y-11963912D02*
X13351015Y-11792484D01*
X13531968Y-11982960D02*
X13512920Y-11992484D01*
X13512920Y-11992484D02*
X13474825Y-11992484D01*
X13474825Y-11992484D02*
X13455777Y-11982960D01*
X13455777Y-11982960D02*
X13446253Y-11963912D01*
X13446253Y-11963912D02*
X13446253Y-11887722D01*
X13446253Y-11887722D02*
X13455777Y-11868674D01*
X13455777Y-11868674D02*
X13474825Y-11859150D01*
X13474825Y-11859150D02*
X13512920Y-11859150D01*
X13512920Y-11859150D02*
X13531968Y-11868674D01*
X13531968Y-11868674D02*
X13541491Y-11887722D01*
X13541491Y-11887722D02*
X13541491Y-11906769D01*
X13541491Y-11906769D02*
X13446253Y-11925817D01*
X13617682Y-11982960D02*
X13636730Y-11992484D01*
X13636730Y-11992484D02*
X13674825Y-11992484D01*
X13674825Y-11992484D02*
X13693872Y-11982960D01*
X13693872Y-11982960D02*
X13703396Y-11963912D01*
X13703396Y-11963912D02*
X13703396Y-11954388D01*
X13703396Y-11954388D02*
X13693872Y-11935341D01*
X13693872Y-11935341D02*
X13674825Y-11925817D01*
X13674825Y-11925817D02*
X13646253Y-11925817D01*
X13646253Y-11925817D02*
X13627206Y-11916293D01*
X13627206Y-11916293D02*
X13617682Y-11897246D01*
X13617682Y-11897246D02*
X13617682Y-11887722D01*
X13617682Y-11887722D02*
X13627206Y-11868674D01*
X13627206Y-11868674D02*
X13646253Y-11859150D01*
X13646253Y-11859150D02*
X13674825Y-11859150D01*
X13674825Y-11859150D02*
X13693872Y-11868674D01*
X13770063Y-12068674D02*
X13779587Y-12059150D01*
X13779587Y-12059150D02*
X13798634Y-12030579D01*
X13798634Y-12030579D02*
X13808158Y-12011531D01*
X13808158Y-12011531D02*
X13817682Y-11982960D01*
X13817682Y-11982960D02*
X13827206Y-11935341D01*
X13827206Y-11935341D02*
X13827206Y-11897246D01*
X13827206Y-11897246D02*
X13817682Y-11849627D01*
X13817682Y-11849627D02*
X13808158Y-11821055D01*
X13808158Y-11821055D02*
X13798634Y-11802008D01*
X13798634Y-11802008D02*
X13779587Y-11773436D01*
X13779587Y-11773436D02*
X13770063Y-11763912D01*
M02*
