%TF.GenerationSoftware,KiCad,Pcbnew,7.0.10-7.0.10~ubuntu22.04.1*%
%TF.CreationDate,2024-03-26T22:08:59+01:00*%
%TF.ProjectId,hackbat,6861636b-6261-4742-9e6b-696361645f70,rev?*%
%TF.SameCoordinates,Original*%
%TF.FileFunction,Soldermask,Bot*%
%TF.FilePolarity,Negative*%
%FSLAX46Y46*%
G04 Gerber Fmt 4.6, Leading zero omitted, Abs format (unit mm)*
G04 Created by KiCad (PCBNEW 7.0.10-7.0.10~ubuntu22.04.1) date 2024-03-26 22:08:59*
%MOMM*%
%LPD*%
G01*
G04 APERTURE LIST*
G04 Aperture macros list*
%AMRoundRect*
0 Rectangle with rounded corners*
0 $1 Rounding radius*
0 $2 $3 $4 $5 $6 $7 $8 $9 X,Y pos of 4 corners*
0 Add a 4 corners polygon primitive as box body*
4,1,4,$2,$3,$4,$5,$6,$7,$8,$9,$2,$3,0*
0 Add four circle primitives for the rounded corners*
1,1,$1+$1,$2,$3*
1,1,$1+$1,$4,$5*
1,1,$1+$1,$6,$7*
1,1,$1+$1,$8,$9*
0 Add four rect primitives between the rounded corners*
20,1,$1+$1,$2,$3,$4,$5,0*
20,1,$1+$1,$4,$5,$6,$7,0*
20,1,$1+$1,$6,$7,$8,$9,0*
20,1,$1+$1,$8,$9,$2,$3,0*%
G04 Aperture macros list end*
%ADD10R,1.700000X1.700000*%
%ADD11O,1.700000X1.700000*%
%ADD12R,1.500000X1.500000*%
%ADD13R,1.500000X5.080000*%
%ADD14C,3.800000*%
%ADD15RoundRect,0.375000X0.375000X-1.125000X0.375000X1.125000X-0.375000X1.125000X-0.375000X-1.125000X0*%
%ADD16O,1.600000X0.900000*%
%ADD17R,0.700000X1.200000*%
%ADD18R,1.000000X0.800000*%
%ADD19R,1.000000X2.800000*%
%ADD20R,1.000000X1.200000*%
%ADD21R,1.300000X1.900000*%
%ADD22R,1.000000X2.500000*%
%ADD23R,1.800000X1.000000*%
G04 APERTURE END LIST*
D10*
%TO.C,J5*%
X123820000Y-94200000D03*
D11*
X121280000Y-94200000D03*
X118740000Y-94200000D03*
X116200000Y-94200000D03*
%TD*%
D12*
%TO.C,AE1*%
X127750000Y-62500000D03*
%TD*%
D13*
%TO.C,J1*%
X122750000Y-62962500D03*
X131250000Y-62962500D03*
%TD*%
D14*
%TO.C,U5*%
X106550000Y-68750000D03*
X106650000Y-96750000D03*
X137300000Y-68750000D03*
X137300000Y-96750000D03*
D15*
X118100000Y-67900000D03*
X120640000Y-67900000D03*
X123180000Y-67900000D03*
X125720000Y-67900000D03*
%TD*%
D16*
%TO.C,J2*%
X91500000Y-89900000D03*
X91500000Y-96500000D03*
%TD*%
D17*
%TO.C,J4*%
X149725000Y-85600000D03*
X150825000Y-85600000D03*
X151925000Y-85600000D03*
X153025000Y-85600000D03*
X154125000Y-85600000D03*
X155225000Y-85600000D03*
X156325000Y-85600000D03*
X157425000Y-85600000D03*
X158375000Y-85600000D03*
D18*
X159325000Y-96100000D03*
D19*
X159325000Y-100250000D03*
D20*
X159325000Y-89900000D03*
X148175000Y-85600000D03*
D21*
X145825000Y-100700000D03*
%TD*%
D10*
%TO.C,J3*%
X136000000Y-85300000D03*
D11*
X136000000Y-82760000D03*
X136000000Y-80220000D03*
X136000000Y-77680000D03*
%TD*%
D22*
%TO.C,U4*%
X183750000Y-78200000D03*
X181750000Y-78200000D03*
X179750000Y-78200000D03*
X177750000Y-78200000D03*
X175750000Y-78200000D03*
X173750000Y-78200000D03*
X171750000Y-78200000D03*
X169750000Y-78200000D03*
D23*
X168250000Y-75600000D03*
X168250000Y-73600000D03*
X168250000Y-71600000D03*
X168250000Y-69600000D03*
X168250000Y-67600000D03*
X168250000Y-65600000D03*
D22*
X169750000Y-63000000D03*
X171750000Y-63000000D03*
X173750000Y-63000000D03*
X175750000Y-63000000D03*
X177750000Y-63000000D03*
X179750000Y-63000000D03*
X181750000Y-63000000D03*
X183750000Y-63000000D03*
%TD*%
M02*
